  0
SECTION
  2
HEADER
  9
$ACADVER
  1
AC1009
  0
ENDSEC
  0
SECTION
  2
TABLES
  0
TABLE
  2
LAYER
  70
2
  0
LAYER
  2
Layer_0
  70
0
  62
7
  6
CONTINUOUS
  0
LAYER
  2
Layer_2
  70
0
  62
1
  6
CONTINUOUS
  0
ENDTAB
  0
ENDSEC
  0
SECTION
  2
ENTITIES
  0
POLYLINE
  5
90
  8
Layer_2
  62
1
  70
1
  66
1
  10
0
  20
0
  30
0
  0
VERTEX
  5
90
  8
Layer_2
  10
134.62221
  20
107.18241
  42
0.062447829
  0
VERTEX
  5
91
  8
Layer_2
  10
135.07973
  20
107.29862
  42
0.23466454
  0
VERTEX
  5
92
  8
Layer_2
  10
136.38588
  20
108.66679
  42
0.052019126
  0
VERTEX
  5
93
  8
Layer_2
  10
136.46645
  20
109.78983
  0
VERTEX
  5
94
  8
Layer_2
  10
136.46645
  20
110.64921
  42
-0.29363133
  0
VERTEX
  5
95
  8
Layer_2
  10
139.18373
  20
110.63895
  0
VERTEX
  5
96
  8
Layer_2
  10
139.40102
  20
110.50272
  42
-0.021898115
  0
VERTEX
  5
97
  8
Layer_2
  10
138.1432
  20
108.15653
  0
VERTEX
  5
98
  8
Layer_2
  10
137.97768
  20
107.83183
  42
0.03058925
  0
VERTEX
  5
99
  8
Layer_2
  10
137.74574
  20
107.27274
  0
VERTEX
  5
9a
  8
Layer_2
  10
137.9435
  20
107.17265
  0
VERTEX
  5
9b
  8
Layer_2
  10
138.09389
  20
107.39188
  42
-0.26797522
  0
VERTEX
  5
9c
  8
Layer_2
  10
139.36928
  20
108.02714
  42
-0.078950119
  0
VERTEX
  5
9d
  8
Layer_2
  10
140.46791
  20
107.80253
  0
VERTEX
  5
9e
  8
Layer_2
  10
141.30531
  20
109.37235
  0
VERTEX
  5
9f
  8
Layer_2
  10
141.0685
  20
109.46268
  0
VERTEX
  5
a0
  8
Layer_2
  10
140.95815
  20
109.25321
  42
-0.13157182
  0
VERTEX
  5
a1
  8
Layer_2
  10
140.68275
  20
108.86161
  42
-0.1217874
  0
VERTEX
  5
a2
  8
Layer_2
  10
140.33217
  20
108.87919
  0
VERTEX
  5
a3
  8
Layer_2
  10
140.1349
  20
108.90702
  42
0.12621901
  0
VERTEX
  5
a4
  8
Layer_2
  10
138.72475
  20
108.658
  0
VERTEX
  5
a5
  8
Layer_2
  10
139.23451
  20
109.33964
  42
0.033113532
  0
VERTEX
  5
a6
  8
Layer_2
  10
140.17494
  20
110.67069
  42
0.17120075
  0
VERTEX
  5
a7
  8
Layer_2
  10
140.67885
  20
112.72245
  42
0.25151458
  0
VERTEX
  5
a8
  8
Layer_2
  10
139.12514
  20
114.83036
  42
0.052059622
  0
VERTEX
  5
a9
  8
Layer_2
  10
138.0558
  20
115.19999
  0
VERTEX
  5
aa
  8
Layer_2
  10
134.64027
  20
113.57401
  0
VERTEX
  5
ab
  8
Layer_2
  10
134.64027
  20
112.48515
  0
VERTEX
  5
ac
  8
Layer_2
  10
134.48891
  20
112.58183
  42
0.33178852
  0
VERTEX
  5
ad
  8
Layer_2
  10
132.95815
  20
112.59061
  42
0.039447581
  0
VERTEX
  5
ae
  8
Layer_2
  10
132.74574
  20
112.38993
  0
VERTEX
  5
af
  8
Layer_2
  10
132.86537
  20
112.22636
  0
VERTEX
  5
b0
  8
Layer_2
  10
133.00648
  20
112.31181
  42
-0.2711614
  0
VERTEX
  5
b1
  8
Layer_2
  10
134.05775
  20
112.23124
  42
-0.31355786
  0
VERTEX
  5
b2
  8
Layer_2
  10
134.64027
  20
111.18143
  42
0.11392761
  0
VERTEX
  5
b3
  8
Layer_2
  10
133.92885
  20
111.512
  42
0.268913
  0
VERTEX
  5
b4
  8
Layer_2
  10
132.74574
  20
111.05204
  0
VERTEX
  5
b5
  8
Layer_2
  10
132.86537
  20
110.8787
  0
VERTEX
  5
b6
  8
Layer_2
  10
133.0265
  20
110.98759
  42
-0.36722534
  0
VERTEX
  5
b7
  8
Layer_2
  10
134.55678
  20
110.57108
  42
-0.091276992
  0
VERTEX
  5
b8
  8
Layer_2
  10
134.75258
  20
110.03886
  42
0.17536655
  0
VERTEX
  5
b9
  8
Layer_2
  10
133.94789
  20
110.24638
  42
0.20600772
  0
VERTEX
  5
ba
  8
Layer_2
  10
133.16078
  20
109.73856
  0
VERTEX
  5
bb
  8
Layer_2
  10
133.29994
  20
109.61405
  0
VERTEX
  5
bc
  8
Layer_2
  10
133.45863
  20
109.71903
  42
-0.40121701
  0
VERTEX
  5
bd
  8
Layer_2
  10
134.75746
  20
109.40653
  42
-0.33107627
  0
VERTEX
  5
be
  8
Layer_2
  10
134.73305
  20
108.29276
  42
-0.2961304
  0
VERTEX
  5
bf
  8
Layer_2
  10
133.97523
  20
108.12235
  0
VERTEX
  5
c0
  8
Layer_2
  10
133.55678
  20
108.2078
  42
0.11909266
  0
VERTEX
  5
c1
  8
Layer_2
  10
132.51674
  20
108.22099
  42
0.20134373
  0
VERTEX
  5
c2
  8
Layer_2
  10
131.56898
  20
107.39237
  0
VERTEX
  5
c3
  8
Layer_2
  10
131.70815
  20
107.2703
  0
VERTEX
  5
c4
  8
Layer_2
  10
131.93568
  20
107.41093
  42
-0.20606047
  0
VERTEX
  5
c5
  8
Layer_2
  10
133.00453
  20
107.491
  0
VERTEX
  5
c6
  8
Layer_2
  10
133.80482
  20
107.25907
  42
0.1074289
  0
SEQEND
  0
POLYLINE
  5
c8
  8
Layer_2
  62
1
  70
1
  66
1
  10
0
  20
0
  30
0
  0
VERTEX
  5
c8
  8
Layer_2
  10
149.08705
  20
106.62333
  42
0.081281521
  0
VERTEX
  5
c9
  8
Layer_2
  10
150.6891
  20
107.58768
  42
0.1424159
  0
VERTEX
  5
ca
  8
Layer_2
  10
151.26234
  20
108.44071
  42
0.05798847
  0
VERTEX
  5
cb
  8
Layer_2
  10
151.33656
  20
109.20145
  0
VERTEX
  5
cc
  8
Layer_2
  10
151.33656
  20
111.41483
  42
0.10537867
  0
VERTEX
  5
cd
  8
Layer_2
  10
151.19057
  20
112.40409
  42
0.12715284
  0
VERTEX
  5
ce
  8
Layer_2
  10
150.56264
  20
113.00761
  0
VERTEX
  5
cf
  8
Layer_2
  10
149.05141
  20
111.80643
  42
-0.015177121
  0
VERTEX
  5
d0
  8
Layer_2
  10
149.05922
  20
113.65556
  42
-0.28460434
  0
VERTEX
  5
d1
  8
Layer_2
  10
149.65688
  20
114.68241
  0
VERTEX
  5
d2
  8
Layer_2
  10
149.60805
  20
114.7996
  42
0.17420423
  0
VERTEX
  5
d3
  8
Layer_2
  10
148.40443
  20
114.2039
  42
0.1329312
  0
VERTEX
  5
d4
  8
Layer_2
  10
147.58168
  20
114.68241
  0
VERTEX
  5
d5
  8
Layer_2
  10
147.52797
  20
114.56034
  0
VERTEX
  5
d6
  8
Layer_2
  10
147.67201
  20
114.46757
  42
-0.24229321
  0
VERTEX
  5
d7
  8
Layer_2
  10
148.02846
  20
113.83622
  42
-0.030873896
  0
VERTEX
  5
d8
  8
Layer_2
  10
148.05531
  20
113.32645
  0
VERTEX
  5
d9
  8
Layer_2
  10
148.05531
  20
108.88651
  0
VERTEX
  5
da
  8
Layer_2
  10
147.66957
  20
108.50321
  0
VERTEX
  5
db
  8
Layer_2
  10
148.54115
  20
107.80253
  0
VERTEX
  5
dc
  8
Layer_2
  10
149.39809
  20
108.50321
  0
VERTEX
  5
dd
  8
Layer_2
  10
149.05141
  20
108.85233
  0
VERTEX
  5
de
  8
Layer_2
  10
149.05141
  20
111.57108
  0
VERTEX
  5
df
  8
Layer_2
  10
149.88588
  20
112.24686
  42
-0.18200927
  0
VERTEX
  5
e0
  8
Layer_2
  10
150.29213
  20
111.81132
  42
-0.059769616
  0
VERTEX
  5
e1
  8
Layer_2
  10
150.3307
  20
111.41679
  42
-0.010700605
  0
VERTEX
  5
e2
  8
Layer_2
  10
150.31898
  20
108.6453
  42
-0.10900265
  0
VERTEX
  5
e3
  8
Layer_2
  10
150.17543
  20
107.79813
  42
-0.15912552
  0
VERTEX
  5
e4
  8
Layer_2
  10
149.08998
  20
106.87626
  42
-0.016219288
  0
VERTEX
  5
e5
  8
Layer_2
  10
148.47035
  20
106.59647
  0
VERTEX
  5
e6
  8
Layer_2
  10
148.53871
  20
106.41093
  0
SEQEND
  0
POLYLINE
  5
e8
  8
Layer_2
  62
1
  70
1
  66
1
  10
0
  20
0
  30
0
  0
VERTEX
  5
e8
  8
Layer_2
  10
143.98354
  20
114.67753
  0
VERTEX
  5
e9
  8
Layer_2
  10
143.36342
  20
114.67753
  0
VERTEX
  5
ea
  8
Layer_2
  10
143.1144
  20
113.62284
  0
VERTEX
  5
eb
  8
Layer_2
  10
143.30971
  20
113.62284
  0
SEQEND
  0
POLYLINE
  5
ed
  8
Layer_2
  62
1
  70
1
  66
1
  10
0
  20
0
  30
0
  0
VERTEX
  5
ed
  8
Layer_2
  10
137.7892
  20
112.10136
  42
-0.11840377
  0
VERTEX
  5
ee
  8
Layer_2
  10
136.46645
  20
112.57304
  0
VERTEX
  5
ef
  8
Layer_2
  10
136.46645
  20
114.11063
  42
-0.34493467
  0
VERTEX
  5
f0
  8
Layer_2
  10
139.46986
  20
113.02323
  0
VERTEX
  5
f1
  8
Layer_2
  10
139.63051
  20
112.69022
  42
-0.11127063
  0
VERTEX
  5
f2
  8
Layer_2
  10
138.37514
  20
112.12724
  42
-0.059208178
  0
SEQEND
  0
POLYLINE
  5
f4
  8
Layer_2
  62
1
  70
1
  66
1
  10
0
  20
0
  30
0
  0
VERTEX
  5
f4
  8
Layer_2
  10
147.16908
  20
108.6619
  0
VERTEX
  5
f5
  8
Layer_2
  10
147.04701
  20
108.80839
  0
VERTEX
  5
f6
  8
Layer_2
  10
146.73451
  20
108.56425
  0
VERTEX
  5
f7
  8
Layer_2
  10
146.18764
  20
108.96952
  0
VERTEX
  5
f8
  8
Layer_2
  10
146.18764
  20
112.26054
  0
VERTEX
  5
f9
  8
Layer_2
  10
147.16908
  20
112.26054
  0
VERTEX
  5
fa
  8
Layer_2
  10
147.16908
  20
112.80741
  0
VERTEX
  5
fb
  8
Layer_2
  10
146.18764
  20
112.80741
  0
VERTEX
  5
fc
  8
Layer_2
  10
146.23647
  20
114.15507
  0
VERTEX
  5
fd
  8
Layer_2
  10
146.09486
  20
114.15507
  0
VERTEX
  5
fe
  8
Layer_2
  10
144.73256
  20
112.47489
  0
VERTEX
  5
ff
  8
Layer_2
  10
144.73256
  20
112.26054
  0
VERTEX
  5
100
  8
Layer_2
  10
145.19154
  20
112.26054
  0
VERTEX
  5
101
  8
Layer_2
  10
145.19154
  20
109.45927
  42
-0.19886262
  0
VERTEX
  5
102
  8
Layer_2
  10
145.01234
  20
108.79667
  42
-0.055394815
  0
VERTEX
  5
103
  8
Layer_2
  10
144.84975
  20
108.6619
  0
VERTEX
  5
104
  8
Layer_2
  10
144.84975
  20
108.56425
  0
VERTEX
  5
105
  8
Layer_2
  10
145.18813
  20
108.44169
  42
-0.095340569
  0
VERTEX
  5
106
  8
Layer_2
  10
146.09242
  20
107.80253
  0
SEQEND
  0
POLYLINE
  5
108
  8
Layer_2
  62
1
  70
1
  66
1
  10
0
  20
0
  30
0
  0
VERTEX
  5
108
  8
Layer_2
  10
135.12611
  20
108.04325
  0
VERTEX
  5
109
  8
Layer_2
  10
135.28481
  20
108.19169
  42
0.17672073
  0
VERTEX
  5
10a
  8
Layer_2
  10
135.60951
  20
108.91581
  42
0.033762025
  0
VERTEX
  5
10b
  8
Layer_2
  10
135.64613
  20
109.54325
  0
VERTEX
  5
10c
  8
Layer_2
  10
135.64613
  20
113.74735
  0
VERTEX
  5
10d
  8
Layer_2
  10
136.24184
  20
114.04276
  0
VERTEX
  5
10e
  8
Layer_2
  10
136.24184
  20
109.83134
  42
-0.077874644
  0
VERTEX
  5
10f
  8
Layer_2
  10
136.11732
  20
108.67167
  42
-0.28662301
  0
VERTEX
  5
110
  8
Layer_2
  10
135.16762
  20
107.92509
  0
VERTEX
  5
111
  8
Layer_2
  10
134.93324
  20
107.89774
  0
SEQEND
  0
POLYLINE
  5
113
  8
Layer_2
  62
1
  70
1
  66
1
  10
0
  20
0
  30
0
  0
VERTEX
  5
113
  8
Layer_2
  10
167.91762
  20
108.6619
  0
VERTEX
  5
114
  8
Layer_2
  10
167.79799
  20
108.81327
  0
VERTEX
  5
115
  8
Layer_2
  10
167.68568
  20
108.72587
  42
-0.24394663
  0
VERTEX
  5
116
  8
Layer_2
  10
167.42201
  20
108.62138
  42
-0.23204862
  0
VERTEX
  5
117
  8
Layer_2
  10
167.24867
  20
108.94364
  42
-0.035387874
  0
VERTEX
  5
118
  8
Layer_2
  10
167.22914
  20
109.27665
  42
-0.0047029391
  0
VERTEX
  5
119
  8
Layer_2
  10
167.23109
  20
111.51298
  42
-0.26227097
  0
VERTEX
  5
11a
  8
Layer_2
  10
167.63246
  20
112.47196
  0
VERTEX
  5
11b
  8
Layer_2
  10
167.76137
  20
112.58768
  0
VERTEX
  5
11c
  8
Layer_2
  10
167.61977
  20
112.71952
  0
VERTEX
  5
11d
  8
Layer_2
  10
167.13148
  20
112.26054
  0
VERTEX
  5
11e
  8
Layer_2
  10
166.33315
  20
113.00761
  0
VERTEX
  5
11f
  8
Layer_2
  10
164.9684
  20
111.74296
  0
VERTEX
  5
120
  8
Layer_2
  10
164.94838
  20
111.92753
  42
0.20596533
  0
VERTEX
  5
121
  8
Layer_2
  10
164.3893
  20
112.82548
  0
VERTEX
  5
122
  8
Layer_2
  10
164.17006
  20
113.00761
  0
VERTEX
  5
123
  8
Layer_2
  10
162.71254
  20
111.79667
  0
VERTEX
  5
124
  8
Layer_2
  10
162.71059
  20
111.96952
  42
0.2869904
  0
VERTEX
  5
125
  8
Layer_2
  10
162.214
  20
112.89579
  0
VERTEX
  5
126
  8
Layer_2
  10
162.06068
  20
113.00761
  0
VERTEX
  5
127
  8
Layer_2
  10
161.0475
  20
112.14823
  0
VERTEX
  5
128
  8
Layer_2
  10
161.16713
  20
111.99686
  0
VERTEX
  5
129
  8
Layer_2
  10
161.27797
  20
112.08036
  42
-0.24693909
  0
VERTEX
  5
12a
  8
Layer_2
  10
161.5226
  20
112.17899
  42
-0.20764129
  0
VERTEX
  5
12b
  8
Layer_2
  10
161.71059
  20
111.81376
  42
-0.042411202
  0
VERTEX
  5
12c
  8
Layer_2
  10
161.73598
  20
111.46464
  0
VERTEX
  5
12d
  8
Layer_2
  10
161.73598
  20
108.85233
  0
VERTEX
  5
12e
  8
Layer_2
  10
161.35512
  20
108.45927
  0
VERTEX
  5
12f
  8
Layer_2
  10
162.23158
  20
107.80253
  0
VERTEX
  5
130
  8
Layer_2
  10
163.08852
  20
108.45927
  0
VERTEX
  5
131
  8
Layer_2
  10
162.71254
  20
108.85233
  0
VERTEX
  5
132
  8
Layer_2
  10
162.71254
  20
111.57255
  0
VERTEX
  5
133
  8
Layer_2
  10
163.485
  20
112.2205
  42
-0.11006102
  0
VERTEX
  5
134
  8
Layer_2
  10
163.90883
  20
111.82499
  42
-0.094627701
  0
VERTEX
  5
135
  8
Layer_2
  10
163.97231
  20
111.2786
  0
VERTEX
  5
136
  8
Layer_2
  10
163.97231
  20
108.85233
  0
VERTEX
  5
137
  8
Layer_2
  10
163.61586
  20
108.45927
  0
VERTEX
  5
138
  8
Layer_2
  10
164.48256
  20
107.80253
  0
VERTEX
  5
139
  8
Layer_2
  10
165.33461
  20
108.45927
  0
VERTEX
  5
13a
  8
Layer_2
  10
164.9684
  20
108.85233
  0
VERTEX
  5
13b
  8
Layer_2
  10
164.9684
  20
111.49198
  0
VERTEX
  5
13c
  8
Layer_2
  10
165.74379
  20
112.21708
  0
VERTEX
  5
13d
  8
Layer_2
  10
166.23305
  20
111.79276
  0
VERTEX
  5
13e
  8
Layer_2
  10
166.23305
  20
108.85136
  42
0.24157251
  0
VERTEX
  5
13f
  8
Layer_2
  10
166.69496
  20
107.93827
  0
VERTEX
  5
140
  8
Layer_2
  10
166.86049
  20
107.80253
  0
SEQEND
  0
POLYLINE
  5
142
  8
Layer_2
  62
1
  70
1
  66
1
  10
0
  20
0
  30
0
  0
VERTEX
  5
142
  8
Layer_2
  10
153.48598
  20
106.43143
  42
0.18994588
  0
VERTEX
  5
143
  8
Layer_2
  10
154.28969
  20
106.81278
  42
0.39301408
  0
VERTEX
  5
144
  8
Layer_2
  10
154.28871
  20
107.10917
  42
0.33645609
  0
VERTEX
  5
145
  8
Layer_2
  10
153.98109
  20
107.11405
  42
0.024873209
  0
VERTEX
  5
146
  8
Layer_2
  10
153.74037
  20
106.77567
  0
VERTEX
  5
147
  8
Layer_2
  10
153.64906
  20
106.69901
  42
-0.32690257
  0
VERTEX
  5
148
  8
Layer_2
  10
152.4059
  20
106.91776
  42
-0.37331409
  0
VERTEX
  5
149
  8
Layer_2
  10
152.38979
  20
107.61552
  42
-0.09406767
  0
VERTEX
  5
14a
  8
Layer_2
  10
153.03529
  20
108.11991
  0
VERTEX
  5
14b
  8
Layer_2
  10
153.55434
  20
108.43436
  42
0.04976853
  0
VERTEX
  5
14c
  8
Layer_2
  10
155.23549
  20
109.62821
  42
0.20545744
  0
VERTEX
  5
14d
  8
Layer_2
  10
156.01723
  20
111.3035
  42
0.1980318
  0
VERTEX
  5
14e
  8
Layer_2
  10
155.25795
  20
113.00761
  0
VERTEX
  5
14f
  8
Layer_2
  10
153.78578
  20
111.83085
  42
0.19244514
  0
VERTEX
  5
150
  8
Layer_2
  10
153.58022
  20
112.62431
  42
0.059886005
  0
VERTEX
  5
151
  8
Layer_2
  10
153.11684
  20
113.00761
  0
VERTEX
  5
152
  8
Layer_2
  10
152.09145
  20
112.15311
  0
VERTEX
  5
153
  8
Layer_2
  10
152.21352
  20
111.99198
  0
VERTEX
  5
154
  8
Layer_2
  10
152.33852
  20
112.10624
  42
-0.3975589
  0
VERTEX
  5
155
  8
Layer_2
  10
152.58754
  20
112.14335
  42
-0.21413275
  0
VERTEX
  5
156
  8
Layer_2
  10
152.78285
  20
111.60136
  0
VERTEX
  5
157
  8
Layer_2
  10
152.78969
  20
111.37675
  42
-0.0089987012
  0
VERTEX
  5
158
  8
Layer_2
  10
152.78725
  20
108.90702
  42
-0.21828234
  0
VERTEX
  5
159
  8
Layer_2
  10
152.40102
  20
108.01737
  0
VERTEX
  5
15a
  8
Layer_2
  10
152.25307
  20
107.8455
  42
0.19948051
  0
VERTEX
  5
15b
  8
Layer_2
  10
152.06631
  20
107.24039
  42
0.1994813
  0
VERTEX
  5
15c
  8
Layer_2
  10
152.36488
  20
106.68192
  42
0.20226246
  0
SEQEND
  0
POLYLINE
  5
15e
  8
Layer_2
  62
1
  70
1
  66
1
  10
0
  20
0
  30
0
  0
VERTEX
  5
15e
  8
Layer_2
  10
160.61
  20
108.70097
  0
VERTEX
  5
15f
  8
Layer_2
  10
160.49037
  20
108.85233
  0
VERTEX
  5
160
  8
Layer_2
  10
160.35121
  20
108.73856
  42
-0.22768194
  0
VERTEX
  5
161
  8
Layer_2
  10
160.1944
  20
108.65723
  42
-0.22771429
  0
VERTEX
  5
162
  8
Layer_2
  10
160.03334
  20
108.72977
  42
-0.16775627
  0
VERTEX
  5
163
  8
Layer_2
  10
159.92592
  20
109.19901
  42
-0.013218017
  0
VERTEX
  5
164
  8
Layer_2
  10
159.92592
  20
111.68974
  42
-0.14705969
  0
VERTEX
  5
165
  8
Layer_2
  10
160.20668
  20
112.53642
  0
VERTEX
  5
166
  8
Layer_2
  10
160.3268
  20
112.72929
  0
VERTEX
  5
167
  8
Layer_2
  10
160.15102
  20
112.79765
  0
VERTEX
  5
168
  8
Layer_2
  10
160.09193
  20
112.71806
  42
-0.37034367
  0
VERTEX
  5
169
  8
Layer_2
  10
159.69057
  20
112.55643
  42
-0.09313934
  0
VERTEX
  5
16a
  8
Layer_2
  10
158.39223
  20
113.00761
  42
-0.2529919
  0
VERTEX
  5
16b
  8
Layer_2
  10
157.09633
  20
112.56815
  0
VERTEX
  5
16c
  8
Layer_2
  10
157.02797
  20
112.44169
  0
VERTEX
  5
16d
  8
Layer_2
  10
157.61586
  20
111.18681
  0
VERTEX
  5
16e
  8
Layer_2
  10
157.3434
  20
110.85477
  42
0.081498847
  0
VERTEX
  5
16f
  8
Layer_2
  10
156.70815
  20
109.78934
  42
0.19628943
  0
VERTEX
  5
170
  8
Layer_2
  10
156.72377
  20
108.65067
  42
0.10826188
  0
VERTEX
  5
171
  8
Layer_2
  10
157.4435
  20
107.80253
  0
VERTEX
  5
172
  8
Layer_2
  10
158.92543
  20
108.9744
  42
0.24901182
  0
VERTEX
  5
173
  8
Layer_2
  10
159.39906
  20
107.94559
  0
VERTEX
  5
174
  8
Layer_2
  10
159.5724
  20
107.80253
  0
SEQEND
  0
POLYLINE
  5
176
  8
Layer_2
  62
1
  70
1
  66
1
  10
0
  20
0
  30
0
  0
VERTEX
  5
176
  8
Layer_2
  10
144.1642
  20
108.65214
  0
VERTEX
  5
177
  8
Layer_2
  10
144.04457
  20
108.8035
  0
VERTEX
  5
178
  8
Layer_2
  10
143.9557
  20
108.73124
  42
-0.25830655
  0
VERTEX
  5
179
  8
Layer_2
  10
143.65443
  20
108.59208
  42
-0.24604063
  0
VERTEX
  5
17a
  8
Layer_2
  10
143.4933
  20
108.91093
  42
-0.030884526
  0
VERTEX
  5
17b
  8
Layer_2
  10
143.47572
  20
109.25761
  0
VERTEX
  5
17c
  8
Layer_2
  10
143.47572
  20
111.91386
  0
VERTEX
  5
17d
  8
Layer_2
  10
143.86147
  20
112.28739
  0
VERTEX
  5
17e
  8
Layer_2
  10
142.99477
  20
113.00761
  0
VERTEX
  5
17f
  8
Layer_2
  10
142.13295
  20
112.28739
  0
VERTEX
  5
180
  8
Layer_2
  10
142.49916
  20
111.91386
  0
VERTEX
  5
181
  8
Layer_2
  10
142.49916
  20
109.18925
  42
0.095233484
  0
VERTEX
  5
182
  8
Layer_2
  10
142.61195
  20
108.32743
  42
0.12537801
  0
VERTEX
  5
183
  8
Layer_2
  10
143.11684
  20
107.80253
  0
SEQEND
  0
POLYLINE
  5
185
  8
Layer_2
  62
1
  70
1
  66
1
  10
0
  20
0
  30
0
  0
VERTEX
  5
185
  8
Layer_2
  10
139.26332
  20
110.85722
  0
VERTEX
  5
186
  8
Layer_2
  10
139.05482
  20
110.97538
  42
0.23781109
  0
VERTEX
  5
187
  8
Layer_2
  10
136.67348
  20
111.00761
  0
VERTEX
  5
188
  8
Layer_2
  10
136.46645
  20
110.91288
  0
VERTEX
  5
189
  8
Layer_2
  10
136.46645
  20
112.31425
  0
VERTEX
  5
18a
  8
Layer_2
  10
136.6974
  20
112.19706
  42
0.27826638
  0
VERTEX
  5
18b
  8
Layer_2
  10
139.44057
  20
112.2952
  0
VERTEX
  5
18c
  8
Layer_2
  10
139.69887
  20
112.45097
  42
-0.13212919
  0
VERTEX
  5
18d
  8
Layer_2
  10
139.59877
  20
111.05692
  0
VERTEX
  5
18e
  8
Layer_2
  10
139.47914
  20
110.71757
  0
SEQEND
  0
POLYLINE
  5
190
  8
Layer_2
  62
1
  70
1
  66
1
  10
0
  20
0
  30
0
  0
VERTEX
  5
190
  8
Layer_2
  10
157.84975
  20
111.12431
  0
VERTEX
  5
191
  8
Layer_2
  10
157.25551
  20
112.38261
  0
VERTEX
  5
192
  8
Layer_2
  10
158.92543
  20
111.86991
  0
VERTEX
  5
193
  8
Layer_2
  10
158.92543
  20
110.61942
  0
SEQEND
  0
POLYLINE
  5
195
  8
Layer_2
  62
1
  70
1
  66
1
  10
0
  20
0
  30
0
  0
VERTEX
  5
195
  8
Layer_2
  10
153.78578
  20
111.60624
  0
VERTEX
  5
196
  8
Layer_2
  10
154.51381
  20
112.18827
  42
-0.3438212
  0
VERTEX
  5
197
  8
Layer_2
  10
154.76088
  20
109.87089
  42
-0.11177834
  0
VERTEX
  5
198
  8
Layer_2
  10
153.78578
  20
108.8328
  0
SEQEND
  0
POLYLINE
  5
19a
  8
Layer_2
  62
1
  70
1
  66
1
  10
0
  20
0
  30
0
  0
VERTEX
  5
19a
  8
Layer_2
  10
158.02016
  20
108.75028
  0
VERTEX
  5
19b
  8
Layer_2
  10
157.87416
  20
108.89188
  42
-0.27001827
  0
VERTEX
  5
19c
  8
Layer_2
  10
157.53871
  20
110.40995
  42
-0.043239846
  0
VERTEX
  5
19d
  8
Layer_2
  10
157.74379
  20
110.96952
  0
VERTEX
  5
19e
  8
Layer_2
  10
158.92543
  20
110.41483
  0
VERTEX
  5
19f
  8
Layer_2
  10
158.92543
  20
109.21317
  0
VERTEX
  5
1a0
  8
Layer_2
  10
158.18813
  20
108.61796
  0
SEQEND
  0
POLYLINE
  5
1a2
  8
Layer_0
  62
7
  70
1
  66
1
  10
0
  20
0
  30
0
  0
VERTEX
  5
1a2
  8
Layer_0
  10
117.55005
  20
132.5
  0
VERTEX
  5
1a3
  8
Layer_0
  10
116.00006
  20
132.5
  42
0.078718242
  0
VERTEX
  5
1a4
  8
Layer_0
  10
114.14594
  20
132.2063
  42
0.078706836
  0
VERTEX
  5
1a5
  8
Layer_0
  10
112.47333
  20
131.35413
  42
0.07868498
  0
VERTEX
  5
1a6
  8
Layer_0
  10
111.14594
  20
130.02673
  42
0.078714354
  0
VERTEX
  5
1a7
  8
Layer_0
  10
110.2937
  20
128.35406
  42
0.078695098
  0
VERTEX
  5
1a8
  8
Layer_0
  10
110
  20
126.5
  0
VERTEX
  5
1a9
  8
Layer_0
  10
110
  20
73.5
  42
0.078695098
  0
VERTEX
  5
1aa
  8
Layer_0
  10
110.2937
  20
71.645874
  42
0.078706836
  0
VERTEX
  5
1ab
  8
Layer_0
  10
111.14594
  20
69.973267
  42
0.078704666
  0
VERTEX
  5
1ac
  8
Layer_0
  10
112.47333
  20
68.645874
  42
0.078687147
  0
VERTEX
  5
1ad
  8
Layer_0
  10
114.14594
  20
67.79364
  42
0.078695098
  0
VERTEX
  5
1ae
  8
Layer_0
  10
116.00006
  20
67.5
  0
VERTEX
  5
1af
  8
Layer_0
  10
184.00006
  20
67.5
  42
0.078695098
  0
VERTEX
  5
1b0
  8
Layer_0
  10
185.85419
  20
67.79364
  42
0.078664004
  0
VERTEX
  5
1b1
  8
Layer_0
  10
187.52679
  20
68.645874
  42
0.078690362
  0
VERTEX
  5
1b2
  8
Layer_0
  10
188.85419
  20
69.973267
  42
0.078683692
  0
VERTEX
  5
1b3
  8
Layer_0
  10
189.70642
  20
71.645935
  42
0.078671953
  0
VERTEX
  5
1b4
  8
Layer_0
  10
190
  20
73.500061
  0
VERTEX
  5
1b5
  8
Layer_0
  10
190
  20
126.5
  42
0.078671953
  0
VERTEX
  5
1b6
  8
Layer_0
  10
189.70642
  20
128.35406
  42
0.078697996
  0
VERTEX
  5
1b7
  8
Layer_0
  10
188.85419
  20
130.02667
  42
0.078690362
  0
VERTEX
  5
1b8
  8
Layer_0
  10
187.52679
  20
131.35413
  42
0.078685013
  0
VERTEX
  5
1b9
  8
Layer_0
  10
185.85419
  20
132.2063
  42
0.078718242
  0
VERTEX
  5
1ba
  8
Layer_0
  10
184.00006
  20
132.5
  0
VERTEX
  5
1bb
  8
Layer_0
  10
118.45007
  20
132.5
  0
SEQEND
  0
POLYLINE
  5
1bd
  8
Layer_0
  62
7
  70
1
  66
1
  10
0
  20
0
  30
0
  0
VERTEX
  5
1bd
  8
Layer_0
  10
160.00006
  20
73.100037
  0
VERTEX
  5
1be
  8
Layer_0
  10
140.00006
  20
73.100037
  42
-0.078581224
  0
VERTEX
  5
1bf
  8
Layer_0
  10
139.92279
  20
73.112244
  42
-0.078899387
  0
VERTEX
  5
1c0
  8
Layer_0
  10
139.85309
  20
73.147705
  42
-0.078075102
  0
VERTEX
  5
1c1
  8
Layer_0
  10
139.79779
  20
73.203003
  42
-0.078556232
  0
VERTEX
  5
1c2
  8
Layer_0
  10
139.76227
  20
73.272766
  42
-0.078761696
  0
VERTEX
  5
1c3
  8
Layer_0
  10
139.75
  20
73.349976
  42
-0.078761696
  0
VERTEX
  5
1c4
  8
Layer_0
  10
139.76227
  20
73.427185
  42
-0.078556232
  0
VERTEX
  5
1c5
  8
Layer_0
  10
139.79779
  20
73.496948
  42
-0.078547321
  0
VERTEX
  5
1c6
  8
Layer_0
  10
139.85309
  20
73.552246
  42
-0.078816913
  0
VERTEX
  5
1c7
  8
Layer_0
  10
139.92279
  20
73.587769
  42
-0.078025744
  0
VERTEX
  5
1c8
  8
Layer_0
  10
140.00006
  20
73.599976
  0
VERTEX
  5
1c9
  8
Layer_0
  10
143.70001
  20
73.599976
  42
0.074786128
  0
VERTEX
  5
1ca
  8
Layer_0
  10
143.84729
  20
73.622131
  42
0.078684637
  0
VERTEX
  5
1cb
  8
Layer_0
  10
143.98779
  20
73.69104
  42
0.078483788
  0
VERTEX
  5
1cc
  8
Layer_0
  10
144.10004
  20
73.799988
  42
0.079008725
  0
VERTEX
  5
1cd
  8
Layer_0
  10
144.17316
  20
73.938293
  42
0.078860787
  0
VERTEX
  5
1ce
  8
Layer_0
  10
144.19995
  20
74.092407
  42
0.079062222
  0
VERTEX
  5
1cf
  8
Layer_0
  10
144.17786
  20
74.247253
  42
0.078598606
  0
VERTEX
  5
1d0
  8
Layer_0
  10
144.10895
  20
74.387695
  42
0.079065805
  0
VERTEX
  5
1d1
  8
Layer_0
  10
144
  20
74.5
  42
-0.09118325
  0
VERTEX
  5
1d2
  8
Layer_0
  10
141.54669
  20
77.157715
  42
-0.078821562
  0
VERTEX
  5
1d3
  8
Layer_0
  10
141.43073
  20
77.110474
  42
-0.078354357
  0
VERTEX
  5
1d4
  8
Layer_0
  10
141.30597
  20
77.101379
  42
-0.078585312
  0
VERTEX
  5
1d5
  8
Layer_0
  10
141.18445
  20
77.131409
  42
-0.078457917
  0
VERTEX
  5
1d6
  8
Layer_0
  10
141.07813
  20
77.197449
  42
-0.078634072
  0
VERTEX
  5
1d7
  8
Layer_0
  10
140.99744
  20
77.293152
  42
-0.078970572
  0
VERTEX
  5
1d8
  8
Layer_0
  10
140.95032
  20
77.408997
  42
-0.07895095
  0
VERTEX
  5
1d9
  8
Layer_0
  10
140.94122
  20
77.533875
  42
-0.078918095
  0
VERTEX
  5
1da
  8
Layer_0
  10
140.97119
  20
77.655334
  42
-0.079077482
  0
VERTEX
  5
1db
  8
Layer_0
  10
141.03723
  20
77.761597
  42
-0.088644328
  0
VERTEX
  5
1dc
  8
Layer_0
  10
141.14673
  20
77.850342
  42
-0.078702441
  0
VERTEX
  5
1dd
  8
Layer_0
  10
140.14325
  20
80.813721
  42
-0.07869183
  0
VERTEX
  5
1de
  8
Layer_0
  10
140.10455
  20
83.942139
  42
-0.078693286
  0
VERTEX
  5
1df
  8
Layer_0
  10
141.03455
  20
86.929443
  42
-0.078691744
  0
VERTEX
  5
1e0
  8
Layer_0
  10
142.8421
  20
89.483093
  42
-0.078700812
  0
VERTEX
  5
1e1
  8
Layer_0
  10
145.35034
  20
91.353271
  42
-0.078694187
  0
VERTEX
  5
1e2
  8
Layer_0
  10
148.31378
  20
92.356812
  42
-0.078704174
  0
VERTEX
  5
1e3
  8
Layer_0
  10
151.4422
  20
92.395447
  42
-0.078720825
  0
VERTEX
  5
1e4
  8
Layer_0
  10
154.4295
  20
91.465454
  42
-0.078694894
  0
VERTEX
  5
1e5
  8
Layer_0
  10
156.98322
  20
89.657898
  42
-0.078690617
  0
VERTEX
  5
1e6
  8
Layer_0
  10
158.85333
  20
87.149658
  42
-0.078685587
  0
VERTEX
  5
1e7
  8
Layer_0
  10
159.85687
  20
84.186279
  42
-0.078675333
  0
VERTEX
  5
1e8
  8
Layer_0
  10
159.89551
  20
81.0578
  42
-0.08492204
  0
VERTEX
  5
1e9
  8
Layer_0
  10
158.85333
  20
77.850342
  42
-0.078065207
  0
VERTEX
  5
1ea
  8
Layer_0
  10
158.95215
  20
77.77356
  42
-0.078706474
  0
VERTEX
  5
1eb
  8
Layer_0
  10
159.0224
  20
77.669922
  42
-0.078672772
  0
VERTEX
  5
1ec
  8
Layer_0
  10
159.05713
  20
77.549744
  42
-0.079222115
  0
VERTEX
  5
1ed
  8
Layer_0
  10
159.05316
  20
77.424683
  42
-0.07887448
  0
VERTEX
  5
1ee
  8
Layer_0
  10
159.01062
  20
77.307007
  42
-0.078491297
  0
VERTEX
  5
1ef
  8
Layer_0
  10
158.93384
  20
77.20813
  42
-0.078221508
  0
VERTEX
  5
1f0
  8
Layer_0
  10
158.83026
  20
77.137878
  42
-0.078265099
  0
VERTEX
  5
1f1
  8
Layer_0
  10
158.71008
  20
77.103088
  42
-0.078814668
  0
VERTEX
  5
1f2
  8
Layer_0
  10
158.58496
  20
77.107117
  42
-0.088413414
  0
VERTEX
  5
1f3
  8
Layer_0
  10
158.45343
  20
77.157654
  42
-0.091172581
  0
VERTEX
  5
1f4
  8
Layer_0
  10
156
  20
74.5
  42
0.074872785
  0
VERTEX
  5
1f5
  8
Layer_0
  10
155.89557
  20
74.39386
  42
0.078873692
  0
VERTEX
  5
1f6
  8
Layer_0
  10
155.82452
  20
74.254517
  42
0.078949098
  0
VERTEX
  5
1f7
  8
Layer_0
  10
155.80005
  20
74.099976
  42
0.078949098
  0
VERTEX
  5
1f8
  8
Layer_0
  10
155.82452
  20
73.945496
  42
0.078873692
  0
VERTEX
  5
1f9
  8
Layer_0
  10
155.89557
  20
73.806091
  42
0.078547321
  0
VERTEX
  5
1fa
  8
Layer_0
  10
156.0061
  20
73.695496
  42
0.078980109
  0
VERTEX
  5
1fb
  8
Layer_0
  10
156.14551
  20
73.624512
  42
0.078858685
  0
VERTEX
  5
1fc
  8
Layer_0
  10
156.30005
  20
73.599976
  0
VERTEX
  5
1fd
  8
Layer_0
  10
160.00006
  20
73.599976
  42
-0.078025744
  0
VERTEX
  5
1fe
  8
Layer_0
  10
160.07727
  20
73.587769
  42
-0.078816913
  0
VERTEX
  5
1ff
  8
Layer_0
  10
160.14697
  20
73.552246
  42
-0.078075102
  0
VERTEX
  5
200
  8
Layer_0
  10
160.20233
  20
73.496948
  42
-0.078001548
  0
VERTEX
  5
201
  8
Layer_0
  10
160.23785
  20
73.427185
  42
-0.0782051
  0
VERTEX
  5
202
  8
Layer_0
  10
160.25006
  20
73.349976
  42
-0.0782051
  0
VERTEX
  5
203
  8
Layer_0
  10
160.23785
  20
73.272766
  42
-0.078001548
  0
VERTEX
  5
204
  8
Layer_0
  10
160.20233
  20
73.203003
  42
-0.077602917
  0
VERTEX
  5
205
  8
Layer_0
  10
160.14697
  20
73.147705
  42
-0.078899387
  0
VERTEX
  5
206
  8
Layer_0
  10
160.07727
  20
73.112244
  42
-0.078581224
  0
SEQEND
  0
POLYLINE
  5
208
  8
Layer_0
  62
7
  70
1
  66
1
  10
0
  20
0
  30
0
  0
VERTEX
  5
208
  8
Layer_0
  10
177.53864
  20
84.074097
  0
VERTEX
  5
209
  8
Layer_0
  10
177.34546
  20
84.022278
  0
VERTEX
  5
20a
  8
Layer_0
  10
176.01764
  20
88.977478
  42
0.078755215
  0
VERTEX
  5
20b
  8
Layer_0
  10
175.70331
  20
89.683472
  42
0.078703955
  0
VERTEX
  5
20c
  8
Layer_0
  10
175.18628
  20
90.257751
  42
0.078742817
  0
VERTEX
  5
20d
  8
Layer_0
  10
174.51703
  20
90.644104
  42
0.078680884
  0
VERTEX
  5
20e
  8
Layer_0
  10
173.76111
  20
90.80481
  42
0.078647966
  0
VERTEX
  5
20f
  8
Layer_0
  10
172.99255
  20
90.72406
  42
0.078641003
  0
VERTEX
  5
210
  8
Layer_0
  10
172.28656
  20
90.409729
  42
0.078654372
  0
VERTEX
  5
211
  8
Layer_0
  10
171.71228
  20
89.892639
  42
0.078763993
  0
VERTEX
  5
212
  8
Layer_0
  10
171.32593
  20
89.223389
  42
0.078680884
  0
VERTEX
  5
213
  8
Layer_0
  10
171.16522
  20
88.467468
  42
0.078701977
  0
VERTEX
  5
214
  8
Layer_0
  10
171.24603
  20
87.698914
  0
VERTEX
  5
215
  8
Layer_0
  10
172.57373
  20
82.743713
  0
VERTEX
  5
216
  8
Layer_0
  10
172.38055
  20
82.691956
  42
0.078923361
  0
VERTEX
  5
217
  8
Layer_0
  10
172.30908
  20
82.660156
  42
0.078673725
  0
VERTEX
  5
218
  8
Layer_0
  10
172.25098
  20
82.607849
  42
0.078201484
  0
VERTEX
  5
219
  8
Layer_0
  10
172.21179
  20
82.5401
  42
0.077713669
  0
VERTEX
  5
21a
  8
Layer_0
  10
172.19556
  20
82.463562
  42
0.078842195
  0
VERTEX
  5
21b
  8
Layer_0
  10
172.2038
  20
82.385803
  0
VERTEX
  5
21c
  8
Layer_0
  10
172.34357
  20
81.864197
  42
0.078751298
  0
VERTEX
  5
21d
  8
Layer_0
  10
172.37537
  20
81.792725
  42
0.07863851
  0
VERTEX
  5
21e
  8
Layer_0
  10
172.42767
  20
81.734619
  42
0.078380181
  0
VERTEX
  5
21f
  8
Layer_0
  10
172.49548
  20
81.695496
  42
0.079052609
  0
VERTEX
  5
220
  8
Layer_0
  10
172.57196
  20
81.67926
  42
0.078860263
  0
VERTEX
  5
221
  8
Layer_0
  10
172.64972
  20
81.687378
  0
VERTEX
  5
222
  8
Layer_0
  10
173.7605
  20
81.985046
  42
-0.078559017
  0
VERTEX
  5
223
  8
Layer_0
  10
173.83832
  20
81.993225
  42
-0.078259726
  0
VERTEX
  5
224
  8
Layer_0
  10
173.91479
  20
81.97699
  42
-0.079323114
  0
VERTEX
  5
225
  8
Layer_0
  10
173.98254
  20
81.937866
  42
-0.078551518
  0
VERTEX
  5
226
  8
Layer_0
  10
174.03491
  20
81.879761
  42
-0.078677178
  0
VERTEX
  5
227
  8
Layer_0
  10
174.06677
  20
81.808289
  0
VERTEX
  5
228
  8
Layer_0
  10
174.59473
  20
79.83783
  42
0.078021213
  0
VERTEX
  5
229
  8
Layer_0
  10
174.62659
  20
79.766296
  42
0.078673725
  0
VERTEX
  5
22a
  8
Layer_0
  10
174.67889
  20
79.708191
  42
0.078746675
  0
VERTEX
  5
22b
  8
Layer_0
  10
174.74664
  20
79.669128
  42
0.078804921
  0
VERTEX
  5
22c
  8
Layer_0
  10
174.82318
  20
79.652832
  42
0.078125927
  0
VERTEX
  5
22d
  8
Layer_0
  10
174.90094
  20
79.661011
  0
VERTEX
  5
22e
  8
Layer_0
  10
176.87146
  20
80.188965
  42
0.078187164
  0
VERTEX
  5
22f
  8
Layer_0
  10
176.94287
  20
80.220825
  42
0.078551518
  0
VERTEX
  5
230
  8
Layer_0
  10
177.00104
  20
80.273193
  42
0.079323114
  0
VERTEX
  5
231
  8
Layer_0
  10
177.0401
  20
80.340942
  42
0.078804921
  0
VERTEX
  5
232
  8
Layer_0
  10
177.0564
  20
80.417419
  42
0.0779954
  0
VERTEX
  5
233
  8
Layer_0
  10
177.04828
  20
80.495239
  0
VERTEX
  5
234
  8
Layer_0
  10
176.52014
  20
82.465698
  42
-0.078125927
  0
VERTEX
  5
235
  8
Layer_0
  10
176.51196
  20
82.543457
  42
-0.078259726
  0
VERTEX
  5
236
  8
Layer_0
  10
176.52826
  20
82.619995
  42
-0.078746675
  0
VERTEX
  5
237
  8
Layer_0
  10
176.56738
  20
82.687744
  42
-0.078991155
  0
VERTEX
  5
238
  8
Layer_0
  10
176.62549
  20
82.740051
  42
-0.079391655
  0
VERTEX
  5
239
  8
Layer_0
  10
176.69696
  20
82.771851
  0
VERTEX
  5
23a
  8
Layer_0
  10
177.80774
  20
83.069519
  42
0.079241356
  0
VERTEX
  5
23b
  8
Layer_0
  10
177.87921
  20
83.101318
  42
0.078551518
  0
VERTEX
  5
23c
  8
Layer_0
  10
177.93738
  20
83.153687
  42
0.078659681
  0
VERTEX
  5
23d
  8
Layer_0
  10
177.97644
  20
83.221375
  42
0.078634526
  0
VERTEX
  5
23e
  8
Layer_0
  10
177.99268
  20
83.297913
  42
0.079273481
  0
VERTEX
  5
23f
  8
Layer_0
  10
177.9845
  20
83.375671
  0
VERTEX
  5
240
  8
Layer_0
  10
177.84485
  20
83.897278
  42
0.078187164
  0
VERTEX
  5
241
  8
Layer_0
  10
177.81305
  20
83.96875
  42
0.078869494
  0
VERTEX
  5
242
  8
Layer_0
  10
177.76068
  20
84.026855
  42
0.078746675
  0
VERTEX
  5
243
  8
Layer_0
  10
177.69293
  20
84.065979
  42
0.078228454
  0
VERTEX
  5
244
  8
Layer_0
  10
177.61646
  20
84.082275
  42
0.078096147
  0
SEQEND
  0
POLYLINE
  5
246
  8
Layer_0
  62
7
  70
1
  66
1
  10
0
  20
0
  30
0
  0
VERTEX
  5
246
  8
Layer_0
  10
128.75403
  20
87.698914
  0
VERTEX
  5
247
  8
Layer_0
  10
127.42633
  20
82.743713
  0
VERTEX
  5
248
  8
Layer_0
  10
127.61957
  20
82.691956
  42
-0.079090384
  0
VERTEX
  5
249
  8
Layer_0
  10
127.69098
  20
82.660156
  42
-0.078673725
  0
VERTEX
  5
24a
  8
Layer_0
  10
127.74915
  20
82.607849
  42
-0.078746675
  0
VERTEX
  5
24b
  8
Layer_0
  10
127.78821
  20
82.5401
  42
-0.078804921
  0
VERTEX
  5
24c
  8
Layer_0
  10
127.8045
  20
82.463562
  42
-0.078276876
  0
VERTEX
  5
24d
  8
Layer_0
  10
127.79639
  20
82.385803
  0
VERTEX
  5
24e
  8
Layer_0
  10
127.65656
  20
81.864197
  42
-0.078677178
  0
VERTEX
  5
24f
  8
Layer_0
  10
127.62469
  20
81.792725
  42
-0.079372301
  0
VERTEX
  5
250
  8
Layer_0
  10
127.57233
  20
81.734619
  42
-0.079114514
  0
VERTEX
  5
251
  8
Layer_0
  10
127.50464
  20
81.695496
  42
-0.078843111
  0
VERTEX
  5
252
  8
Layer_0
  10
127.42816
  20
81.67926
  42
-0.078678171
  0
VERTEX
  5
253
  8
Layer_0
  10
127.35034
  20
81.687378
  0
VERTEX
  5
254
  8
Layer_0
  10
126.23956
  20
81.985046
  42
0.078740574
  0
VERTEX
  5
255
  8
Layer_0
  10
126.1618
  20
81.993225
  42
0.078500332
  0
VERTEX
  5
256
  8
Layer_0
  10
126.08527
  20
81.97699
  42
0.078746675
  0
VERTEX
  5
257
  8
Layer_0
  10
126.01752
  20
81.937866
  42
0.078183711
  0
VERTEX
  5
258
  8
Layer_0
  10
125.96515
  20
81.879761
  42
0.078751298
  0
VERTEX
  5
259
  8
Layer_0
  10
125.93335
  20
81.808289
  0
VERTEX
  5
25a
  8
Layer_0
  10
125.40533
  20
79.837769
  42
-0.077869774
  0
VERTEX
  5
25b
  8
Layer_0
  10
125.37354
  20
79.766296
  42
-0.078551518
  0
VERTEX
  5
25c
  8
Layer_0
  10
125.32117
  20
79.708191
  42
-0.078746675
  0
VERTEX
  5
25d
  8
Layer_0
  10
125.25342
  20
79.669128
  42
-0.078804921
  0
VERTEX
  5
25e
  8
Layer_0
  10
125.17694
  20
79.652832
  42
-0.077975658
  0
VERTEX
  5
25f
  8
Layer_0
  10
125.09912
  20
79.661011
  0
VERTEX
  5
260
  8
Layer_0
  10
123.12866
  20
80.188965
  42
-0.078187164
  0
VERTEX
  5
261
  8
Layer_0
  10
123.05719
  20
80.220825
  42
-0.078551518
  0
VERTEX
  5
262
  8
Layer_0
  10
122.99908
  20
80.273193
  42
-0.079323114
  0
VERTEX
  5
263
  8
Layer_0
  10
122.95996
  20
80.340942
  42
-0.078836051
  0
VERTEX
  5
264
  8
Layer_0
  10
122.94366
  20
80.417419
  42
-0.077975658
  0
VERTEX
  5
265
  8
Layer_0
  10
122.95184
  20
80.495239
  0
VERTEX
  5
266
  8
Layer_0
  10
123.47998
  20
82.465698
  42
0.077561172
  0
VERTEX
  5
267
  8
Layer_0
  10
123.4881
  20
82.543457
  42
0.078259726
  0
VERTEX
  5
268
  8
Layer_0
  10
123.47186
  20
82.619995
  42
0.078201484
  0
VERTEX
  5
269
  8
Layer_0
  10
123.43274
  20
82.687744
  42
0.07835507
  0
VERTEX
  5
26a
  8
Layer_0
  10
123.37463
  20
82.740051
  42
0.079241356
  0
VERTEX
  5
26b
  8
Layer_0
  10
123.30316
  20
82.771851
  0
VERTEX
  5
26c
  8
Layer_0
  10
122.19232
  20
83.069519
  42
-0.079241356
  0
VERTEX
  5
26d
  8
Layer_0
  10
122.12085
  20
83.101318
  42
-0.078551518
  0
VERTEX
  5
26e
  8
Layer_0
  10
122.06274
  20
83.153687
  42
-0.079114514
  0
VERTEX
  5
26f
  8
Layer_0
  10
122.02368
  20
83.221375
  42
-0.078595333
  0
VERTEX
  5
270
  8
Layer_0
  10
122.00739
  20
83.297913
  42
-0.078125927
  0
VERTEX
  5
271
  8
Layer_0
  10
122.01556
  20
83.375671
  0
VERTEX
  5
272
  8
Layer_0
  10
122.15521
  20
83.897278
  42
-0.078677178
  0
VERTEX
  5
273
  8
Layer_0
  10
122.18707
  20
83.96875
  42
-0.078869494
  0
VERTEX
  5
274
  8
Layer_0
  10
122.23944
  20
84.026855
  42
-0.079114514
  0
VERTEX
  5
275
  8
Layer_0
  10
122.30713
  20
84.065979
  42
-0.07805116
  0
VERTEX
  5
276
  8
Layer_0
  10
122.38367
  20
84.082275
  42
-0.078690056
  0
VERTEX
  5
277
  8
Layer_0
  10
122.46143
  20
84.074036
  0
VERTEX
  5
278
  8
Layer_0
  10
122.65466
  20
84.022278
  0
VERTEX
  5
279
  8
Layer_0
  10
123.98248
  20
88.977539
  42
-0.078772115
  0
VERTEX
  5
27a
  8
Layer_0
  10
124.29675
  20
89.683472
  42
-0.078666747
  0
VERTEX
  5
27b
  8
Layer_0
  10
124.81378
  20
90.257751
  42
-0.078705621
  0
VERTEX
  5
27c
  8
Layer_0
  10
125.48303
  20
90.644104
  42
-0.078677786
  0
VERTEX
  5
27d
  8
Layer_0
  10
126.23895
  20
90.80481
  42
-0.078644868
  0
VERTEX
  5
27e
  8
Layer_0
  10
127.00751
  20
90.72406
  42
-0.078688498
  0
VERTEX
  5
27f
  8
Layer_0
  10
127.7135
  20
90.409729
  42
-0.078686574
  0
VERTEX
  5
280
  8
Layer_0
  10
128.28778
  20
89.892639
  42
-0.078650423
  0
VERTEX
  5
281
  8
Layer_0
  10
128.67419
  20
89.223389
  42
-0.07873991
  0
VERTEX
  5
282
  8
Layer_0
  10
128.83484
  20
88.467468
  42
-0.07875908
  0
SEQEND
  0
POLYLINE
  5
284
  8
Layer_0
  62
7
  70
1
  66
1
  10
0
  20
0
  30
0
  0
VERTEX
  5
284
  8
Layer_0
  10
144.00006
  20
129.5
  0
VERTEX
  5
285
  8
Layer_0
  10
156
  20
129.5
  42
-0.078611247
  0
VERTEX
  5
286
  8
Layer_0
  10
156.46362
  20
129.42664
  42
-0.078702399
  0
VERTEX
  5
287
  8
Layer_0
  10
156.88177
  20
129.2135
  42
-0.078676049
  0
VERTEX
  5
288
  8
Layer_0
  10
157.21356
  20
128.88165
  42
-0.078710992
  0
VERTEX
  5
289
  8
Layer_0
  10
157.42664
  20
128.4635
  42
-0.078641292
  0
VERTEX
  5
28a
  8
Layer_0
  10
157.50006
  20
128
  42
-0.07867136
  0
VERTEX
  5
28b
  8
Layer_0
  10
157.42664
  20
127.5365
  42
-0.078710992
  0
VERTEX
  5
28c
  8
Layer_0
  10
157.21356
  20
127.11835
  42
-0.078676049
  0
VERTEX
  5
28d
  8
Layer_0
  10
156.88177
  20
126.78644
  42
-0.078689154
  0
VERTEX
  5
28e
  8
Layer_0
  10
156.46356
  20
126.57343
  42
-0.078733862
  0
VERTEX
  5
28f
  8
Layer_0
  10
156
  20
126.5
  0
VERTEX
  5
290
  8
Layer_0
  10
144.00006
  20
126.5
  42
-0.078703786
  0
VERTEX
  5
291
  8
Layer_0
  10
143.5365
  20
126.57343
  42
-0.07874634
  0
VERTEX
  5
292
  8
Layer_0
  10
143.11835
  20
126.78644
  42
-0.078654544
  0
VERTEX
  5
293
  8
Layer_0
  10
142.7865
  20
127.11835
  42
-0.078710992
  0
VERTEX
  5
294
  8
Layer_0
  10
142.57343
  20
127.5365
  42
-0.07867136
  0
VERTEX
  5
295
  8
Layer_0
  10
142.5
  20
128
  42
-0.078641292
  0
VERTEX
  5
296
  8
Layer_0
  10
142.57343
  20
128.4635
  42
-0.078710992
  0
VERTEX
  5
297
  8
Layer_0
  10
142.7865
  20
128.88165
  42
-0.078733306
  0
VERTEX
  5
298
  8
Layer_0
  10
143.11835
  20
129.2135
  42
-0.078732497
  0
VERTEX
  5
299
  8
Layer_0
  10
143.5365
  20
129.42664
  42
-0.078611247
  0
SEQEND
  0
POLYLINE
  5
29b
  8
Layer_0
  62
7
  70
1
  66
1
  10
0
  20
0
  30
0
  0
VERTEX
  5
29b
  8
Layer_0
  10
161.40771
  20
82.595459
  42
-0.078636645
  0
VERTEX
  5
29c
  8
Layer_0
  10
161.46619
  20
82.773865
  42
-0.078688377
  0
VERTEX
  5
29d
  8
Layer_0
  10
161.57697
  20
82.925415
  42
-0.078616887
  0
VERTEX
  5
29e
  8
Layer_0
  10
161.72913
  20
83.035339
  42
-0.079027808
  0
VERTEX
  5
29f
  8
Layer_0
  10
161.90784
  20
83.092834
  42
-0.078600058
  0
VERTEX
  5
2a0
  8
Layer_0
  10
162.09558
  20
83.092346
  42
-0.079030936
  0
VERTEX
  5
2a1
  8
Layer_0
  10
162.27393
  20
83.033813
  42
-0.078793917
  0
VERTEX
  5
2a2
  8
Layer_0
  10
162.42548
  20
82.923096
  42
-0.078834108
  0
VERTEX
  5
2a3
  8
Layer_0
  10
162.53534
  20
82.770935
  42
-0.078399644
  0
VERTEX
  5
2a4
  8
Layer_0
  10
162.59296
  20
82.592224
  42
-0.078677375
  0
VERTEX
  5
2a5
  8
Layer_0
  10
162.59241
  20
82.404541
  42
-0.078613049
  0
VERTEX
  5
2a6
  8
Layer_0
  10
162.53387
  20
82.226135
  42
-0.078688377
  0
VERTEX
  5
2a7
  8
Layer_0
  10
162.42316
  20
82.074585
  42
-0.078616887
  0
VERTEX
  5
2a8
  8
Layer_0
  10
162.27094
  20
81.964661
  42
-0.078990606
  0
VERTEX
  5
2a9
  8
Layer_0
  10
162.09229
  20
81.907166
  42
-0.078562702
  0
VERTEX
  5
2aa
  8
Layer_0
  10
161.90454
  20
81.907593
  42
-0.078685353
  0
VERTEX
  5
2ab
  8
Layer_0
  10
161.7262
  20
81.966125
  42
-0.078688377
  0
VERTEX
  5
2ac
  8
Layer_0
  10
161.57458
  20
82.076904
  42
-0.07894291
  0
VERTEX
  5
2ad
  8
Layer_0
  10
161.46472
  20
82.229065
  42
-0.078677566
  0
VERTEX
  5
2ae
  8
Layer_0
  10
161.40717
  20
82.407776
  42
-0.07887904
  0
SEQEND
  0
POLYLINE
  5
2b0
  8
Layer_0
  62
7
  70
1
  66
1
  10
0
  20
0
  30
0
  0
VERTEX
  5
2b0
  8
Layer_0
  10
137.40771
  20
82.595459
  42
-0.078636645
  0
VERTEX
  5
2b1
  8
Layer_0
  10
137.46619
  20
82.773865
  42
-0.078688377
  0
VERTEX
  5
2b2
  8
Layer_0
  10
137.57697
  20
82.925415
  42
-0.078616887
  0
VERTEX
  5
2b3
  8
Layer_0
  10
137.72913
  20
83.035339
  42
-0.079027808
  0
VERTEX
  5
2b4
  8
Layer_0
  10
137.90784
  20
83.092834
  42
-0.078600058
  0
VERTEX
  5
2b5
  8
Layer_0
  10
138.09558
  20
83.092346
  42
-0.079030936
  0
VERTEX
  5
2b6
  8
Layer_0
  10
138.27393
  20
83.033813
  42
-0.078793917
  0
VERTEX
  5
2b7
  8
Layer_0
  10
138.42548
  20
82.923096
  42
-0.078834108
  0
VERTEX
  5
2b8
  8
Layer_0
  10
138.53534
  20
82.770935
  42
-0.078616529
  0
VERTEX
  5
2b9
  8
Layer_0
  10
138.59296
  20
82.592224
  42
-0.078917955
  0
VERTEX
  5
2ba
  8
Layer_0
  10
138.59241
  20
82.404541
  42
-0.078613049
  0
VERTEX
  5
2bb
  8
Layer_0
  10
138.53387
  20
82.226135
  42
-0.078688377
  0
VERTEX
  5
2bc
  8
Layer_0
  10
138.42316
  20
82.074585
  42
-0.078506819
  0
VERTEX
  5
2bd
  8
Layer_0
  10
138.271
  20
81.964661
  42
-0.078917922
  0
VERTEX
  5
2be
  8
Layer_0
  10
138.09222
  20
81.907166
  42
-0.078600349
  0
VERTEX
  5
2bf
  8
Layer_0
  10
137.90454
  20
81.907593
  42
-0.078685353
  0
VERTEX
  5
2c0
  8
Layer_0
  10
137.7262
  20
81.966125
  42
-0.078799331
  0
VERTEX
  5
2c1
  8
Layer_0
  10
137.57458
  20
82.076904
  42
-0.07894291
  0
VERTEX
  5
2c2
  8
Layer_0
  10
137.46472
  20
82.229065
  42
-0.078677566
  0
VERTEX
  5
2c3
  8
Layer_0
  10
137.40717
  20
82.407776
  42
-0.07887904
  0
SEQEND
  0
POLYLINE
  5
2c5
  8
Layer_2
  62
1
  70
1
  66
1
  10
0
  20
0
  30
0
  0
VERTEX
  5
2c5
  8
Layer_2
  10
123.89093
  20
73.600037
  0
VERTEX
  5
2c6
  8
Layer_2
  10
123.59131
  20
73.600037
  0
VERTEX
  5
2c7
  8
Layer_2
  10
123.64044
  20
73.787842
  0
VERTEX
  5
2c8
  8
Layer_2
  10
123.77264
  20
74.291138
  0
VERTEX
  5
2c9
  8
Layer_2
  10
123.85577
  20
74.606689
  0
VERTEX
  5
2ca
  8
Layer_2
  10
123.89441
  20
74.606689
  0
VERTEX
  5
2cb
  8
Layer_2
  10
123.93304
  20
74.606689
  0
VERTEX
  5
2cc
  8
Layer_2
  10
124.06134
  20
74.115845
  0
VERTEX
  5
2cd
  8
Layer_2
  10
124.19006
  20
73.612549
  0
VERTEX
  5
2ce
  8
Layer_2
  10
124.17631
  20
73.606474
  0
VERTEX
  5
2cf
  8
Layer_2
  10
124.12814
  20
73.602631
  0
VERTEX
  5
2d0
  8
Layer_2
  10
124.03614
  20
73.600618
  0
SEQEND
  0
POLYLINE
  5
2d2
  8
Layer_2
  62
1
  70
1
  66
1
  10
0
  20
0
  30
0
  0
VERTEX
  5
2d2
  8
Layer_2
  10
125.92236
  20
76.354553
  0
VERTEX
  5
2d3
  8
Layer_2
  10
126.06849
  20
76.355144
  0
VERTEX
  5
2d4
  8
Layer_2
  10
126.16109
  20
76.35717
  0
VERTEX
  5
2d5
  8
Layer_2
  10
126.20962
  20
76.361016
  0
VERTEX
  5
2d6
  8
Layer_2
  10
126.22357
  20
76.367065
  0
VERTEX
  5
2d7
  8
Layer_2
  10
126.09509
  20
76.870422
  0
VERTEX
  5
2d8
  8
Layer_2
  10
125.96686
  20
77.361206
  0
VERTEX
  5
2d9
  8
Layer_2
  10
125.92767
  20
77.364075
  0
VERTEX
  5
2da
  8
Layer_2
  10
125.88831
  20
77.367004
  0
VERTEX
  5
2db
  8
Layer_2
  10
125.75909
  20
76.87323
  0
VERTEX
  5
2dc
  8
Layer_2
  10
125.62531
  20
76.367065
  0
VERTEX
  5
2dd
  8
Layer_2
  10
125.63686
  20
76.360965
  0
VERTEX
  5
2de
  8
Layer_2
  10
125.68359
  20
76.357124
  0
VERTEX
  5
2df
  8
Layer_2
  10
125.77543
  20
76.355126
  0
SEQEND
  0
POLYLINE
  5
2e1
  8
Layer_2
  62
1
  70
1
  66
1
  10
0
  20
0
  30
0
  0
VERTEX
  5
2e1
  8
Layer_2
  10
130.49115
  20
76.444702
  0
VERTEX
  5
2e2
  8
Layer_2
  10
130.66528
  20
76.071594
  0
VERTEX
  5
2e3
  8
Layer_2
  10
130.83923
  20
75.703491
  0
VERTEX
  5
2e4
  8
Layer_2
  10
130.72668
  20
75.703491
  0
VERTEX
  5
2e5
  8
Layer_2
  10
130.6142
  20
75.703491
  0
VERTEX
  5
2e6
  8
Layer_2
  10
130.44934
  20
76.05658
  0
VERTEX
  5
2e7
  8
Layer_2
  10
130.28448
  20
76.409607
  0
VERTEX
  5
2e8
  8
Layer_2
  10
130.05963
  20
76.409607
  0
VERTEX
  5
2e9
  8
Layer_2
  10
129.83484
  20
76.409607
  0
VERTEX
  5
2ea
  8
Layer_2
  10
129.83221
  20
76.05658
  0
VERTEX
  5
2eb
  8
Layer_2
  10
129.82959
  20
75.703491
  0
VERTEX
  5
2ec
  8
Layer_2
  10
129.72955
  20
75.703491
  0
VERTEX
  5
2ed
  8
Layer_2
  10
129.62952
  20
75.703491
  0
VERTEX
  5
2ee
  8
Layer_2
  10
129.62952
  20
76.625061
  0
VERTEX
  5
2ef
  8
Layer_2
  10
129.62952
  20
77.546509
  0
VERTEX
  5
2f0
  8
Layer_2
  10
129.99762
  20
77.546387
  0
VERTEX
  5
2f1
  8
Layer_2
  10
130.23727
  20
77.544785
  0
VERTEX
  5
2f2
  8
Layer_2
  10
130.3824
  20
77.537514
  0
VERTEX
  5
2f3
  8
Layer_2
  10
130.47166
  20
77.520595
  0
VERTEX
  5
2f4
  8
Layer_2
  10
130.5437
  20
77.490051
  42
-0.12912083
  0
VERTEX
  5
2f5
  8
Layer_2
  10
130.70129
  20
77.353821
  0
VERTEX
  5
2f6
  8
Layer_2
  10
130.76942
  20
77.203766
  0
VERTEX
  5
2f7
  8
Layer_2
  10
130.78638
  20
76.985596
  42
-0.074763567
  0
VERTEX
  5
2f8
  8
Layer_2
  10
130.76794
  20
76.760681
  42
-0.20140348
  0
VERTEX
  5
2f9
  8
Layer_2
  10
130.55554
  20
76.483093
  0
SEQEND
  0
POLYLINE
  5
2fb
  8
Layer_2
  62
1
  70
1
  66
1
  10
0
  20
0
  30
0
  0
VERTEX
  5
2fb
  8
Layer_2
  10
128.99365
  20
72.929626
  42
-0.18665221
  0
VERTEX
  5
2fc
  8
Layer_2
  10
128.68939
  20
73.087524
  42
-0.10140374
  0
VERTEX
  5
2fd
  8
Layer_2
  10
128.59082
  20
73.291809
  0
VERTEX
  5
2fe
  8
Layer_2
  10
128.58179
  20
73.348085
  0
VERTEX
  5
2ff
  8
Layer_2
  10
128.5762
  20
73.465439
  0
VERTEX
  5
300
  8
Layer_2
  10
128.57431
  20
73.561857
  0
VERTEX
  5
301
  8
Layer_2
  10
128.57281
  20
73.691351
  0
VERTEX
  5
302
  8
Layer_2
  10
128.57155
  20
73.859854
  0
VERTEX
  5
303
  8
Layer_2
  10
128.57037
  20
74.073303
  0
VERTEX
  5
304
  8
Layer_2
  10
128.56683
  20
74.791992
  0
VERTEX
  5
305
  8
Layer_2
  10
128.67242
  20
74.791992
  0
VERTEX
  5
306
  8
Layer_2
  10
128.77814
  20
74.791992
  0
VERTEX
  5
307
  8
Layer_2
  10
128.77814
  20
74.086914
  0
VERTEX
  5
308
  8
Layer_2
  10
128.7782
  20
73.859494
  0
VERTEX
  5
309
  8
Layer_2
  10
128.77855
  20
73.686081
  0
VERTEX
  5
30a
  8
Layer_2
  10
128.7794
  20
73.558364
  0
VERTEX
  5
30b
  8
Layer_2
  10
128.78097
  20
73.468033
  0
VERTEX
  5
30c
  8
Layer_2
  10
128.78718
  20
73.36628
  0
VERTEX
  5
30d
  8
Layer_2
  10
128.79895
  20
73.314331
  42
0.12183026
  0
VERTEX
  5
30e
  8
Layer_2
  10
128.86713
  20
73.199524
  42
0.18492532
  0
VERTEX
  5
30f
  8
Layer_2
  10
129.13458
  20
73.101807
  0
VERTEX
  5
310
  8
Layer_2
  10
129.28691
  20
73.108107
  0
VERTEX
  5
311
  8
Layer_2
  10
129.40554
  20
73.145432
  0
VERTEX
  5
312
  8
Layer_2
  10
129.49189
  20
73.214502
  0
VERTEX
  5
313
  8
Layer_2
  10
129.54736
  20
73.31604
  0
VERTEX
  5
314
  8
Layer_2
  10
129.55632
  20
73.364154
  0
VERTEX
  5
315
  8
Layer_2
  10
129.56178
  20
73.475456
  0
VERTEX
  5
316
  8
Layer_2
  10
129.56359
  20
73.5697
  0
VERTEX
  5
317
  8
Layer_2
  10
129.56498
  20
73.697618
  0
VERTEX
  5
318
  8
Layer_2
  10
129.56611
  20
73.865167
  0
VERTEX
  5
319
  8
Layer_2
  10
129.56714
  20
74.078308
  0
VERTEX
  5
31a
  8
Layer_2
  10
129.57019
  20
74.791992
  0
VERTEX
  5
31b
  8
Layer_2
  10
129.67584
  20
74.791992
  0
VERTEX
  5
31c
  8
Layer_2
  10
129.78149
  20
74.791992
  0
VERTEX
  5
31d
  8
Layer_2
  10
129.77734
  20
74.078308
  0
VERTEX
  5
31e
  8
Layer_2
  10
129.77594
  20
73.848534
  0
VERTEX
  5
31f
  8
Layer_2
  10
129.77456
  20
73.673042
  0
VERTEX
  5
320
  8
Layer_2
  10
129.77295
  20
73.543373
  0
VERTEX
  5
321
  8
Layer_2
  10
129.77081
  20
73.451065
  0
VERTEX
  5
322
  8
Layer_2
  10
129.7639
  20
73.344696
  0
VERTEX
  5
323
  8
Layer_2
  10
129.75165
  20
73.286255
  42
-0.137201
  0
VERTEX
  5
324
  8
Layer_2
  10
129.62292
  20
73.058533
  0
VERTEX
  5
325
  8
Layer_2
  10
129.53771
  20
72.995173
  0
VERTEX
  5
326
  8
Layer_2
  10
129.43542
  20
72.951691
  0
VERTEX
  5
327
  8
Layer_2
  10
129.31249
  20
72.927023
  0
VERTEX
  5
328
  8
Layer_2
  10
129.16534
  20
72.920105
  42
-0.039569267
  0
SEQEND
  0
POLYLINE
  5
32a
  8
Layer_2
  62
1
  70
1
  66
1
  10
0
  20
0
  30
0
  0
VERTEX
  5
32a
  8
Layer_2
  10
123.21899
  20
72.952026
  0
VERTEX
  5
32b
  8
Layer_2
  10
123.45435
  20
73.87561
  0
VERTEX
  5
32c
  8
Layer_2
  10
123.68976
  20
74.788696
  0
VERTEX
  5
32d
  8
Layer_2
  10
123.89508
  20
74.791992
  0
VERTEX
  5
32e
  8
Layer_2
  10
124.04011
  20
74.790199
  0
VERTEX
  5
32f
  8
Layer_2
  10
124.1004
  20
74.785889
  0
VERTEX
  5
330
  8
Layer_2
  10
124.33582
  20
73.864929
  0
VERTEX
  5
331
  8
Layer_2
  10
124.57117
  20
72.944153
  0
VERTEX
  5
332
  8
Layer_2
  10
124.54123
  20
72.940811
  0
VERTEX
  5
333
  8
Layer_2
  10
124.46918
  20
72.94104
  0
VERTEX
  5
334
  8
Layer_2
  10
124.36719
  20
72.943909
  0
VERTEX
  5
335
  8
Layer_2
  10
124.31384
  20
73.139221
  0
VERTEX
  5
336
  8
Layer_2
  10
124.25012
  20
73.372131
  0
VERTEX
  5
337
  8
Layer_2
  10
124.23987
  20
73.409668
  0
VERTEX
  5
338
  8
Layer_2
  10
123.89496
  20
73.409668
  0
VERTEX
  5
339
  8
Layer_2
  10
123.55011
  20
73.409668
  0
VERTEX
  5
33a
  8
Layer_2
  10
123.5351
  20
73.357117
  0
VERTEX
  5
33b
  8
Layer_2
  10
123.47107
  20
73.124207
  0
VERTEX
  5
33c
  8
Layer_2
  10
123.42218
  20
72.943909
  0
VERTEX
  5
33d
  8
Layer_2
  10
123.32056
  20
72.94104
  0
VERTEX
  5
33e
  8
Layer_2
  10
123.23945
  20
72.941589
  0
SEQEND
  0
POLYLINE
  5
340
  8
Layer_2
  62
1
  70
1
  66
1
  10
0
  20
0
  30
0
  0
VERTEX
  5
340
  8
Layer_2
  10
126.78369
  20
74.371399
  0
VERTEX
  5
341
  8
Layer_2
  10
126.98798
  20
74.791992
  0
VERTEX
  5
342
  8
Layer_2
  10
127.09674
  20
74.791992
  0
VERTEX
  5
343
  8
Layer_2
  10
127.17355
  20
74.790512
  0
VERTEX
  5
344
  8
Layer_2
  10
127.20551
  20
74.786926
  0
VERTEX
  5
345
  8
Layer_2
  10
126.94006
  20
74.251099
  0
VERTEX
  5
346
  8
Layer_2
  10
126.67462
  20
73.720276
  0
VERTEX
  5
347
  8
Layer_2
  10
126.67462
  20
73.329651
  0
VERTEX
  5
348
  8
Layer_2
  10
126.67462
  20
72.938904
  0
VERTEX
  5
349
  8
Layer_2
  10
126.57452
  20
72.938904
  0
VERTEX
  5
34a
  8
Layer_2
  10
126.4743
  20
72.938904
  0
VERTEX
  5
34b
  8
Layer_2
  10
126.4743
  20
73.330688
  0
VERTEX
  5
34c
  8
Layer_2
  10
126.4743
  20
73.722351
  0
VERTEX
  5
34d
  8
Layer_2
  10
126.2052
  20
74.257202
  0
VERTEX
  5
34e
  8
Layer_2
  10
125.93604
  20
74.791992
  0
VERTEX
  5
34f
  8
Layer_2
  10
126.04803
  20
74.791992
  0
VERTEX
  5
350
  8
Layer_2
  10
126.1601
  20
74.791992
  0
VERTEX
  5
351
  8
Layer_2
  10
126.36481
  20
74.37146
  0
VERTEX
  5
352
  8
Layer_2
  10
126.57452
  20
73.950928
  0
SEQEND
  0
POLYLINE
  5
354
  8
Layer_2
  62
1
  70
1
  66
1
  10
0
  20
0
  30
0
  0
VERTEX
  5
354
  8
Layer_2
  10
131.37018
  20
73.812866
  0
VERTEX
  5
355
  8
Layer_2
  10
131.13422
  20
73.014038
  0
VERTEX
  5
356
  8
Layer_2
  10
131.00537
  20
73.011353
  0
VERTEX
  5
357
  8
Layer_2
  10
130.87653
  20
73.008606
  0
VERTEX
  5
358
  8
Layer_2
  10
130.6413
  20
73.81012
  0
VERTEX
  5
359
  8
Layer_2
  10
130.5746
  20
74.03671
  0
VERTEX
  5
35a
  8
Layer_2
  10
130.52093
  20
74.217706
  0
VERTEX
  5
35b
  8
Layer_2
  10
130.47878
  20
74.357847
  0
VERTEX
  5
35c
  8
Layer_2
  10
130.44664
  20
74.461876
  0
VERTEX
  5
35d
  8
Layer_2
  10
130.40643
  20
74.580562
  0
VERTEX
  5
35e
  8
Layer_2
  10
130.38831
  20
74.611694
  0
VERTEX
  5
35f
  8
Layer_2
  10
130.37853
  20
74.592334
  0
VERTEX
  5
360
  8
Layer_2
  10
130.37327
  20
74.490364
  0
VERTEX
  5
361
  8
Layer_2
  10
130.3719
  20
74.387828
  0
VERTEX
  5
362
  8
Layer_2
  10
130.37113
  20
74.239953
  0
VERTEX
  5
363
  8
Layer_2
  10
130.3708
  20
74.038509
  0
VERTEX
  5
364
  8
Layer_2
  10
130.37073
  20
73.775269
  0
VERTEX
  5
365
  8
Layer_2
  10
130.37073
  20
72.938904
  0
VERTEX
  5
366
  8
Layer_2
  10
130.27551
  20
72.938904
  0
VERTEX
  5
367
  8
Layer_2
  10
130.18042
  20
72.938904
  0
VERTEX
  5
368
  8
Layer_2
  10
130.18042
  20
73.865479
  0
VERTEX
  5
369
  8
Layer_2
  10
130.18042
  20
74.791992
  0
VERTEX
  5
36a
  8
Layer_2
  10
130.35901
  20
74.791992
  0
VERTEX
  5
36b
  8
Layer_2
  10
130.53766
  20
74.791992
  0
VERTEX
  5
36c
  8
Layer_2
  10
130.76105
  20
74.038269
  0
VERTEX
  5
36d
  8
Layer_2
  10
130.99445
  20
73.249451
  0
VERTEX
  5
36e
  8
Layer_2
  10
131.00439
  20
73.214355
  0
VERTEX
  5
36f
  8
Layer_2
  10
131.01654
  20
73.249451
  0
VERTEX
  5
370
  8
Layer_2
  10
131.25287
  20
74.038269
  0
VERTEX
  5
371
  8
Layer_2
  10
131.47705
  20
74.791992
  0
VERTEX
  5
372
  8
Layer_2
  10
131.65509
  20
74.791992
  0
VERTEX
  5
373
  8
Layer_2
  10
131.83313
  20
74.791992
  0
VERTEX
  5
374
  8
Layer_2
  10
131.83313
  20
73.865479
  0
VERTEX
  5
375
  8
Layer_2
  10
131.83313
  20
72.938904
  0
VERTEX
  5
376
  8
Layer_2
  10
131.73798
  20
72.938904
  0
VERTEX
  5
377
  8
Layer_2
  10
131.64282
  20
72.938904
  0
VERTEX
  5
378
  8
Layer_2
  10
131.64282
  20
73.775269
  0
VERTEX
  5
379
  8
Layer_2
  10
131.64276
  20
74.042032
  0
VERTEX
  5
37a
  8
Layer_2
  10
131.64243
  20
74.245129
  0
VERTEX
  5
37b
  8
Layer_2
  10
131.64166
  20
74.393219
  0
VERTEX
  5
37c
  8
Layer_2
  10
131.64025
  20
74.494965
  0
VERTEX
  5
37d
  8
Layer_2
  10
131.63476
  20
74.594059
  0
VERTEX
  5
37e
  8
Layer_2
  10
131.62445
  20
74.611694
  0
VERTEX
  5
37f
  8
Layer_2
  10
131.60644
  20
74.582716
  0
VERTEX
  5
380
  8
Layer_2
  10
131.56696
  20
74.46785
  0
VERTEX
  5
381
  8
Layer_2
  10
131.535
  20
74.365116
  0
VERTEX
  5
382
  8
Layer_2
  10
131.49266
  20
74.225199
  0
VERTEX
  5
383
  8
Layer_2
  10
131.43827
  20
74.042861
  0
SEQEND
  0
POLYLINE
  5
385
  8
Layer_2
  62
1
  70
1
  66
1
  10
0
  20
0
  30
0
  0
VERTEX
  5
385
  8
Layer_2
  10
131.9834
  20
75.679871
  0
VERTEX
  5
386
  8
Layer_2
  10
131.76652
  20
75.703712
  0
VERTEX
  5
387
  8
Layer_2
  10
131.59766
  20
75.726318
  42
-0.33339429
  0
VERTEX
  5
388
  8
Layer_2
  10
131.61371
  20
75.888062
  0
VERTEX
  5
389
  8
Layer_2
  10
131.66769
  20
75.887711
  0
VERTEX
  5
38a
  8
Layer_2
  10
131.789
  20
75.878479
  0
VERTEX
  5
38b
  8
Layer_2
  10
132.02978
  20
75.861366
  0
VERTEX
  5
38c
  8
Layer_2
  10
132.19209
  20
75.864761
  0
VERTEX
  5
38d
  8
Layer_2
  10
132.29932
  20
75.891251
  0
VERTEX
  5
38e
  8
Layer_2
  10
132.37482
  20
75.94342
  42
0.19955946
  0
VERTEX
  5
38f
  8
Layer_2
  10
132.46826
  20
76.20929
  42
0.087890351
  0
VERTEX
  5
390
  8
Layer_2
  10
132.45544
  20
76.348328
  0
VERTEX
  5
391
  8
Layer_2
  10
132.41609
  20
76.415856
  0
VERTEX
  5
392
  8
Layer_2
  10
132.34834
  20
76.472542
  0
VERTEX
  5
393
  8
Layer_2
  10
132.24992
  20
76.519809
  0
VERTEX
  5
394
  8
Layer_2
  10
132.11859
  20
76.559082
  0
VERTEX
  5
395
  8
Layer_2
  10
131.85708
  20
76.640798
  0
VERTEX
  5
396
  8
Layer_2
  10
131.68891
  20
76.74456
  0
VERTEX
  5
397
  8
Layer_2
  10
131.59917
  20
76.884475
  0
VERTEX
  5
398
  8
Layer_2
  10
131.57294
  20
77.074646
  0
VERTEX
  5
399
  8
Layer_2
  10
131.58887
  20
77.224122
  0
VERTEX
  5
39a
  8
Layer_2
  10
131.63546
  20
77.348793
  0
VERTEX
  5
39b
  8
Layer_2
  10
131.71184
  20
77.447108
  0
VERTEX
  5
39c
  8
Layer_2
  10
131.81714
  20
77.517517
  0
VERTEX
  5
39d
  8
Layer_2
  10
131.94189
  20
77.55857
  0
VERTEX
  5
39e
  8
Layer_2
  10
132.09563
  20
77.575905
  0
VERTEX
  5
39f
  8
Layer_2
  10
132.28756
  20
77.569814
  0
VERTEX
  5
3a0
  8
Layer_2
  10
132.52692
  20
77.540588
  0
VERTEX
  5
3a1
  8
Layer_2
  10
132.63477
  20
77.524048
  0
VERTEX
  5
3a2
  8
Layer_2
  10
132.62817
  20
77.442627
  0
VERTEX
  5
3a3
  8
Layer_2
  10
132.62054
  20
77.35968
  0
VERTEX
  5
3a4
  8
Layer_2
  10
132.4942
  20
77.372986
  42
0.027351735
  0
VERTEX
  5
3a5
  8
Layer_2
  10
132.19373
  20
77.389404
  42
0.096728084
  0
VERTEX
  5
3a6
  8
Layer_2
  10
131.95831
  20
77.36731
  42
0.22917935
  0
VERTEX
  5
3a7
  8
Layer_2
  10
131.80414
  20
77.215637
  0
VERTEX
  5
3a8
  8
Layer_2
  10
131.78687
  20
77.045456
  0
VERTEX
  5
3a9
  8
Layer_2
  10
131.83319
  20
76.907043
  0
VERTEX
  5
3aa
  8
Layer_2
  10
131.87572
  20
76.866222
  0
VERTEX
  5
3ab
  8
Layer_2
  10
131.94459
  20
76.827667
  0
VERTEX
  5
3ac
  8
Layer_2
  10
132.04414
  20
76.789387
  0
VERTEX
  5
3ad
  8
Layer_2
  10
132.17871
  20
76.74939
  0
VERTEX
  5
3ae
  8
Layer_2
  10
132.3602
  20
76.692968
  0
VERTEX
  5
3af
  8
Layer_2
  10
132.48917
  20
76.633835
  0
VERTEX
  5
3b0
  8
Layer_2
  10
132.57682
  20
76.565386
  0
VERTEX
  5
3b1
  8
Layer_2
  10
132.63434
  20
76.481018
  42
-0.22341565
  0
VERTEX
  5
3b2
  8
Layer_2
  10
132.62415
  20
75.936829
  42
-0.22558496
  0
VERTEX
  5
3b3
  8
Layer_2
  10
132.32813
  20
75.698425
  42
-0.083804629
  0
SEQEND
  0
POLYLINE
  5
3b5
  8
Layer_2
  62
1
  70
1
  66
1
  10
0
  20
0
  30
0
  0
VERTEX
  5
3b5
  8
Layer_2
  10
124.29443
  20
75.821167
  0
VERTEX
  5
3b6
  8
Layer_2
  10
124.27911
  20
75.77356
  0
VERTEX
  5
3b7
  8
Layer_2
  10
124.15015
  20
75.77356
  0
VERTEX
  5
3b8
  8
Layer_2
  10
124.02124
  20
75.77356
  0
VERTEX
  5
3b9
  8
Layer_2
  10
124.00281
  20
75.836182
  0
VERTEX
  5
3ba
  8
Layer_2
  10
123.76941
  20
76.632385
  0
VERTEX
  5
3bb
  8
Layer_2
  10
123.70205
  20
76.861978
  0
VERTEX
  5
3bc
  8
Layer_2
  10
123.65003
  20
77.038053
  0
VERTEX
  5
3bd
  8
Layer_2
  10
123.61106
  20
77.167672
  0
VERTEX
  5
3be
  8
Layer_2
  10
123.58286
  20
77.257896
  0
VERTEX
  5
3bf
  8
Layer_2
  10
123.5496
  20
77.348411
  0
VERTEX
  5
3c0
  8
Layer_2
  10
123.53198
  20
77.366089
  0
VERTEX
  5
3c1
  8
Layer_2
  10
123.50946
  20
77.36615
  0
VERTEX
  5
3c2
  8
Layer_2
  10
123.50946
  20
76.53479
  0
VERTEX
  5
3c3
  8
Layer_2
  10
123.50946
  20
75.703491
  0
VERTEX
  5
3c4
  8
Layer_2
  10
123.41431
  20
75.703491
  0
VERTEX
  5
3c5
  8
Layer_2
  10
123.31909
  20
75.703491
  0
VERTEX
  5
3c6
  8
Layer_2
  10
123.31909
  20
76.625
  0
VERTEX
  5
3c7
  8
Layer_2
  10
123.31909
  20
77.546509
  0
VERTEX
  5
3c8
  8
Layer_2
  10
123.50214
  20
77.546509
  0
VERTEX
  5
3c9
  8
Layer_2
  10
123.68506
  20
77.546509
  0
VERTEX
  5
3ca
  8
Layer_2
  10
123.91388
  20
76.772766
  0
VERTEX
  5
3cb
  8
Layer_2
  10
124.14972
  20
75.991333
  0
VERTEX
  5
3cc
  8
Layer_2
  10
124.15549
  20
76.004488
  0
VERTEX
  5
3cd
  8
Layer_2
  10
124.16933
  20
76.04512
  0
VERTEX
  5
3ce
  8
Layer_2
  10
124.19031
  20
76.110312
  0
VERTEX
  5
3cf
  8
Layer_2
  10
124.21754
  20
76.197144
  0
VERTEX
  5
3d0
  8
Layer_2
  10
124.28712
  20
76.424057
  0
VERTEX
  5
3d1
  8
Layer_2
  10
124.37079
  20
76.702515
  0
VERTEX
  5
3d2
  8
Layer_2
  10
124.60352
  20
77.483887
  0
VERTEX
  5
3d3
  8
Layer_2
  10
124.62219
  20
77.546509
  0
VERTEX
  5
3d4
  8
Layer_2
  10
124.80206
  20
77.546509
  0
VERTEX
  5
3d5
  8
Layer_2
  10
124.98187
  20
77.546509
  0
VERTEX
  5
3d6
  8
Layer_2
  10
124.98187
  20
76.625
  0
VERTEX
  5
3d7
  8
Layer_2
  10
124.98187
  20
75.703491
  0
VERTEX
  5
3d8
  8
Layer_2
  10
124.88672
  20
75.703491
  0
VERTEX
  5
3d9
  8
Layer_2
  10
124.79156
  20
75.703491
  0
VERTEX
  5
3da
  8
Layer_2
  10
124.79156
  20
76.534851
  0
VERTEX
  5
3db
  8
Layer_2
  10
124.79151
  20
76.804025
  0
VERTEX
  5
3dc
  8
Layer_2
  10
124.7912
  20
77.007782
  0
VERTEX
  5
3dd
  8
Layer_2
  10
124.79042
  20
77.155222
  0
VERTEX
  5
3de
  8
Layer_2
  10
124.78898
  20
77.255447
  0
VERTEX
  5
3df
  8
Layer_2
  10
124.78325
  20
77.350655
  0
VERTEX
  5
3e0
  8
Layer_2
  10
124.77234
  20
77.366211
  0
VERTEX
  5
3e1
  8
Layer_2
  10
124.75795
  20
77.362987
  0
VERTEX
  5
3e2
  8
Layer_2
  10
124.73042
  20
77.291252
  0
VERTEX
  5
3e3
  8
Layer_2
  10
124.70236
  20
77.200602
  0
VERTEX
  5
3e4
  8
Layer_2
  10
124.65977
  20
77.057916
  0
VERTEX
  5
3e5
  8
Layer_2
  10
124.59892
  20
76.851555
  0
VERTEX
  5
3e6
  8
Layer_2
  10
124.51605
  20
76.569885
  0
SEQEND
  0
POLYLINE
  5
3e8
  8
Layer_2
  62
1
  70
1
  66
1
  10
0
  20
0
  30
0
  0
VERTEX
  5
3e8
  8
Layer_2
  10
127.07532
  20
76.695251
  0
VERTEX
  5
3e9
  8
Layer_2
  10
127.07532
  20
77.12085
  0
VERTEX
  5
3ea
  8
Layer_2
  10
127.07532
  20
77.546509
  0
VERTEX
  5
3eb
  8
Layer_2
  10
126.97516
  20
77.546509
  0
VERTEX
  5
3ec
  8
Layer_2
  10
126.87494
  20
77.546509
  0
VERTEX
  5
3ed
  8
Layer_2
  10
126.87494
  20
76.625
  0
VERTEX
  5
3ee
  8
Layer_2
  10
126.87494
  20
75.703491
  0
VERTEX
  5
3ef
  8
Layer_2
  10
126.97516
  20
75.703491
  0
VERTEX
  5
3f0
  8
Layer_2
  10
127.07532
  20
75.703491
  0
VERTEX
  5
3f1
  8
Layer_2
  10
127.07532
  20
76.108276
  0
VERTEX
  5
3f2
  8
Layer_2
  10
127.07532
  20
76.513062
  0
VERTEX
  5
3f3
  8
Layer_2
  10
127.15796
  20
76.519775
  42
-0.039427918
  0
VERTEX
  5
3f4
  8
Layer_2
  10
127.28522
  20
76.523193
  0
VERTEX
  5
3f5
  8
Layer_2
  10
127.3299
  20
76.519897
  0
VERTEX
  5
3f6
  8
Layer_2
  10
127.56458
  20
76.111694
  0
VERTEX
  5
3f7
  8
Layer_2
  10
127.79926
  20
75.703491
  0
VERTEX
  5
3f8
  8
Layer_2
  10
127.91309
  20
75.703491
  0
VERTEX
  5
3f9
  8
Layer_2
  10
127.99343
  20
75.704811
  0
VERTEX
  5
3fa
  8
Layer_2
  10
128.02686
  20
75.708008
  0
VERTEX
  5
3fb
  8
Layer_2
  10
127.77051
  20
76.165344
  0
VERTEX
  5
3fc
  8
Layer_2
  10
127.5097
  20
76.629883
  0
VERTEX
  5
3fd
  8
Layer_2
  10
127.52735
  20
76.669855
  0
VERTEX
  5
3fe
  8
Layer_2
  10
127.57874
  20
76.770081
  0
VERTEX
  5
3ff
  8
Layer_2
  10
127.65594
  20
76.915442
  0
VERTEX
  5
400
  8
Layer_2
  10
127.75104
  20
77.09082
  0
VERTEX
  5
401
  8
Layer_2
  10
127.99683
  20
77.543579
  0
VERTEX
  5
402
  8
Layer_2
  10
127.88092
  20
77.544312
  0
VERTEX
  5
403
  8
Layer_2
  10
127.76495
  20
77.541504
  0
VERTEX
  5
404
  8
Layer_2
  10
127.32465
  20
76.711304
  0
VERTEX
  5
405
  8
Layer_2
  10
127.19806
  20
76.701538
  0
SEQEND
  0
POLYLINE
  5
407
  8
Layer_2
  62
1
  70
1
  66
1
  10
0
  20
0
  30
0
  0
VERTEX
  5
407
  8
Layer_2
  10
130.29932
  20
76.594543
  42
0.20249785
  0
VERTEX
  5
408
  8
Layer_2
  10
130.50568
  20
76.703247
  42
0.15986059
  0
VERTEX
  5
409
  8
Layer_2
  10
130.57532
  20
76.995605
  0
VERTEX
  5
40a
  8
Layer_2
  10
130.55496
  20
77.173737
  0
VERTEX
  5
40b
  8
Layer_2
  10
130.48004
  20
77.288147
  0
VERTEX
  5
40c
  8
Layer_2
  10
130.42541
  20
77.33238
  0
VERTEX
  5
40d
  8
Layer_2
  10
130.35771
  20
77.357239
  0
VERTEX
  5
40e
  8
Layer_2
  10
130.24998
  20
77.368227
  0
VERTEX
  5
40f
  8
Layer_2
  10
130.07526
  20
77.37085
  0
VERTEX
  5
410
  8
Layer_2
  10
129.83484
  20
77.371216
  0
VERTEX
  5
411
  8
Layer_2
  10
129.83221
  20
76.990662
  0
VERTEX
  5
412
  8
Layer_2
  10
129.83156
  20
76.841886
  0
VERTEX
  5
413
  8
Layer_2
  10
129.83176
  20
76.718178
  0
VERTEX
  5
414
  8
Layer_2
  10
129.83273
  20
76.63243
  0
VERTEX
  5
415
  8
Layer_2
  10
129.83441
  20
76.597534
  0
VERTEX
  5
416
  8
Layer_2
  10
130.03118
  20
76.584846
  0
SEQEND
  0
POLYLINE
  5
418
  8
Layer_2
  62
1
  70
1
  66
1
  10
0
  20
0
  30
0
  0
VERTEX
  5
418
  8
Layer_2
  10
126.37726
  20
75.828003
  0
VERTEX
  5
419
  8
Layer_2
  10
126.41016
  20
75.705383
  0
VERTEX
  5
41a
  8
Layer_2
  10
126.51355
  20
75.705322
  0
VERTEX
  5
41b
  8
Layer_2
  10
126.59953
  20
75.708099
  0
VERTEX
  5
41c
  8
Layer_2
  10
126.61182
  20
75.722778
  0
VERTEX
  5
41d
  8
Layer_2
  10
126.14471
  20
77.543213
  0
VERTEX
  5
41e
  8
Layer_2
  10
126.08463
  20
77.546829
  0
VERTEX
  5
41f
  8
Layer_2
  10
125.94012
  20
77.54834
  0
VERTEX
  5
420
  8
Layer_2
  10
125.82943
  20
77.547843
  0
VERTEX
  5
421
  8
Layer_2
  10
125.76709
  20
77.545555
  0
VERTEX
  5
422
  8
Layer_2
  10
125.73877
  20
77.54028
  0
VERTEX
  5
423
  8
Layer_2
  10
125.7301
  20
77.530823
  0
VERTEX
  5
424
  8
Layer_2
  10
125.49054
  20
76.607315
  0
VERTEX
  5
425
  8
Layer_2
  10
125.26324
  20
75.716492
  0
VERTEX
  5
426
  8
Layer_2
  10
125.28662
  20
75.707993
  0
VERTEX
  5
427
  8
Layer_2
  10
125.3653
  20
75.707458
  0
VERTEX
  5
428
  8
Layer_2
  10
125.46729
  20
75.710327
  0
VERTEX
  5
429
  8
Layer_2
  10
125.52069
  20
75.90564
  0
VERTEX
  5
42a
  8
Layer_2
  10
125.58435
  20
76.13855
  0
VERTEX
  5
42b
  8
Layer_2
  10
125.5946
  20
76.176086
  0
VERTEX
  5
42c
  8
Layer_2
  10
125.9386
  20
76.176086
  0
VERTEX
  5
42d
  8
Layer_2
  10
126.28247
  20
76.176086
  0
VERTEX
  5
42e
  8
Layer_2
  10
126.31342
  20
76.063416
  0
SEQEND
  0
POLYLINE
  5
430
  8
Layer_2
  62
1
  70
1
  66
1
  10
0
  20
0
  30
0
  0
VERTEX
  5
430
  8
Layer_2
  10
131.10828
  20
76.992004
  42
-0.033814928
  0
VERTEX
  5
431
  8
Layer_2
  10
131.10193
  20
77.297485
  0
VERTEX
  5
432
  8
Layer_2
  10
131.10193
  20
77.556519
  0
VERTEX
  5
433
  8
Layer_2
  10
131.19867
  20
77.556519
  0
VERTEX
  5
434
  8
Layer_2
  10
131.29541
  20
77.556519
  0
VERTEX
  5
435
  8
Layer_2
  10
131.28882
  20
77.368713
  0
VERTEX
  5
436
  8
Layer_2
  10
131.28229
  20
77.063232
  0
VERTEX
  5
437
  8
Layer_2
  10
131.28229
  20
76.945496
  0
VERTEX
  5
438
  8
Layer_2
  10
131.19849
  20
76.945496
  0
VERTEX
  5
439
  8
Layer_2
  10
131.11475
  20
76.945496
  0
SEQEND
  0
POLYLINE
  5
43b
  8
Layer_2
  62
1
  70
1
  66
1
  10
0
  20
0
  30
0
  0
VERTEX
  5
43b
  8
Layer_2
  10
133.21368
  20
77.999756
  0
VERTEX
  5
43c
  8
Layer_2
  10
133.20805
  20
77.963737
  0
VERTEX
  5
43d
  8
Layer_2
  10
133.20563
  20
77.859558
  0
VERTEX
  5
43e
  8
Layer_2
  10
133.20544
  20
77.706787
  0
VERTEX
  5
43f
  8
Layer_2
  10
133.16547
  20
77.706787
  0
VERTEX
  5
440
  8
Layer_2
  10
133.12537
  20
77.706787
  0
VERTEX
  5
441
  8
Layer_2
  10
133.12524
  20
77.927612
  0
VERTEX
  5
442
  8
Layer_2
  10
133.12524
  20
78.148499
  0
VERTEX
  5
443
  8
Layer_2
  10
133.18268
  20
78.145508
  0
VERTEX
  5
444
  8
Layer_2
  10
133.24017
  20
78.142517
  0
VERTEX
  5
445
  8
Layer_2
  10
133.28497
  20
77.999695
  0
VERTEX
  5
446
  8
Layer_2
  10
133.31824
  20
77.898964
  0
VERTEX
  5
447
  8
Layer_2
  10
133.33545
  20
77.857056
  0
VERTEX
  5
448
  8
Layer_2
  10
133.35353
  20
77.899689
  0
VERTEX
  5
449
  8
Layer_2
  10
133.3891
  20
78.002197
  0
VERTEX
  5
44a
  8
Layer_2
  10
133.43719
  20
78.147522
  0
VERTEX
  5
44b
  8
Layer_2
  10
133.49152
  20
78.147522
  0
VERTEX
  5
44c
  8
Layer_2
  10
133.54596
  20
78.147522
  0
VERTEX
  5
44d
  8
Layer_2
  10
133.54596
  20
77.927124
  0
VERTEX
  5
44e
  8
Layer_2
  10
133.54596
  20
77.706787
  0
VERTEX
  5
44f
  8
Layer_2
  10
133.50586
  20
77.706787
  0
VERTEX
  5
450
  8
Layer_2
  10
133.46576
  20
77.706787
  0
VERTEX
  5
451
  8
Layer_2
  10
133.46472
  20
77.859558
  0
VERTEX
  5
452
  8
Layer_2
  10
133.46368
  20
78.012268
  0
VERTEX
  5
453
  8
Layer_2
  10
133.41766
  20
77.869507
  0
VERTEX
  5
454
  8
Layer_2
  10
133.37158
  20
77.726807
  0
VERTEX
  5
455
  8
Layer_2
  10
133.33612
  20
77.726868
  0
VERTEX
  5
456
  8
Layer_2
  10
133.30066
  20
77.726929
  0
VERTEX
  5
457
  8
Layer_2
  10
133.26117
  20
77.857117
  0
SEQEND
  0
POLYLINE
  5
459
  8
Layer_2
  62
1
  70
1
  66
1
  10
0
  20
0
  30
0
  0
VERTEX
  5
459
  8
Layer_2
  10
115.76959
  20
71.461426
  42
-0.22909979
  0
VERTEX
  5
45a
  8
Layer_2
  10
115.66754
  20
71.601624
  42
-0.089856907
  0
VERTEX
  5
45b
  8
Layer_2
  10
115.66284
  20
71.800903
  0
VERTEX
  5
45c
  8
Layer_2
  10
115.69391
  20
72.315247
  0
VERTEX
  5
45d
  8
Layer_2
  10
115.70178
  20
72.456888
  0
VERTEX
  5
45e
  8
Layer_2
  10
115.70827
  20
72.568571
  0
VERTEX
  5
45f
  8
Layer_2
  10
115.7137
  20
72.654284
  0
VERTEX
  5
460
  8
Layer_2
  10
115.71839
  20
72.718018
  0
VERTEX
  5
461
  8
Layer_2
  10
115.72688
  20
72.795504
  0
VERTEX
  5
462
  8
Layer_2
  10
115.73633
  20
72.832947
  42
0.27787381
  0
VERTEX
  5
463
  8
Layer_2
  10
115.69763
  20
72.945007
  0
VERTEX
  5
464
  8
Layer_2
  10
115.69762
  20
72.973587
  0
VERTEX
  5
465
  8
Layer_2
  10
115.75684
  20
72.993103
  0
VERTEX
  5
466
  8
Layer_2
  10
115.80133
  20
73.000732
  0
VERTEX
  5
467
  8
Layer_2
  10
115.80396
  20
74
  0
VERTEX
  5
468
  8
Layer_2
  10
115.80463
  20
74.298602
  0
VERTEX
  5
469
  8
Layer_2
  10
115.80484
  20
74.532481
  0
VERTEX
  5
46a
  8
Layer_2
  10
115.80449
  20
74.709739
  0
VERTEX
  5
46b
  8
Layer_2
  10
115.80347
  20
74.838478
  0
VERTEX
  5
46c
  8
Layer_2
  10
115.799
  20
74.982804
  0
VERTEX
  5
46d
  8
Layer_2
  10
115.79059
  20
75.030273
  42
-0.15595736
  0
VERTEX
  5
46e
  8
Layer_2
  10
115.78571
  20
75.139709
  0
VERTEX
  5
46f
  8
Layer_2
  10
115.80613
  20
75.250542
  0
VERTEX
  5
470
  8
Layer_2
  10
115.84601
  20
75.264282
  0
VERTEX
  5
471
  8
Layer_2
  10
115.88519
  20
75.264282
  0
VERTEX
  5
472
  8
Layer_2
  10
115.89789
  20
75.159485
  42
-0.12356631
  0
VERTEX
  5
473
  8
Layer_2
  10
115.89941
  20
75.02594
  0
VERTEX
  5
474
  8
Layer_2
  10
115.89669
  20
75.004657
  0
VERTEX
  5
475
  8
Layer_2
  10
115.89436
  20
74.955106
  0
VERTEX
  5
476
  8
Layer_2
  10
115.89243
  20
74.87607
  0
VERTEX
  5
477
  8
Layer_2
  10
115.89087
  20
74.766335
  0
VERTEX
  5
478
  8
Layer_2
  10
115.88968
  20
74.624684
  0
VERTEX
  5
479
  8
Layer_2
  10
115.88884
  20
74.449904
  0
VERTEX
  5
47a
  8
Layer_2
  10
115.88835
  20
74.240779
  0
VERTEX
  5
47b
  8
Layer_2
  10
115.88818
  20
73.996094
  0
VERTEX
  5
47c
  8
Layer_2
  10
115.88818
  20
72.994995
  0
VERTEX
  5
47d
  8
Layer_2
  10
115.92657
  20
72.994934
  0
VERTEX
  5
47e
  8
Layer_2
  10
116.02618
  20
72.97464
  0
VERTEX
  5
47f
  8
Layer_2
  10
116.03516
  20
72.932556
  42
0.26489015
  0
VERTEX
  5
480
  8
Layer_2
  10
116
  20
72.798157
  0
VERTEX
  5
481
  8
Layer_2
  10
116.0265
  20
72.195953
  0
VERTEX
  5
482
  8
Layer_2
  10
116.03619
  20
71.622864
  42
-0.20518398
  0
VERTEX
  5
483
  8
Layer_2
  10
115.94403
  20
71.471619
  42
-0.23835565
  0
SEQEND
  0
POLYLINE
  5
485
  8
Layer_2
  62
1
  70
1
  66
1
  10
0
  20
0
  30
0
  0
VERTEX
  5
485
  8
Layer_2
  10
117.90527
  20
71.581787
  42
-0.1432074
  0
VERTEX
  5
486
  8
Layer_2
  10
117.79858
  20
71.806702
  42
-0.31341453
  0
VERTEX
  5
487
  8
Layer_2
  10
118.00012
  20
72.233521
  0
VERTEX
  5
488
  8
Layer_2
  10
118.04504
  20
72.259827
  0
VERTEX
  5
489
  8
Layer_2
  10
118.04504
  20
73.174377
  0
VERTEX
  5
48a
  8
Layer_2
  10
118.04504
  20
74.088928
  0
VERTEX
  5
48b
  8
Layer_2
  10
117.98022
  20
74.15271
  42
-0.21499074
  0
VERTEX
  5
48c
  8
Layer_2
  10
117.87366
  20
74.421021
  42
-0.10538487
  0
VERTEX
  5
48d
  8
Layer_2
  10
117.90564
  20
74.556763
  42
-0.24710169
  0
VERTEX
  5
48e
  8
Layer_2
  10
118.15997
  20
74.741455
  0
VERTEX
  5
48f
  8
Layer_2
  10
118.25549
  20
74.742889
  0
VERTEX
  5
490
  8
Layer_2
  10
118.31763
  20
74.729309
  0
VERTEX
  5
491
  8
Layer_2
  10
118.24966
  20
74.651833
  0
VERTEX
  5
492
  8
Layer_2
  10
118.16229
  20
74.579895
  0
VERTEX
  5
493
  8
Layer_2
  10
118.13766
  20
74.562218
  0
VERTEX
  5
494
  8
Layer_2
  10
118.09326
  20
74.520325
  0
VERTEX
  5
495
  8
Layer_2
  10
118.03485
  20
74.461243
  0
VERTEX
  5
496
  8
Layer_2
  10
118.03497
  20
74.395142
  0
VERTEX
  5
497
  8
Layer_2
  10
118.0351
  20
74.328979
  0
VERTEX
  5
498
  8
Layer_2
  10
118.09045
  20
74.280457
  42
0.18195341
  0
VERTEX
  5
499
  8
Layer_2
  10
118.21594
  20
74.231873
  0
VERTEX
  5
49a
  8
Layer_2
  10
118.28607
  20
74.231873
  0
VERTEX
  5
49b
  8
Layer_2
  10
118.33423
  20
74.280762
  42
0.18723771
  0
VERTEX
  5
49c
  8
Layer_2
  10
118.38293
  20
74.344666
  0
VERTEX
  5
49d
  8
Layer_2
  10
118.461
  20
74.422508
  0
VERTEX
  5
49e
  8
Layer_2
  10
118.54767
  20
74.481262
  0
VERTEX
  5
49f
  8
Layer_2
  10
118.55367
  20
74.456787
  0
VERTEX
  5
4a0
  8
Layer_2
  10
118.55615
  20
74.405396
  42
-0.19891237
  0
VERTEX
  5
4a1
  8
Layer_2
  10
118.45227
  20
74.156982
  0
VERTEX
  5
4a2
  8
Layer_2
  10
118.39264
  20
74.097351
  0
VERTEX
  5
4a3
  8
Layer_2
  10
118.39264
  20
73.178711
  0
VERTEX
  5
4a4
  8
Layer_2
  10
118.39264
  20
72.260071
  0
VERTEX
  5
4a5
  8
Layer_2
  10
118.4491
  20
72.222595
  42
-0.13768494
  0
VERTEX
  5
4a6
  8
Layer_2
  10
118.60443
  20
72.038513
  42
-0.1099665
  0
VERTEX
  5
4a7
  8
Layer_2
  10
118.63281
  20
71.870544
  42
-0.11103604
  0
VERTEX
  5
4a8
  8
Layer_2
  10
118.60077
  20
71.695557
  0
VERTEX
  5
4a9
  8
Layer_2
  10
118.53207
  20
71.588013
  0
VERTEX
  5
4aa
  8
Layer_2
  10
118.46808
  20
71.543457
  0
VERTEX
  5
4ab
  8
Layer_2
  10
118.44373
  20
71.543457
  0
VERTEX
  5
4ac
  8
Layer_2
  10
118.44373
  20
71.674622
  0
VERTEX
  5
4ad
  8
Layer_2
  10
118.44373
  20
71.805664
  0
VERTEX
  5
4ae
  8
Layer_2
  10
118.33398
  20
71.89093
  0
VERTEX
  5
4af
  8
Layer_2
  10
118.25339
  20
71.951164
  0
VERTEX
  5
4b0
  8
Layer_2
  10
118.21362
  20
71.976196
  0
VERTEX
  5
4b1
  8
Layer_2
  10
118.17397
  20
71.950905
  0
VERTEX
  5
4b2
  8
Layer_2
  10
118.09357
  20
71.890137
  0
VERTEX
  5
4b3
  8
Layer_2
  10
117.98425
  20
71.804138
  0
VERTEX
  5
4b4
  8
Layer_2
  10
117.98401
  20
71.673767
  0
VERTEX
  5
4b5
  8
Layer_2
  10
117.98079
  20
71.561462
  0
VERTEX
  5
4b6
  8
Layer_2
  10
117.9621
  20
71.543457
  42
-0.20951216
  0
SEQEND
  0
POLYLINE
  5
4b8
  8
Layer_2
  62
1
  70
1
  66
1
  10
0
  20
0
  30
0
  0
VERTEX
  5
4b8
  8
Layer_2
  10
116.2951
  20
73.821472
  0
VERTEX
  5
4b9
  8
Layer_2
  10
115.97107
  20
74.104065
  0
VERTEX
  5
4ba
  8
Layer_2
  10
115.97052
  20
74.2771
  0
VERTEX
  5
4bb
  8
Layer_2
  10
115.96997
  20
74.450073
  0
VERTEX
  5
4bc
  8
Layer_2
  10
115.99298
  20
74.429321
  0
VERTEX
  5
4bd
  8
Layer_2
  10
116.21983
  20
74.225642
  0
VERTEX
  5
4be
  8
Layer_2
  10
116.4313
  20
74.037894
  0
VERTEX
  5
4bf
  8
Layer_2
  10
116.62424
  20
73.868754
  0
VERTEX
  5
4c0
  8
Layer_2
  10
116.79554
  20
73.720894
  0
VERTEX
  5
4c1
  8
Layer_2
  10
116.94207
  20
73.59699
  0
VERTEX
  5
4c2
  8
Layer_2
  10
117.06069
  20
73.499715
  0
VERTEX
  5
4c3
  8
Layer_2
  10
117.14828
  20
73.431744
  0
VERTEX
  5
4c4
  8
Layer_2
  10
117.20172
  20
73.395752
  42
0.10352889
  0
VERTEX
  5
4c5
  8
Layer_2
  10
117.30908
  20
73.372925
  42
-0.17800952
  0
VERTEX
  5
4c6
  8
Layer_2
  10
117.50861
  20
73.28656
  42
-0.19507783
  0
VERTEX
  5
4c7
  8
Layer_2
  10
117.58936
  20
73.102356
  0
VERTEX
  5
4c8
  8
Layer_2
  10
117.58625
  20
73.048874
  0
VERTEX
  5
4c9
  8
Layer_2
  10
117.56195
  20
73.037781
  0
VERTEX
  5
4ca
  8
Layer_2
  10
117.52533
  20
73.047752
  0
VERTEX
  5
4cb
  8
Layer_2
  10
117.46399
  20
73.096497
  0
VERTEX
  5
4cc
  8
Layer_2
  10
117.41147
  20
73.140297
  0
VERTEX
  5
4cd
  8
Layer_2
  10
117.38312
  20
73.158508
  0
VERTEX
  5
4ce
  8
Layer_2
  10
117.33537
  20
73.126877
  0
VERTEX
  5
4cf
  8
Layer_2
  10
117.29242
  20
73.069885
  0
VERTEX
  5
4d0
  8
Layer_2
  10
117.28315
  20
73.001366
  0
VERTEX
  5
4d1
  8
Layer_2
  10
117.34607
  20
72.92218
  0
VERTEX
  5
4d2
  8
Layer_2
  10
117.40117
  20
72.861961
  0
VERTEX
  5
4d3
  8
Layer_2
  10
117.39209
  20
72.842346
  42
-0.10294978
  0
VERTEX
  5
4d4
  8
Layer_2
  10
117.30646
  20
72.825256
  42
-0.13973173
  0
VERTEX
  5
4d5
  8
Layer_2
  10
117.1991
  20
72.842102
  0
VERTEX
  5
4d6
  8
Layer_2
  10
117.13804
  20
72.885828
  0
VERTEX
  5
4d7
  8
Layer_2
  10
117.08997
  20
72.947327
  0
VERTEX
  5
4d8
  8
Layer_2
  10
117.05576
  20
73.025076
  0
VERTEX
  5
4d9
  8
Layer_2
  10
117.03632
  20
73.117554
  0
VERTEX
  5
4da
  8
Layer_2
  10
117.03015
  20
73.169067
  0
VERTEX
  5
4db
  8
Layer_2
  10
116.82465
  20
73.353943
  0
SEQEND
  0
POLYLINE
  5
4dd
  8
Layer_2
  62
1
  70
1
  66
1
  10
0
  20
0
  30
0
  0
VERTEX
  5
4dd
  8
Layer_2
  10
116.63354
  20
73.002502
  0
VERTEX
  5
4de
  8
Layer_2
  10
116.56833
  20
73.06761
  0
VERTEX
  5
4df
  8
Layer_2
  10
116.53049
  20
73.112793
  0
VERTEX
  5
4e0
  8
Layer_2
  10
116.51643
  20
73.143282
  0
VERTEX
  5
4e1
  8
Layer_2
  10
116.52252
  20
73.164307
  42
-0.14129288
  0
VERTEX
  5
4e2
  8
Layer_2
  10
116.60193
  20
73.200256
  42
0.078037157
  0
VERTEX
  5
4e3
  8
Layer_2
  10
116.71887
  20
73.257996
  0
VERTEX
  5
4e4
  8
Layer_2
  10
116.76752
  20
73.293396
  0
VERTEX
  5
4e5
  8
Layer_2
  10
116.83643
  20
73.232117
  0
VERTEX
  5
4e6
  8
Layer_2
  10
116.9303
  20
73.143982
  0
VERTEX
  5
4e7
  8
Layer_2
  10
116.95532
  20
73.117188
  0
VERTEX
  5
4e8
  8
Layer_2
  10
116.88843
  20
73.053528
  42
0.08343341
  0
VERTEX
  5
4e9
  8
Layer_2
  10
116.80457
  20
72.95697
  42
-0.2806333
  0
VERTEX
  5
4ea
  8
Layer_2
  10
116.74268
  20
72.903015
  0
SEQEND
  0
POLYLINE
  5
4ec
  8
Layer_2
  62
1
  70
1
  66
1
  10
0
  20
0
  30
0
  0
VERTEX
  5
4ec
  8
Layer_2
  10
117.28888
  20
73.463318
  42
-0.1429273
  0
VERTEX
  5
4ed
  8
Layer_2
  10
117.17511
  20
73.517151
  0
VERTEX
  5
4ee
  8
Layer_2
  10
117.1178
  20
73.560723
  0
VERTEX
  5
4ef
  8
Layer_2
  10
117.09612
  20
73.588509
  0
VERTEX
  5
4f0
  8
Layer_2
  10
117.10718
  20
73.615298
  0
VERTEX
  5
4f1
  8
Layer_2
  10
117.14813
  20
73.655884
  42
-0.02915295
  0
VERTEX
  5
4f2
  8
Layer_2
  10
117.54742
  20
73.983582
  0
VERTEX
  5
4f3
  8
Layer_2
  10
117.77594
  20
74.162109
  0
VERTEX
  5
4f4
  8
Layer_2
  10
117.85956
  20
74.231628
  0
VERTEX
  5
4f5
  8
Layer_2
  10
117.88013
  20
74.198547
  42
0.061418302
  0
VERTEX
  5
4f6
  8
Layer_2
  10
117.94073
  20
74.126465
  0
VERTEX
  5
4f7
  8
Layer_2
  10
117.98077
  20
74.087524
  0
VERTEX
  5
4f8
  8
Layer_2
  10
117.71857
  20
73.82489
  42
-0.021664865
  0
VERTEX
  5
4f9
  8
Layer_2
  10
117.39557
  20
73.511169
  42
-0.19423687
  0
SEQEND
  0
POLYLINE
  5
4fb
  8
Layer_2
  62
1
  70
1
  66
1
  10
0
  20
0
  30
0
  0
VERTEX
  5
4fb
  8
Layer_2
  10
119.03162
  20
74.300842
  42
0.096675972
  0
VERTEX
  5
4fc
  8
Layer_2
  10
118.89484
  20
74.530151
  42
-0.10952541
  0
VERTEX
  5
4fd
  8
Layer_2
  10
118.83844
  20
74.60614
  42
0.13276172
  0
VERTEX
  5
4fe
  8
Layer_2
  10
118.81195
  20
74.64563
  0
VERTEX
  5
4ff
  8
Layer_2
  10
118.78421
  20
74.656471
  0
VERTEX
  5
500
  8
Layer_2
  10
118.71582
  20
74.631653
  42
-0.098993496
  0
VERTEX
  5
501
  8
Layer_2
  10
118.61707
  20
74.599854
  0
VERTEX
  5
502
  8
Layer_2
  10
118.59055
  20
74.589849
  0
VERTEX
  5
503
  8
Layer_2
  10
118.54214
  20
74.556992
  0
VERTEX
  5
504
  8
Layer_2
  10
118.46614
  20
74.497011
  0
VERTEX
  5
505
  8
Layer_2
  10
118.35681
  20
74.40564
  0
VERTEX
  5
506
  8
Layer_2
  10
118.23688
  20
74.304932
  0
VERTEX
  5
507
  8
Layer_2
  10
118.21273
  20
74.301712
  0
VERTEX
  5
508
  8
Layer_2
  10
118.1629
  20
74.339417
  42
-0.21942708
  0
VERTEX
  5
509
  8
Layer_2
  10
118.10638
  20
74.419922
  0
VERTEX
  5
50a
  8
Layer_2
  10
118.1199
  20
74.457794
  0
VERTEX
  5
50b
  8
Layer_2
  10
118.18097
  20
74.515625
  42
0.044359363
  0
VERTEX
  5
50c
  8
Layer_2
  10
118.49225
  20
74.832825
  42
0.29278887
  0
VERTEX
  5
50d
  8
Layer_2
  10
118.50446
  20
74.994629
  42
0.16866355
  0
VERTEX
  5
50e
  8
Layer_2
  10
118.43988
  20
75.059265
  0
VERTEX
  5
50f
  8
Layer_2
  10
118.38599
  20
75.080322
  0
VERTEX
  5
510
  8
Layer_2
  10
118.33707
  20
75.136749
  0
VERTEX
  5
511
  8
Layer_2
  10
118.3006
  20
75.212402
  0
VERTEX
  5
512
  8
Layer_2
  10
118.33694
  20
75.270935
  0
VERTEX
  5
513
  8
Layer_2
  10
118.4126
  20
75.316467
  0
VERTEX
  5
514
  8
Layer_2
  10
118.45715
  20
75.329834
  0
VERTEX
  5
515
  8
Layer_2
  10
118.50574
  20
75.274719
  42
-0.1324179
  0
VERTEX
  5
516
  8
Layer_2
  10
118.55963
  20
75.193359
  42
0.098862921
  0
VERTEX
  5
517
  8
Layer_2
  10
118.58899
  20
75.131409
  42
0.21879555
  0
VERTEX
  5
518
  8
Layer_2
  10
118.6601
  20
75.090149
  0
VERTEX
  5
519
  8
Layer_2
  10
118.75356
  20
75.05098
  0
VERTEX
  5
51a
  8
Layer_2
  10
118.84088
  20
74.952759
  42
-0.057580279
  0
VERTEX
  5
51b
  8
Layer_2
  10
119.03149
  20
74.580566
  0
VERTEX
  5
51c
  8
Layer_2
  10
119.09162
  20
74.38726
  0
VERTEX
  5
51d
  8
Layer_2
  10
119.1203
  20
74.257629
  0
VERTEX
  5
51e
  8
Layer_2
  10
119.08228
  20
74.252319
  42
-0.31388565
  0
SEQEND
  0
POLYLINE
  5
520
  8
Layer_2
  62
1
  70
1
  66
1
  10
0
  20
0
  30
0
  0
VERTEX
  5
520
  8
Layer_2
  10
115.69116
  20
74.711609
  0
VERTEX
  5
521
  8
Layer_2
  10
115.72516
  20
74.675171
  0
VERTEX
  5
522
  8
Layer_2
  10
115.72235
  20
74.499084
  0
VERTEX
  5
523
  8
Layer_2
  10
115.71954
  20
74.32312
  0
VERTEX
  5
524
  8
Layer_2
  10
115.59174
  20
74.431946
  0
VERTEX
  5
525
  8
Layer_2
  10
115.49076
  20
74.51722
  0
VERTEX
  5
526
  8
Layer_2
  10
115.43146
  20
74.559143
  0
VERTEX
  5
527
  8
Layer_2
  10
115.3847
  20
74.573051
  0
VERTEX
  5
528
  8
Layer_2
  10
115.32135
  20
74.57428
  42
-0.13362663
  0
VERTEX
  5
529
  8
Layer_2
  10
115.18005
  20
74.603027
  42
-0.24921976
  0
VERTEX
  5
52a
  8
Layer_2
  10
115.05182
  20
74.810486
  0
VERTEX
  5
52b
  8
Layer_2
  10
115.04761
  20
74.875854
  0
VERTEX
  5
52c
  8
Layer_2
  10
115.08582
  20
74.875854
  42
-0.18337978
  0
VERTEX
  5
52d
  8
Layer_2
  10
115.1925
  20
74.815063
  0
VERTEX
  5
52e
  8
Layer_2
  10
115.26105
  20
74.754272
  0
VERTEX
  5
52f
  8
Layer_2
  10
115.29297
  20
74.773682
  42
0.21938335
  0
VERTEX
  5
530
  8
Layer_2
  10
115.36346
  20
74.879089
  0
VERTEX
  5
531
  8
Layer_2
  10
115.35698
  20
74.920975
  0
VERTEX
  5
532
  8
Layer_2
  10
115.28888
  20
74.991882
  0
VERTEX
  5
533
  8
Layer_2
  10
115.20844
  20
75.068542
  0
VERTEX
  5
534
  8
Layer_2
  10
115.23914
  20
75.080688
  42
-0.20716845
  0
VERTEX
  5
535
  8
Layer_2
  10
115.44897
  20
75.071411
  42
-0.24715701
  0
VERTEX
  5
536
  8
Layer_2
  10
115.62158
  20
74.845398
  42
0.14897357
  0
SEQEND
  0
POLYLINE
  5
538
  8
Layer_2
  62
1
  70
1
  66
1
  10
0
  20
0
  30
0
  0
VERTEX
  5
538
  8
Layer_2
  10
115.12231
  20
77.82196
  0
VERTEX
  5
539
  8
Layer_2
  10
115.01715
  20
77.766296
  0
VERTEX
  5
53a
  8
Layer_2
  10
114.8117
  20
77.650124
  0
VERTEX
  5
53b
  8
Layer_2
  10
114.68201
  20
77.569702
  0
VERTEX
  5
53c
  8
Layer_2
  10
114.784
  20
77.481628
  0
VERTEX
  5
53d
  8
Layer_2
  10
114.85168
  20
77.421701
  0
VERTEX
  5
53e
  8
Layer_2
  10
114.88901
  20
77.377808
  0
VERTEX
  5
53f
  8
Layer_2
  10
114.90102
  20
77.341742
  0
VERTEX
  5
540
  8
Layer_2
  10
114.89276
  20
77.305298
  42
-0.30109881
  0
VERTEX
  5
541
  8
Layer_2
  10
114.79498
  20
77.232483
  0
VERTEX
  5
542
  8
Layer_2
  10
114.73592
  20
77.250839
  0
VERTEX
  5
543
  8
Layer_2
  10
114.612
  20
77.328064
  0
VERTEX
  5
544
  8
Layer_2
  10
114.46783
  20
77.423767
  0
VERTEX
  5
545
  8
Layer_2
  10
114.37299
  20
77.348999
  0
VERTEX
  5
546
  8
Layer_2
  10
114.27757
  20
77.271654
  0
VERTEX
  5
547
  8
Layer_2
  10
114.18566
  20
77.193726
  0
VERTEX
  5
548
  8
Layer_2
  10
114.11645
  20
77.131865
  0
VERTEX
  5
549
  8
Layer_2
  10
114.08911
  20
77.102722
  0
VERTEX
  5
54a
  8
Layer_2
  10
114.11842
  20
77.080345
  0
VERTEX
  5
54b
  8
Layer_2
  10
114.18884
  20
77.037048
  0
VERTEX
  5
54c
  8
Layer_2
  10
114.3075
  20
76.962341
  42
-0.69440945
  0
VERTEX
  5
54d
  8
Layer_2
  10
114.23639
  20
76.787415
  0
VERTEX
  5
54e
  8
Layer_2
  10
114.16905
  20
76.80632
  0
VERTEX
  5
54f
  8
Layer_2
  10
114.05127
  20
76.853882
  0
VERTEX
  5
550
  8
Layer_2
  10
113.90002
  20
76.920349
  0
VERTEX
  5
551
  8
Layer_2
  10
113.83502
  20
76.851318
  0
VERTEX
  5
552
  8
Layer_2
  10
113.67188
  20
76.662254
  0
VERTEX
  5
553
  8
Layer_2
  10
113.58093
  20
76.538513
  0
VERTEX
  5
554
  8
Layer_2
  10
113.61734
  20
76.519196
  0
VERTEX
  5
555
  8
Layer_2
  10
113.70044
  20
76.485962
  0
VERTEX
  5
556
  8
Layer_2
  10
113.8271
  20
76.425819
  0
VERTEX
  5
557
  8
Layer_2
  10
113.86426
  20
76.367371
  42
-0.28939079
  0
VERTEX
  5
558
  8
Layer_2
  10
113.79974
  20
76.259827
  0
VERTEX
  5
559
  8
Layer_2
  10
113.77654
  20
76.251213
  0
VERTEX
  5
55a
  8
Layer_2
  10
113.74622
  20
76.250977
  0
VERTEX
  5
55b
  8
Layer_2
  10
113.69144
  20
76.261131
  0
VERTEX
  5
55c
  8
Layer_2
  10
113.59491
  20
76.283691
  0
VERTEX
  5
55d
  8
Layer_2
  10
113.50289
  20
76.305151
  0
VERTEX
  5
55e
  8
Layer_2
  10
113.44995
  20
76.315247
  0
VERTEX
  5
55f
  8
Layer_2
  10
113.42361
  20
76.315638
  0
VERTEX
  5
560
  8
Layer_2
  10
113.41138
  20
76.307983
  0
VERTEX
  5
561
  8
Layer_2
  10
113.27139
  20
76.083565
  0
VERTEX
  5
562
  8
Layer_2
  10
113.17151
  20
75.892334
  0
VERTEX
  5
563
  8
Layer_2
  10
113.29279
  20
75.866455
  42
-0.06526972
  0
VERTEX
  5
564
  8
Layer_2
  10
113.43463
  20
75.833374
  42
-0.6952551
  0
VERTEX
  5
565
  8
Layer_2
  10
113.41205
  20
75.644531
  42
-0.085177062
  0
VERTEX
  5
566
  8
Layer_2
  10
113.27136
  20
75.643555
  0
VERTEX
  5
567
  8
Layer_2
  10
113.10699
  20
75.652161
  0
VERTEX
  5
568
  8
Layer_2
  10
113.04993
  20
75.652771
  0
VERTEX
  5
569
  8
Layer_2
  10
113.00592
  20
75.542908
  42
0.042322797
  0
VERTEX
  5
56a
  8
Layer_2
  10
112.87823
  20
75.185059
  0
VERTEX
  5
56b
  8
Layer_2
  10
112.87109
  20
75.151917
  0
VERTEX
  5
56c
  8
Layer_2
  10
113.01416
  20
75.151917
  0
VERTEX
  5
56d
  8
Layer_2
  10
113.1571
  20
75.151917
  0
VERTEX
  5
56e
  8
Layer_2
  10
113.18353
  20
75.120422
  42
-0.47659623
  0
VERTEX
  5
56f
  8
Layer_2
  10
113.15833
  20
74.957336
  0
VERTEX
  5
570
  8
Layer_2
  10
113.09581
  20
74.944069
  0
VERTEX
  5
571
  8
Layer_2
  10
112.97369
  20
74.927185
  0
VERTEX
  5
572
  8
Layer_2
  10
112.80383
  20
74.902466
  0
VERTEX
  5
573
  8
Layer_2
  10
112.75226
  20
74.659416
  0
VERTEX
  5
574
  8
Layer_2
  10
112.72211
  20
74.419983
  0
VERTEX
  5
575
  8
Layer_2
  10
112.76406
  20
74.421921
  0
VERTEX
  5
576
  8
Layer_2
  10
112.85614
  20
74.435303
  0
VERTEX
  5
577
  8
Layer_2
  10
112.94308
  20
74.447769
  0
VERTEX
  5
578
  8
Layer_2
  10
112.99763
  20
74.448013
  0
VERTEX
  5
579
  8
Layer_2
  10
113.03035
  20
74.43441
  0
VERTEX
  5
57a
  8
Layer_2
  10
113.05182
  20
74.405334
  0
VERTEX
  5
57b
  8
Layer_2
  10
113.06309
  20
74.389587
  0
VERTEX
  5
57c
  8
Layer_2
  10
113.08753
  20
74.379425
  0
VERTEX
  5
57d
  8
Layer_2
  10
113.14183
  20
74.370865
  0
VERTEX
  5
57e
  8
Layer_2
  10
113.24268
  20
74.359924
  0
VERTEX
  5
57f
  8
Layer_2
  10
113.37014
  20
74.344704
  0
VERTEX
  5
580
  8
Layer_2
  10
113.42816
  20
74.333923
  0
VERTEX
  5
581
  8
Layer_2
  10
113.42638
  20
74.316147
  0
VERTEX
  5
582
  8
Layer_2
  10
113.4101
  20
74.28418
  0
VERTEX
  5
583
  8
Layer_2
  10
113.39027
  20
74.256197
  0
VERTEX
  5
584
  8
Layer_2
  10
113.36235
  20
74.244339
  0
VERTEX
  5
585
  8
Layer_2
  10
113.30392
  20
74.245916
  0
VERTEX
  5
586
  8
Layer_2
  10
113.19257
  20
74.25824
  0
VERTEX
  5
587
  8
Layer_2
  10
113.06917
  20
74.269287
  0
VERTEX
  5
588
  8
Layer_2
  10
113.01636
  20
74.257629
  0
VERTEX
  5
589
  8
Layer_2
  10
112.83655
  20
74.197937
  0
VERTEX
  5
58a
  8
Layer_2
  10
112.69385
  20
74.154968
  0
VERTEX
  5
58b
  8
Layer_2
  10
112.6911
  20
73.90094
  0
VERTEX
  5
58c
  8
Layer_2
  10
112.69002
  20
73.760407
  0
VERTEX
  5
58d
  8
Layer_2
  10
112.69141
  20
73.685204
  0
VERTEX
  5
58e
  8
Layer_2
  10
112.69648
  20
73.656177
  0
VERTEX
  5
58f
  8
Layer_2
  10
112.70642
  20
73.654175
  0
VERTEX
  5
590
  8
Layer_2
  10
112.84015
  20
73.702881
  0
VERTEX
  5
591
  8
Layer_2
  10
112.94518
  20
73.736664
  0
VERTEX
  5
592
  8
Layer_2
  10
112.99097
  20
73.7276
  42
-0.28891542
  0
VERTEX
  5
593
  8
Layer_2
  10
113.02606
  20
73.695313
  0
VERTEX
  5
594
  8
Layer_2
  10
113.00884
  20
73.656967
  0
VERTEX
  5
595
  8
Layer_2
  10
112.96741
  20
73.58667
  0
VERTEX
  5
596
  8
Layer_2
  10
112.90875
  20
73.493591
  0
VERTEX
  5
597
  8
Layer_2
  10
112.80798
  20
73.443054
  0
VERTEX
  5
598
  8
Layer_2
  10
112.72523
  20
73.397285
  0
VERTEX
  5
599
  8
Layer_2
  10
112.71283
  20
73.370056
  0
VERTEX
  5
59a
  8
Layer_2
  10
112.72504
  20
73.28125
  0
VERTEX
  5
59b
  8
Layer_2
  10
112.73169
  20
73.214783
  0
VERTEX
  5
59c
  8
Layer_2
  10
112.23169
  20
72.427673
  0
VERTEX
  5
59d
  8
Layer_2
  10
111.69427
  20
71.573608
  0
VERTEX
  5
59e
  8
Layer_2
  10
111.59688
  20
71.354692
  0
VERTEX
  5
59f
  8
Layer_2
  10
111.55017
  20
71.140678
  0
VERTEX
  5
5a0
  8
Layer_2
  10
111.55487
  20
70.93883
  0
VERTEX
  5
5a1
  8
Layer_2
  10
111.61169
  20
70.756409
  0
VERTEX
  5
5a2
  8
Layer_2
  10
111.68304
  20
70.647785
  0
VERTEX
  5
5a3
  8
Layer_2
  10
111.7831
  20
70.550629
  0
VERTEX
  5
5a4
  8
Layer_2
  10
111.90578
  20
70.469769
  0
VERTEX
  5
5a5
  8
Layer_2
  10
112.04504
  20
70.410034
  0
VERTEX
  5
5a6
  8
Layer_2
  10
112.15902
  20
70.376761
  0
VERTEX
  5
5a7
  8
Layer_2
  10
112.33353
  20
70.359917
  0
VERTEX
  5
5a8
  8
Layer_2
  10
112.49019
  20
70.355693
  0
VERTEX
  5
5a9
  8
Layer_2
  10
112.71803
  20
70.353223
  0
VERTEX
  5
5aa
  8
Layer_2
  10
112.86448
  20
70.3524
  0
VERTEX
  5
5ab
  8
Layer_2
  10
113.03573
  20
70.351721
  0
VERTEX
  5
5ac
  8
Layer_2
  10
113.23412
  20
70.351088
  0
VERTEX
  5
5ad
  8
Layer_2
  10
113.46198
  20
70.350403
  0
VERTEX
  5
5ae
  8
Layer_2
  10
114.65955
  20
70.34668
  0
VERTEX
  5
5af
  8
Layer_2
  10
114.64655
  20
70.290771
  0
VERTEX
  5
5b0
  8
Layer_2
  10
114.63354
  20
70.234863
  0
VERTEX
  5
5b1
  8
Layer_2
  10
114.77277
  20
70.150024
  0
VERTEX
  5
5b2
  8
Layer_2
  10
114.99078
  20
70.0224
  0
VERTEX
  5
5b3
  8
Layer_2
  10
115.06952
  20
69.979492
  0
VERTEX
  5
5b4
  8
Layer_2
  10
115.07642
  20
70.017883
  0
VERTEX
  5
5b5
  8
Layer_2
  10
115.09894
  20
70.139772
  0
VERTEX
  5
5b6
  8
Layer_2
  10
115.11459
  20
70.211685
  0
VERTEX
  5
5b7
  8
Layer_2
  10
115.12764
  20
70.250021
  0
VERTEX
  5
5b8
  8
Layer_2
  10
115.14233
  20
70.271179
  42
-0.4236726
  0
VERTEX
  5
5b9
  8
Layer_2
  10
115.28766
  20
70.270569
  0
VERTEX
  5
5ba
  8
Layer_2
  10
115.30803
  20
70.24491
  0
VERTEX
  5
5bb
  8
Layer_2
  10
115.31775
  20
70.208809
  0
VERTEX
  5
5bc
  8
Layer_2
  10
115.31873
  20
70.14475
  0
VERTEX
  5
5bd
  8
Layer_2
  10
115.31287
  20
70.035217
  0
VERTEX
  5
5be
  8
Layer_2
  10
115.30736
  20
69.903427
  0
VERTEX
  5
5bf
  8
Layer_2
  10
115.31696
  20
69.866028
  0
VERTEX
  5
5c0
  8
Layer_2
  10
115.47813
  20
69.798752
  0
VERTEX
  5
5c1
  8
Layer_2
  10
115.6991
  20
69.717834
  0
VERTEX
  5
5c2
  8
Layer_2
  10
115.80133
  20
69.684387
  0
VERTEX
  5
5c3
  8
Layer_2
  10
115.80646
  20
69.830444
  0
VERTEX
  5
5c4
  8
Layer_2
  10
115.8112
  20
69.924929
  0
VERTEX
  5
5c5
  8
Layer_2
  10
115.82054
  20
69.978363
  0
VERTEX
  5
5c6
  8
Layer_2
  10
115.83966
  20
70.005384
  0
VERTEX
  5
5c7
  8
Layer_2
  10
115.87372
  20
70.02063
  42
-0.36826204
  0
VERTEX
  5
5c8
  8
Layer_2
  10
115.99738
  20
69.976074
  42
-0.090462876
  0
VERTEX
  5
5c9
  8
Layer_2
  10
116.03271
  20
69.786011
  0
VERTEX
  5
5ca
  8
Layer_2
  10
116.04818
  20
69.672432
  0
VERTEX
  5
5cb
  8
Layer_2
  10
116.0592
  20
69.620789
  0
VERTEX
  5
5cc
  8
Layer_2
  10
116.28822
  20
69.570839
  0
VERTEX
  5
5cd
  8
Layer_2
  10
116.5459
  20
69.529724
  0
VERTEX
  5
5ce
  8
Layer_2
  10
116.52594
  20
69.662842
  0
VERTEX
  5
5cf
  8
Layer_2
  10
116.51188
  20
69.753383
  0
VERTEX
  5
5d0
  8
Layer_2
  10
116.51056
  20
69.809196
  0
VERTEX
  5
5d1
  8
Layer_2
  10
116.52357
  20
69.84234
  0
VERTEX
  5
5d2
  8
Layer_2
  10
116.55249
  20
69.864868
  42
0.26593352
  0
VERTEX
  5
5d3
  8
Layer_2
  10
116.58325
  20
69.895508
  0
VERTEX
  5
5d4
  8
Layer_2
  10
116.62982
  20
70.324524
  42
-0.35242888
  0
VERTEX
  5
5d5
  8
Layer_2
  10
116.68573
  20
70.347473
  0
VERTEX
  5
5d6
  8
Layer_2
  10
116.72166
  20
70.345047
  0
VERTEX
  5
5d7
  8
Layer_2
  10
116.73663
  20
70.339233
  0
VERTEX
  5
5d8
  8
Layer_2
  10
116.71082
  20
70.097717
  0
VERTEX
  5
5d9
  8
Layer_2
  10
116.69626
  20
69.962479
  0
VERTEX
  5
5da
  8
Layer_2
  10
116.69077
  20
69.888535
  0
VERTEX
  5
5db
  8
Layer_2
  10
116.69379
  20
69.850319
  0
VERTEX
  5
5dc
  8
Layer_2
  10
116.70477
  20
69.822266
  42
-0.038777715
  0
VERTEX
  5
5dd
  8
Layer_2
  10
116.76385
  20
69.645203
  0
VERTEX
  5
5de
  8
Layer_2
  10
116.80304
  20
69.510193
  0
VERTEX
  5
5df
  8
Layer_2
  10
116.84912
  20
69.506042
  0
VERTEX
  5
5e0
  8
Layer_2
  10
117.09802
  20
69.503174
  0
VERTEX
  5
5e1
  8
Layer_2
  10
117.30261
  20
69.509644
  0
VERTEX
  5
5e2
  8
Layer_2
  10
117.29305
  20
69.550301
  0
VERTEX
  5
5e3
  8
Layer_2
  10
117.26251
  20
69.640442
  0
VERTEX
  5
5e4
  8
Layer_2
  10
117.23035
  20
69.739471
  0
VERTEX
  5
5e5
  8
Layer_2
  10
117.22296
  20
69.789978
  42
-0.51572603
  0
VERTEX
  5
5e6
  8
Layer_2
  10
117.38562
  20
69.852783
  0
VERTEX
  5
5e7
  8
Layer_2
  10
117.42489
  20
69.799927
  0
VERTEX
  5
5e8
  8
Layer_2
  10
117.48865
  20
69.681702
  0
VERTEX
  5
5e9
  8
Layer_2
  10
117.56586
  20
69.527527
  0
VERTEX
  5
5ea
  8
Layer_2
  10
117.62402
  20
69.534302
  42
0.044885308
  0
VERTEX
  5
5eb
  8
Layer_2
  10
118.02429
  20
69.604736
  0
VERTEX
  5
5ec
  8
Layer_2
  10
118.06354
  20
69.616638
  0
VERTEX
  5
5ed
  8
Layer_2
  10
117.99829
  20
69.729065
  0
VERTEX
  5
5ee
  8
Layer_2
  10
117.95421
  20
69.810673
  0
VERTEX
  5
5ef
  8
Layer_2
  10
117.93465
  20
69.866028
  0
VERTEX
  5
5f0
  8
Layer_2
  10
117.93784
  20
69.905361
  0
VERTEX
  5
5f1
  8
Layer_2
  10
117.96198
  20
69.938904
  42
-0.13641431
  0
VERTEX
  5
5f2
  8
Layer_2
  10
118.01929
  20
69.975281
  0
VERTEX
  5
5f3
  8
Layer_2
  10
118.0562
  20
69.97602
  0
VERTEX
  5
5f4
  8
Layer_2
  10
118.09477
  20
69.954414
  0
VERTEX
  5
5f5
  8
Layer_2
  10
118.14293
  20
69.903844
  0
VERTEX
  5
5f6
  8
Layer_2
  10
118.20862
  20
69.817688
  0
VERTEX
  5
5f7
  8
Layer_2
  10
118.28182
  20
69.723122
  0
VERTEX
  5
5f8
  8
Layer_2
  10
118.32147
  20
69.683533
  0
VERTEX
  5
5f9
  8
Layer_2
  10
118.47228
  20
69.728859
  0
VERTEX
  5
5fa
  8
Layer_2
  10
118.69629
  20
69.810486
  0
VERTEX
  5
5fb
  8
Layer_2
  10
118.79047
  20
69.84845
  0
VERTEX
  5
5fc
  8
Layer_2
  10
118.70355
  20
69.952209
  42
-0.11232699
  0
VERTEX
  5
5fd
  8
Layer_2
  10
118.61041
  20
70.080627
  42
-0.48818937
  0
VERTEX
  5
5fe
  8
Layer_2
  10
118.72229
  20
70.204407
  0
VERTEX
  5
5ff
  8
Layer_2
  10
118.78602
  20
70.175018
  0
VERTEX
  5
600
  8
Layer_2
  10
118.87817
  20
70.092346
  0
VERTEX
  5
601
  8
Layer_2
  10
118.97778
  20
69.99823
  0
VERTEX
  5
602
  8
Layer_2
  10
119.02625
  20
69.957214
  0
VERTEX
  5
603
  8
Layer_2
  10
119.1311
  20
70.012878
  42
0.04783387
  0
VERTEX
  5
604
  8
Layer_2
  10
119.43414
  20
70.191162
  0
VERTEX
  5
605
  8
Layer_2
  10
119.45825
  20
70.210693
  0
VERTEX
  5
606
  8
Layer_2
  10
119.37988
  20
70.27655
  0
VERTEX
  5
607
  8
Layer_2
  10
119.30164
  20
70.342407
  0
VERTEX
  5
608
  8
Layer_2
  10
120.51581
  20
70.348389
  0
VERTEX
  5
609
  8
Layer_2
  10
120.80479
  20
70.349992
  0
VERTEX
  5
60a
  8
Layer_2
  10
121.05558
  20
70.351741
  0
VERTEX
  5
60b
  8
Layer_2
  10
121.26863
  20
70.353643
  0
VERTEX
  5
60c
  8
Layer_2
  10
121.4444
  20
70.355705
  0
VERTEX
  5
60d
  8
Layer_2
  10
121.58335
  20
70.357937
  0
VERTEX
  5
60e
  8
Layer_2
  10
121.68593
  20
70.360345
  0
VERTEX
  5
60f
  8
Layer_2
  10
121.7526
  20
70.362938
  0
VERTEX
  5
610
  8
Layer_2
  10
121.78381
  20
70.365723
  0
VERTEX
  5
611
  8
Layer_2
  10
121.95045
  20
70.409502
  0
VERTEX
  5
612
  8
Layer_2
  10
122.09
  20
70.465973
  0
VERTEX
  5
613
  8
Layer_2
  10
122.20555
  20
70.53668
  0
VERTEX
  5
614
  8
Layer_2
  10
122.30023
  20
70.623169
  42
0.10088669
  0
VERTEX
  5
615
  8
Layer_2
  10
122.42651
  20
70.844421
  42
0.083750321
  0
VERTEX
  5
616
  8
Layer_2
  10
122.4538
  20
71.052795
  42
0.1160019
  0
VERTEX
  5
617
  8
Layer_2
  10
122.33582
  20
71.512817
  0
VERTEX
  5
618
  8
Layer_2
  10
122.27657
  20
71.616657
  0
VERTEX
  5
619
  8
Layer_2
  10
122.163
  20
71.80365
  0
VERTEX
  5
61a
  8
Layer_2
  10
122.00816
  20
72.052624
  0
VERTEX
  5
61b
  8
Layer_2
  10
121.82507
  20
72.342407
  0
VERTEX
  5
61c
  8
Layer_2
  10
121.37842
  20
73.044189
  0
VERTEX
  5
61d
  8
Layer_2
  10
121.39728
  20
73.155029
  0
VERTEX
  5
61e
  8
Layer_2
  10
121.416
  20
73.267912
  0
VERTEX
  5
61f
  8
Layer_2
  10
121.42455
  20
73.330429
  0
VERTEX
  5
620
  8
Layer_2
  10
121.42423
  20
73.357126
  0
VERTEX
  5
621
  8
Layer_2
  10
121.41638
  20
73.362549
  0
VERTEX
  5
622
  8
Layer_2
  10
121.30206
  20
73.343689
  0
VERTEX
  5
623
  8
Layer_2
  10
121.20105
  20
73.325378
  0
VERTEX
  5
624
  8
Layer_2
  10
121.14618
  20
73.410522
  0
VERTEX
  5
625
  8
Layer_2
  10
121.09119
  20
73.499329
  0
VERTEX
  5
626
  8
Layer_2
  10
121.15044
  20
73.527596
  0
VERTEX
  5
627
  8
Layer_2
  10
121.30499
  20
73.577698
  0
VERTEX
  5
628
  8
Layer_2
  10
121.44812
  20
73.624512
  0
VERTEX
  5
629
  8
Layer_2
  10
121.45695
  20
73.864471
  0
VERTEX
  5
62a
  8
Layer_2
  10
121.45044
  20
74.108093
  0
VERTEX
  5
62b
  8
Layer_2
  10
121.41994
  20
74.111511
  0
VERTEX
  5
62c
  8
Layer_2
  10
121.32166
  20
74.079956
  42
-0.085357848
  0
VERTEX
  5
62d
  8
Layer_2
  10
121.18274
  20
74.037659
  42
-0.37600341
  0
VERTEX
  5
62e
  8
Layer_2
  10
121.09473
  20
74.134766
  0
VERTEX
  5
62f
  8
Layer_2
  10
121.09666
  20
74.176196
  0
VERTEX
  5
630
  8
Layer_2
  10
121.12151
  20
74.212379
  0
VERTEX
  5
631
  8
Layer_2
  10
121.17901
  20
74.252328
  0
VERTEX
  5
632
  8
Layer_2
  10
121.27893
  20
74.305054
  0
VERTEX
  5
633
  8
Layer_2
  10
121.42737
  20
74.38092
  0
VERTEX
  5
634
  8
Layer_2
  10
121.39705
  20
74.62265
  0
VERTEX
  5
635
  8
Layer_2
  10
121.34686
  20
74.869141
  0
VERTEX
  5
636
  8
Layer_2
  10
121.30852
  20
74.856354
  0
VERTEX
  5
637
  8
Layer_2
  10
121.22778
  20
74.813538
  0
VERTEX
  5
638
  8
Layer_2
  10
121.13652
  20
74.765533
  0
VERTEX
  5
639
  8
Layer_2
  10
121.0838
  20
74.749207
  42
-0.30427384
  0
VERTEX
  5
63a
  8
Layer_2
  10
120.98828
  20
74.826477
  0
VERTEX
  5
63b
  8
Layer_2
  10
120.98202
  20
74.864689
  0
VERTEX
  5
63c
  8
Layer_2
  10
121.00107
  20
74.9048
  0
VERTEX
  5
63d
  8
Layer_2
  10
121.05221
  20
74.955601
  0
VERTEX
  5
63e
  8
Layer_2
  10
121.14221
  20
75.025879
  0
VERTEX
  5
63f
  8
Layer_2
  10
121.23867
  20
75.102348
  0
VERTEX
  5
640
  8
Layer_2
  10
121.27521
  20
75.142151
  0
VERTEX
  5
641
  8
Layer_2
  10
121.2013
  20
75.373108
  0
VERTEX
  5
642
  8
Layer_2
  10
121.11316
  20
75.593811
  0
VERTEX
  5
643
  8
Layer_2
  10
121.07716
  20
75.573578
  0
VERTEX
  5
644
  8
Layer_2
  10
121.00079
  20
75.514526
  0
VERTEX
  5
645
  8
Layer_2
  10
120.90862
  20
75.444016
  0
VERTEX
  5
646
  8
Layer_2
  10
120.8598
  20
75.427795
  42
-0.34406171
  0
VERTEX
  5
647
  8
Layer_2
  10
120.75818
  20
75.514404
  0
VERTEX
  5
648
  8
Layer_2
  10
120.75726
  20
75.546229
  0
VERTEX
  5
649
  8
Layer_2
  10
120.77483
  20
75.58448
  0
VERTEX
  5
64a
  8
Layer_2
  10
120.81737
  20
75.639176
  0
VERTEX
  5
64b
  8
Layer_2
  10
120.89136
  20
75.720337
  0
VERTEX
  5
64c
  8
Layer_2
  10
121.00323
  20
75.839417
  0
VERTEX
  5
64d
  8
Layer_2
  10
120.96045
  20
75.923035
  0
VERTEX
  5
64e
  8
Layer_2
  10
120.84402
  20
76.130165
  0
VERTEX
  5
64f
  8
Layer_2
  10
120.75616
  20
76.269775
  0
VERTEX
  5
650
  8
Layer_2
  10
120.72657
  20
76.24453
  0
VERTEX
  5
651
  8
Layer_2
  10
120.66663
  20
76.176941
  0
VERTEX
  5
652
  8
Layer_2
  10
120.59601
  20
76.099954
  0
VERTEX
  5
653
  8
Layer_2
  10
120.54134
  20
76.06234
  0
VERTEX
  5
654
  8
Layer_2
  10
120.49441
  20
76.060924
  0
VERTEX
  5
655
  8
Layer_2
  10
120.44696
  20
76.092529
  42
-0.20781528
  0
VERTEX
  5
656
  8
Layer_2
  10
120.41656
  20
76.162048
  0
VERTEX
  5
657
  8
Layer_2
  10
120.43349
  20
76.221161
  0
VERTEX
  5
658
  8
Layer_2
  10
120.50854
  20
76.342163
  0
VERTEX
  5
659
  8
Layer_2
  10
120.57351
  20
76.443153
  0
VERTEX
  5
65a
  8
Layer_2
  10
120.60052
  20
76.490723
  0
VERTEX
  5
65b
  8
Layer_2
  10
120.44485
  20
76.693756
  0
VERTEX
  5
65c
  8
Layer_2
  10
120.2807
  20
76.869141
  0
VERTEX
  5
65d
  8
Layer_2
  10
120.2085
  20
76.750122
  0
VERTEX
  5
65e
  8
Layer_2
  10
120.16187
  20
76.676267
  0
VERTEX
  5
65f
  8
Layer_2
  10
120.1259
  20
76.635399
  0
VERTEX
  5
660
  8
Layer_2
  10
120.09211
  20
76.620749
  0
VERTEX
  5
661
  8
Layer_2
  10
120.052
  20
76.625549
  42
-0.33962809
  0
VERTEX
  5
662
  8
Layer_2
  10
119.9668
  20
76.722473
  0
VERTEX
  5
663
  8
Layer_2
  10
119.98649
  20
76.785561
  0
VERTEX
  5
664
  8
Layer_2
  10
120.03387
  20
76.901245
  0
VERTEX
  5
665
  8
Layer_2
  10
120.08029
  20
77.012024
  0
VERTEX
  5
666
  8
Layer_2
  10
120.09778
  20
77.06311
  0
VERTEX
  5
667
  8
Layer_2
  10
119.91392
  20
77.230263
  0
VERTEX
  5
668
  8
Layer_2
  10
119.72241
  20
77.380249
  0
VERTEX
  5
669
  8
Layer_2
  10
119.70644
  20
77.352478
  0
VERTEX
  5
66a
  8
Layer_2
  10
119.68011
  20
77.285706
  0
VERTEX
  5
66b
  8
Layer_2
  10
119.62508
  20
77.150223
  0
VERTEX
  5
66c
  8
Layer_2
  10
119.57953
  20
77.104736
  42
-0.53453093
  0
VERTEX
  5
66d
  8
Layer_2
  10
119.43524
  20
77.203247
  42
-0.061690257
  0
VERTEX
  5
66e
  8
Layer_2
  10
119.47101
  20
77.380249
  0
VERTEX
  5
66f
  8
Layer_2
  10
119.50684
  20
77.532288
  0
VERTEX
  5
670
  8
Layer_2
  10
119.30209
  20
77.666313
  0
VERTEX
  5
671
  8
Layer_2
  10
119.07861
  20
77.789124
  0
VERTEX
  5
672
  8
Layer_2
  10
119.06754
  20
77.752945
  0
VERTEX
  5
673
  8
Layer_2
  10
119.05005
  20
77.665955
  42
-0.10195742
  0
VERTEX
  5
674
  8
Layer_2
  10
119.01129
  20
77.517273
  42
-0.50242651
  0
VERTEX
  5
675
  8
Layer_2
  10
118.84692
  20
77.515564
  0
VERTEX
  5
676
  8
Layer_2
  10
118.81964
  20
77.548035
  0
VERTEX
  5
677
  8
Layer_2
  10
118.82751
  20
77.691589
  0
VERTEX
  5
678
  8
Layer_2
  10
118.83515
  20
77.826649
  0
VERTEX
  5
679
  8
Layer_2
  10
118.83151
  20
77.89183
  0
VERTEX
  5
67a
  8
Layer_2
  10
118.80659
  20
77.919865
  0
VERTEX
  5
67b
  8
Layer_2
  10
118.75037
  20
77.943481
  0
VERTEX
  5
67c
  8
Layer_2
  10
118.5253
  20
78.028305
  0
VERTEX
  5
67d
  8
Layer_2
  10
118.35114
  20
78.085571
  0
VERTEX
  5
67e
  8
Layer_2
  10
118.34386
  20
78.037567
  0
VERTEX
  5
67f
  8
Layer_2
  10
118.33923
  20
77.92218
  0
VERTEX
  5
680
  8
Layer_2
  10
118.33636
  20
77.758789
  0
VERTEX
  5
681
  8
Layer_2
  10
118.11212
  20
78.108765
  0
VERTEX
  5
682
  8
Layer_2
  10
117.99731
  20
78.287562
  0
VERTEX
  5
683
  8
Layer_2
  10
117.90465
  20
78.431141
  0
VERTEX
  5
684
  8
Layer_2
  10
117.83092
  20
78.544295
  0
VERTEX
  5
685
  8
Layer_2
  10
117.7729
  20
78.631821
  0
VERTEX
  5
686
  8
Layer_2
  10
117.69104
  20
78.749165
  0
VERTEX
  5
687
  8
Layer_2
  10
117.6333
  20
78.821533
  0
VERTEX
  5
688
  8
Layer_2
  10
117.41375
  20
79.018925
  0
VERTEX
  5
689
  8
Layer_2
  10
117.17591
  20
79.131104
  0
VERTEX
  5
68a
  8
Layer_2
  10
116.93044
  20
79.155071
  0
VERTEX
  5
68b
  8
Layer_2
  10
116.68799
  20
79.08783
  42
0.078865375
  0
VERTEX
  5
68c
  8
Layer_2
  10
116.42786
  20
78.905212
  0
VERTEX
  5
68d
  8
Layer_2
  10
116.35196
  20
78.826995
  0
VERTEX
  5
68e
  8
Layer_2
  10
116.27582
  20
78.732063
  0
VERTEX
  5
68f
  8
Layer_2
  10
116.18036
  20
78.594617
  0
VERTEX
  5
690
  8
Layer_2
  10
116.04651
  20
78.388855
  0
VERTEX
  5
691
  8
Layer_2
  10
115.94028
  20
78.22541
  0
VERTEX
  5
692
  8
Layer_2
  10
115.88049
  20
78.140373
  0
VERTEX
  5
693
  8
Layer_2
  10
115.84748
  20
78.105725
  0
VERTEX
  5
694
  8
Layer_2
  10
115.82159
  20
78.093445
  0
VERTEX
  5
695
  8
Layer_2
  10
115.35669
  20
77.925964
  0
VERTEX
  5
696
  8
Layer_2
  10
115.38126
  20
77.892784
  0
VERTEX
  5
697
  8
Layer_2
  10
115.4436
  20
77.817444
  0
VERTEX
  5
698
  8
Layer_2
  10
115.50236
  20
77.742621
  0
VERTEX
  5
699
  8
Layer_2
  10
115.52898
  20
77.691322
  0
VERTEX
  5
69a
  8
Layer_2
  10
115.52669
  20
77.651387
  0
VERTEX
  5
69b
  8
Layer_2
  10
115.49872
  20
77.610657
  42
-0.21619508
  0
VERTEX
  5
69c
  8
Layer_2
  10
115.42853
  20
77.574524
  0
VERTEX
  5
69d
  8
Layer_2
  10
115.39636
  20
77.578735
  0
VERTEX
  5
69e
  8
Layer_2
  10
115.36105
  20
77.597916
  0
VERTEX
  5
69f
  8
Layer_2
  10
115.30901
  20
77.641884
  0
VERTEX
  5
6a0
  8
Layer_2
  10
115.22668
  20
77.720459
  0
SEQEND
  0
POLYLINE
  5
6a2
  8
Layer_2
  62
1
  70
1
  66
1
  10
0
  20
0
  30
0
  0
VERTEX
  5
6a2
  8
Layer_2
  10
119.59888
  20
74.916748
  0
VERTEX
  5
6a3
  8
Layer_2
  10
121.88007
  20
71.354065
  42
-0.12522126
  0
VERTEX
  5
6a4
  8
Layer_2
  10
121.93964
  20
71.149597
  0
VERTEX
  5
6a5
  8
Layer_2
  10
121.92004
  20
71.050174
  0
VERTEX
  5
6a6
  8
Layer_2
  10
121.86456
  20
70.965233
  0
VERTEX
  5
6a7
  8
Layer_2
  10
121.77814
  20
70.90001
  0
VERTEX
  5
6a8
  8
Layer_2
  10
121.66571
  20
70.859741
  0
VERTEX
  5
6a9
  8
Layer_2
  10
121.64365
  20
70.858258
  0
VERTEX
  5
6aa
  8
Layer_2
  10
121.59141
  20
70.856897
  0
VERTEX
  5
6ab
  8
Layer_2
  10
121.50776
  20
70.855655
  0
VERTEX
  5
6ac
  8
Layer_2
  10
121.39144
  20
70.85453
  0
VERTEX
  5
6ad
  8
Layer_2
  10
121.24121
  20
70.85352
  0
VERTEX
  5
6ae
  8
Layer_2
  10
121.05582
  20
70.852622
  0
VERTEX
  5
6af
  8
Layer_2
  10
120.83404
  20
70.851833
  0
VERTEX
  5
6b0
  8
Layer_2
  10
120.5746
  20
70.851151
  0
VERTEX
  5
6b1
  8
Layer_2
  10
120.27627
  20
70.850573
  0
VERTEX
  5
6b2
  8
Layer_2
  10
119.9378
  20
70.850097
  0
VERTEX
  5
6b3
  8
Layer_2
  10
119.55794
  20
70.849721
  0
VERTEX
  5
6b4
  8
Layer_2
  10
119.13546
  20
70.849442
  0
VERTEX
  5
6b5
  8
Layer_2
  10
118.66909
  20
70.849257
  0
VERTEX
  5
6b6
  8
Layer_2
  10
118.1576
  20
70.849164
  0
VERTEX
  5
6b7
  8
Layer_2
  10
117.59974
  20
70.84916
  0
VERTEX
  5
6b8
  8
Layer_2
  10
116.99426
  20
70.849243
  0
VERTEX
  5
6b9
  8
Layer_2
  10
116.54581
  20
70.849314
  0
VERTEX
  5
6ba
  8
Layer_2
  10
116.12688
  20
70.849375
  0
VERTEX
  5
6bb
  8
Layer_2
  10
115.73647
  20
70.849436
  0
VERTEX
  5
6bc
  8
Layer_2
  10
115.37355
  20
70.849507
  0
VERTEX
  5
6bd
  8
Layer_2
  10
114.72609
  20
70.849722
  0
VERTEX
  5
6be
  8
Layer_2
  10
114.17632
  20
70.850104
  0
VERTEX
  5
6bf
  8
Layer_2
  10
113.71606
  20
70.850738
  0
VERTEX
  5
6c0
  8
Layer_2
  10
113.33712
  20
70.851708
  0
VERTEX
  5
6c1
  8
Layer_2
  10
113.03134
  20
70.853096
  0
VERTEX
  5
6c2
  8
Layer_2
  10
112.79052
  20
70.854988
  0
VERTEX
  5
6c3
  8
Layer_2
  10
112.60649
  20
70.857467
  0
VERTEX
  5
6c4
  8
Layer_2
  10
112.47107
  20
70.860618
  0
VERTEX
  5
6c5
  8
Layer_2
  10
112.37607
  20
70.864523
  0
VERTEX
  5
6c6
  8
Layer_2
  10
112.31332
  20
70.869267
  0
VERTEX
  5
6c7
  8
Layer_2
  10
112.25185
  20
70.88161
  0
VERTEX
  5
6c8
  8
Layer_2
  10
112.22119
  20
70.898315
  42
-0.081219601
  0
VERTEX
  5
6c9
  8
Layer_2
  10
112.14496
  20
70.957397
  0
VERTEX
  5
6ca
  8
Layer_2
  10
112.0892
  20
71.037304
  0
VERTEX
  5
6cb
  8
Layer_2
  10
112.06577
  20
71.127716
  0
VERTEX
  5
6cc
  8
Layer_2
  10
112.07467
  20
71.228519
  0
VERTEX
  5
6cd
  8
Layer_2
  10
112.11591
  20
71.3396
  0
VERTEX
  5
6ce
  8
Layer_2
  10
112.1305
  20
71.363669
  0
VERTEX
  5
6cf
  8
Layer_2
  10
112.16772
  20
71.422958
  0
VERTEX
  5
6d0
  8
Layer_2
  10
112.22639
  20
71.515629
  0
VERTEX
  5
6d1
  8
Layer_2
  10
112.30535
  20
71.639846
  0
VERTEX
  5
6d2
  8
Layer_2
  10
112.40341
  20
71.793771
  0
VERTEX
  5
6d3
  8
Layer_2
  10
112.51941
  20
71.975567
  0
VERTEX
  5
6d4
  8
Layer_2
  10
112.65215
  20
72.183399
  0
VERTEX
  5
6d5
  8
Layer_2
  10
112.80048
  20
72.415428
  0
VERTEX
  5
6d6
  8
Layer_2
  10
113.13919
  20
72.944733
  0
VERTEX
  5
6d7
  8
Layer_2
  10
113.52611
  20
73.548787
  0
VERTEX
  5
6d8
  8
Layer_2
  10
113.95186
  20
74.212896
  0
VERTEX
  5
6d9
  8
Layer_2
  10
114.40704
  20
74.922363
  0
VERTEX
  5
6da
  8
Layer_2
  10
114.72275
  20
75.414166
  0
VERTEX
  5
6db
  8
Layer_2
  10
115.01041
  20
75.862077
  0
VERTEX
  5
6dc
  8
Layer_2
  10
115.27115
  20
76.267851
  0
VERTEX
  5
6dd
  8
Layer_2
  10
115.50611
  20
76.633239
  0
VERTEX
  5
6de
  8
Layer_2
  10
115.71642
  20
76.959994
  0
VERTEX
  5
6df
  8
Layer_2
  10
115.90321
  20
77.249869
  0
VERTEX
  5
6e0
  8
Layer_2
  10
116.06762
  20
77.504617
  0
VERTEX
  5
6e1
  8
Layer_2
  10
116.21079
  20
77.72599
  0
VERTEX
  5
6e2
  8
Layer_2
  10
116.33385
  20
77.915741
  0
VERTEX
  5
6e3
  8
Layer_2
  10
116.43794
  20
78.075622
  0
VERTEX
  5
6e4
  8
Layer_2
  10
116.52418
  20
78.207387
  0
VERTEX
  5
6e5
  8
Layer_2
  10
116.59373
  20
78.312787
  0
VERTEX
  5
6e6
  8
Layer_2
  10
116.68723
  20
78.451505
  0
VERTEX
  5
6e7
  8
Layer_2
  10
116.72754
  20
78.505798
  42
-0.082415915
  0
VERTEX
  5
6e8
  8
Layer_2
  10
116.84515
  20
78.592651
  42
-0.11422397
  0
VERTEX
  5
6e9
  8
Layer_2
  10
117.00244
  20
78.622131
  42
-0.12512782
  0
VERTEX
  5
6ea
  8
Layer_2
  10
117.16284
  20
78.58783
  42
-0.078699363
  0
VERTEX
  5
6eb
  8
Layer_2
  10
117.28595
  20
78.490723
  0
VERTEX
  5
6ec
  8
Layer_2
  10
117.30081
  20
78.471604
  0
VERTEX
  5
6ed
  8
Layer_2
  10
117.32928
  20
78.430946
  0
VERTEX
  5
6ee
  8
Layer_2
  10
117.37215
  20
78.367526
  0
VERTEX
  5
6ef
  8
Layer_2
  10
117.4302
  20
78.280127
  0
VERTEX
  5
6f0
  8
Layer_2
  10
117.50423
  20
78.167526
  0
VERTEX
  5
6f1
  8
Layer_2
  10
117.59503
  20
78.028505
  0
VERTEX
  5
6f2
  8
Layer_2
  10
117.70339
  20
77.861843
  0
VERTEX
  5
6f3
  8
Layer_2
  10
117.83009
  20
77.666321
  0
VERTEX
  5
6f4
  8
Layer_2
  10
117.97592
  20
77.440717
  0
VERTEX
  5
6f5
  8
Layer_2
  10
118.14168
  20
77.183813
  0
VERTEX
  5
6f6
  8
Layer_2
  10
118.32816
  20
76.894388
  0
VERTEX
  5
6f7
  8
Layer_2
  10
118.53613
  20
76.571222
  0
VERTEX
  5
6f8
  8
Layer_2
  10
118.76641
  20
76.213095
  0
VERTEX
  5
6f9
  8
Layer_2
  10
119.01976
  20
75.818787
  0
VERTEX
  5
6fa
  8
Layer_2
  10
119.29699
  20
75.387078
  0
SEQEND
  0
POLYLINE
  5
6fc
  8
Layer_2
  62
1
  70
1
  66
1
  10
0
  20
0
  30
0
  0
VERTEX
  5
6fc
  8
Layer_2
  10
125.10706
  20
72.924622
  0
VERTEX
  5
6fd
  8
Layer_2
  10
125.25732
  20
72.92041
  0
VERTEX
  5
6fe
  8
Layer_2
  10
125.39953
  20
72.926339
  0
VERTEX
  5
6ff
  8
Layer_2
  10
125.51385
  20
72.948433
  0
VERTEX
  5
700
  8
Layer_2
  10
125.60758
  20
72.988894
  0
VERTEX
  5
701
  8
Layer_2
  10
125.68799
  20
73.049927
  0
VERTEX
  5
702
  8
Layer_2
  10
125.75703
  20
73.133394
  0
VERTEX
  5
703
  8
Layer_2
  10
125.80281
  20
73.233765
  0
VERTEX
  5
704
  8
Layer_2
  10
125.8271
  20
73.356703
  0
VERTEX
  5
705
  8
Layer_2
  10
125.83167
  20
73.507874
  42
0.10314655
  0
VERTEX
  5
706
  8
Layer_2
  10
125.79639
  20
73.711792
  42
0.16489007
  0
VERTEX
  5
707
  8
Layer_2
  10
125.61554
  20
73.892944
  42
0.054313156
  0
VERTEX
  5
708
  8
Layer_2
  10
125.28503
  20
74.004578
  42
-0.045017946
  0
VERTEX
  5
709
  8
Layer_2
  10
125.09753
  20
74.065979
  42
-0.22721552
  0
VERTEX
  5
70a
  8
Layer_2
  10
124.95148
  20
74.232483
  42
-0.16764241
  0
VERTEX
  5
70b
  8
Layer_2
  10
124.974
  20
74.483093
  0
VERTEX
  5
70c
  8
Layer_2
  10
125.04359
  20
74.570565
  0
VERTEX
  5
70d
  8
Layer_2
  10
125.16386
  20
74.619911
  0
VERTEX
  5
70e
  8
Layer_2
  10
125.3498
  20
74.63425
  0
VERTEX
  5
70f
  8
Layer_2
  10
125.61639
  20
74.616699
  0
VERTEX
  5
710
  8
Layer_2
  10
125.77808
  20
74.603455
  0
VERTEX
  5
711
  8
Layer_2
  10
125.78479
  20
74.684692
  0
VERTEX
  5
712
  8
Layer_2
  10
125.78721
  20
74.735168
  0
VERTEX
  5
713
  8
Layer_2
  10
125.77731
  20
74.760506
  0
VERTEX
  5
714
  8
Layer_2
  10
125.73927
  20
74.773313
  0
VERTEX
  5
715
  8
Layer_2
  10
125.65723
  20
74.786194
  42
0.068267915
  0
VERTEX
  5
716
  8
Layer_2
  10
125.18732
  20
74.813049
  0
VERTEX
  5
717
  8
Layer_2
  10
124.97721
  20
74.760082
  0
VERTEX
  5
718
  8
Layer_2
  10
124.83385
  20
74.656235
  0
VERTEX
  5
719
  8
Layer_2
  10
124.75377
  20
74.497433
  0
VERTEX
  5
71a
  8
Layer_2
  10
124.73352
  20
74.279602
  42
0.1068395
  0
VERTEX
  5
71b
  8
Layer_2
  10
124.77484
  20
74.087341
  42
0.099066473
  0
VERTEX
  5
71c
  8
Layer_2
  10
124.85443
  20
73.974854
  0
VERTEX
  5
71d
  8
Layer_2
  10
125.00566
  20
73.886833
  0
VERTEX
  5
71e
  8
Layer_2
  10
125.23755
  20
73.810669
  0
VERTEX
  5
71f
  8
Layer_2
  10
125.37099
  20
73.772626
  0
VERTEX
  5
720
  8
Layer_2
  10
125.46849
  20
73.734703
  0
VERTEX
  5
721
  8
Layer_2
  10
125.53598
  20
73.694068
  0
VERTEX
  5
722
  8
Layer_2
  10
125.57941
  20
73.647888
  42
-0.35407033
  0
VERTEX
  5
723
  8
Layer_2
  10
125.53583
  20
73.187439
  42
-0.1896762
  0
VERTEX
  5
724
  8
Layer_2
  10
125.30243
  20
73.101563
  42
-0.06171775
  0
VERTEX
  5
725
  8
Layer_2
  10
124.79053
  20
73.13501
  0
VERTEX
  5
726
  8
Layer_2
  10
124.76701
  20
73.129173
  0
VERTEX
  5
727
  8
Layer_2
  10
124.75873
  20
73.05719
  0
VERTEX
  5
728
  8
Layer_2
  10
124.75727
  20
72.994141
  0
VERTEX
  5
729
  8
Layer_2
  10
124.76355
  20
72.967712
  0
VERTEX
  5
72a
  8
Layer_2
  10
124.81689
  20
72.958206
  0
VERTEX
  5
72b
  8
Layer_2
  10
124.93048
  20
72.944397
  0
SEQEND
  0
POLYLINE
  5
72d
  8
Layer_2
  62
1
  70
1
  66
1
  10
0
  20
0
  30
0
  0
VERTEX
  5
72d
  8
Layer_2
  10
127.44592
  20
73.865479
  0
VERTEX
  5
72e
  8
Layer_2
  10
127.44592
  20
74.791992
  0
VERTEX
  5
72f
  8
Layer_2
  10
127.54608
  20
74.791992
  0
VERTEX
  5
730
  8
Layer_2
  10
127.64624
  20
74.791992
  0
VERTEX
  5
731
  8
Layer_2
  10
127.64624
  20
73.960571
  0
VERTEX
  5
732
  8
Layer_2
  10
127.64624
  20
73.129272
  0
VERTEX
  5
733
  8
Layer_2
  10
128.01184
  20
73.129272
  0
VERTEX
  5
734
  8
Layer_2
  10
128.37744
  20
73.129272
  0
VERTEX
  5
735
  8
Layer_2
  10
128.37744
  20
73.034058
  0
VERTEX
  5
736
  8
Layer_2
  10
128.37744
  20
72.938904
  0
VERTEX
  5
737
  8
Layer_2
  10
127.91168
  20
72.938904
  0
VERTEX
  5
738
  8
Layer_2
  10
127.44592
  20
72.938904
  0
SEQEND
  0
POLYLINE
  5
73a
  8
Layer_2
  62
1
  70
1
  66
1
  10
0
  20
0
  30
0
  0
VERTEX
  5
73a
  8
Layer_2
  10
128.27728
  20
76.625
  0
VERTEX
  5
73b
  8
Layer_2
  10
128.27728
  20
77.546509
  0
VERTEX
  5
73c
  8
Layer_2
  10
128.79315
  20
77.546509
  0
VERTEX
  5
73d
  8
Layer_2
  10
129.30896
  20
77.546509
  0
VERTEX
  5
73e
  8
Layer_2
  10
129.30896
  20
77.45636
  0
VERTEX
  5
73f
  8
Layer_2
  10
129.30896
  20
77.366211
  0
VERTEX
  5
740
  8
Layer_2
  10
128.89331
  20
77.366211
  0
VERTEX
  5
741
  8
Layer_2
  10
128.4776
  20
77.366211
  0
VERTEX
  5
742
  8
Layer_2
  10
128.4776
  20
77.050659
  0
VERTEX
  5
743
  8
Layer_2
  10
128.4776
  20
76.735168
  0
VERTEX
  5
744
  8
Layer_2
  10
128.81818
  20
76.735168
  0
VERTEX
  5
745
  8
Layer_2
  10
129.15869
  20
76.735168
  0
VERTEX
  5
746
  8
Layer_2
  10
129.15869
  20
76.64502
  0
VERTEX
  5
747
  8
Layer_2
  10
129.15869
  20
76.554871
  0
VERTEX
  5
748
  8
Layer_2
  10
128.81818
  20
76.554871
  0
VERTEX
  5
749
  8
Layer_2
  10
128.4776
  20
76.554871
  0
VERTEX
  5
74a
  8
Layer_2
  10
128.4776
  20
76.21936
  0
VERTEX
  5
74b
  8
Layer_2
  10
128.4776
  20
75.883789
  0
VERTEX
  5
74c
  8
Layer_2
  10
128.89331
  20
75.883789
  0
VERTEX
  5
74d
  8
Layer_2
  10
129.30896
  20
75.883789
  0
VERTEX
  5
74e
  8
Layer_2
  10
129.30896
  20
75.79364
  0
VERTEX
  5
74f
  8
Layer_2
  10
129.30896
  20
75.703491
  0
VERTEX
  5
750
  8
Layer_2
  10
128.79315
  20
75.703491
  0
VERTEX
  5
751
  8
Layer_2
  10
128.27728
  20
75.703491
  0
SEQEND
  0
POLYLINE
  5
753
  8
Layer_2
  62
1
  70
1
  66
1
  10
0
  20
0
  30
0
  0
VERTEX
  5
753
  8
Layer_2
  10
132.89484
  20
77.892029
  0
VERTEX
  5
754
  8
Layer_2
  10
132.89484
  20
78.077332
  0
VERTEX
  5
755
  8
Layer_2
  10
132.83978
  20
78.077332
  0
VERTEX
  5
756
  8
Layer_2
  10
132.78467
  20
78.077332
  0
VERTEX
  5
757
  8
Layer_2
  10
132.78467
  20
78.112427
  0
VERTEX
  5
758
  8
Layer_2
  10
132.78467
  20
78.147522
  0
VERTEX
  5
759
  8
Layer_2
  10
132.93494
  20
78.147522
  0
VERTEX
  5
75a
  8
Layer_2
  10
133.08521
  20
78.147522
  0
VERTEX
  5
75b
  8
Layer_2
  10
133.08521
  20
78.112427
  0
VERTEX
  5
75c
  8
Layer_2
  10
133.08521
  20
78.077332
  0
VERTEX
  5
75d
  8
Layer_2
  10
133.0351
  20
78.077332
  0
VERTEX
  5
75e
  8
Layer_2
  10
132.98499
  20
78.077332
  0
VERTEX
  5
75f
  8
Layer_2
  10
132.98499
  20
77.892029
  0
VERTEX
  5
760
  8
Layer_2
  10
132.98499
  20
77.706787
  0
VERTEX
  5
761
  8
Layer_2
  10
132.93994
  20
77.706787
  0
VERTEX
  5
762
  8
Layer_2
  10
132.89484
  20
77.706787
  0
SEQEND
  0
POLYLINE
  5
764
  8
Layer_2
  62
1
  70
1
  66
1
  10
0
  20
0
  30
0
  0
VERTEX
  5
764
  8
Layer_2
  10
118.24976
  20
72.295471
  42
-0.64326306
  0
VERTEX
  5
765
  8
Layer_2
  10
118.17828
  20
72.289001
  0
VERTEX
  5
766
  8
Layer_2
  10
118.16698
  20
73.111343
  0
VERTEX
  5
767
  8
Layer_2
  10
118.17999
  20
73.923157
  42
-0.46600076
  0
VERTEX
  5
768
  8
Layer_2
  10
118.24384
  20
73.91272
  0
VERTEX
  5
769
  8
Layer_2
  10
118.25224
  20
73.875625
  0
VERTEX
  5
76a
  8
Layer_2
  10
118.25703
  20
73.761665
  0
VERTEX
  5
76b
  8
Layer_2
  10
118.25838
  20
73.660446
  0
VERTEX
  5
76c
  8
Layer_2
  10
118.2592
  20
73.521512
  0
VERTEX
  5
76d
  8
Layer_2
  10
118.2596
  20
73.338697
  0
VERTEX
  5
76e
  8
Layer_2
  10
118.2597
  20
73.105835
  0
VERTEX
  5
76f
  8
Layer_2
  10
118.25902
  20
72.776973
  0
VERTEX
  5
770
  8
Layer_2
  10
118.25704
  20
72.52494
  0
VERTEX
  5
771
  8
Layer_2
  10
118.25391
  20
72.360765
  0
SEQEND
  0
POLYLINE
  5
773
  8
Layer_2
  62
1
  70
1
  66
1
  10
0
  20
0
  30
0
  0
VERTEX
  5
773
  8
Layer_2
  10
121.86005
  20
123.5
  0
VERTEX
  5
774
  8
Layer_2
  10
178.211
  20
123.5
  0
VERTEX
  5
775
  8
Layer_2
  10
178.211
  20
93.588196
  0
VERTEX
  5
776
  8
Layer_2
  10
121.86005
  20
93.588196
  0
SEQEND
  0
POLYLINE
  5
778
  8
Layer_2
  62
1
  70
1
  66
1
  10
0
  20
0
  30
0
  0
VERTEX
  5
778
  8
Layer_2
  10
124.27795
  20
95.949463
  0
VERTEX
  5
779
  8
Layer_2
  10
175.56628
  20
95.949463
  0
VERTEX
  5
77a
  8
Layer_2
  10
175.56628
  20
120.97968
  0
VERTEX
  5
77b
  8
Layer_2
  10
124.27795
  20
120.97968
  0
SEQEND
  0
POLYLINE
  5
77d
  8
Layer_2
  62
1
  70
1
  66
1
  10
0
  20
0
  30
0
  0
VERTEX
  5
77d
  8
Layer_2
  10
124.27795
  20
102.31481
  0
VERTEX
  5
77e
  8
Layer_2
  10
133.3878
  20
120.97968
  0
VERTEX
  5
77f
  8
Layer_2
  10
175.56628
  20
113.75272
  0
VERTEX
  5
780
  8
Layer_2
  10
167.97386
  20
95.949463
  0
SEQEND
  0
POLYLINE
  5
782
  8
Layer_2
  62
1
  66
1
  10
0
  20
0
  30
0
  0
VERTEX
  5
782
  8
Layer_2
  10
128.52258
  20
111.01148
  0
VERTEX
  5
783
  8
Layer_2
  10
132.32605
  20
101.14242
  0
VERTEX
  5
784
  8
Layer_2
  10
170.19846
  20
101.16584
  0
VERTEX
  5
785
  8
Layer_2
  10
171.49374
  20
114.45052
  0
VERTEX
  5
786
  8
Layer_2
  10
132.41896
  20
118.99464
  0
VERTEX
  5
787
  8
Layer_2
  10
129.32758
  20
108.92272
  0
SEQEND
  0
POLYLINE
  5
789
  8
Layer_2
  62
1
  66
1
  10
0
  20
0
  30
0
  0
VERTEX
  5
789
  8
Layer_2
  10
173.14815
  20
120.97968
  0
VERTEX
  5
78a
  8
Layer_2
  10
164.98711
  20
96.38456
  0
VERTEX
  5
78b
  8
Layer_2
  10
124.27795
  20
99.591507
  0
VERTEX
  5
78c
  8
Layer_2
  10
129.30283
  20
120.97968
  0
SEQEND
  0
POLYLINE
  5
78e
  8
Layer_2
  62
1
  66
1
  10
0
  20
0
  30
0
  0
VERTEX
  5
78e
  8
Layer_2
  10
129.30283
  20
120.97968
  0
VERTEX
  5
78f
  8
Layer_2
  10
173.14815
  20
120.97968
  0
SEQEND
  0
POLYLINE
  5
791
  8
Layer_2
  62
1
  66
1
  10
0
  20
0
  30
0
  0
VERTEX
  5
791
  8
Layer_2
  10
162.52724
  20
120.97968
  0
VERTEX
  5
792
  8
Layer_2
  10
175.56628
  20
108.46457
  0
SEQEND
  0
POLYLINE
  5
794
  8
Layer_2
  62
1
  66
1
  10
0
  20
0
  30
0
  0
VERTEX
  5
794
  8
Layer_2
  10
175.56628
  20
108.46457
  0
VERTEX
  5
795
  8
Layer_2
  10
157.8976
  20
95.949463
  0
SEQEND
  0
POLYLINE
  5
797
  8
Layer_2
  62
1
  66
1
  10
0
  20
0
  30
0
  0
VERTEX
  5
797
  8
Layer_2
  10
157.8976
  20
95.949463
  0
VERTEX
  5
798
  8
Layer_2
  10
124.27795
  20
108.46457
  0
VERTEX
  5
799
  8
Layer_2
  10
126.57953
  20
120.97968
  0
SEQEND
  0
POLYLINE
  5
79b
  8
Layer_2
  62
1
  66
1
  10
0
  20
0
  30
0
  0
VERTEX
  5
79b
  8
Layer_2
  10
168.31071
  20
120.97968
  0
VERTEX
  5
79c
  8
Layer_2
  10
175.56628
  20
101.92104
  0
VERTEX
  5
79d
  8
Layer_2
  10
170.98116
  20
95.949463
  0
VERTEX
  5
79e
  8
Layer_2
  10
156.70444
  20
101.15749
  0
VERTEX
  5
79f
  8
Layer_2
  10
124.27795
  20
95.949463
  0
SEQEND
  0
POLYLINE
  5
7a1
  8
Layer_2
  62
1
  66
1
  10
0
  20
0
  30
0
  0
VERTEX
  5
7a1
  8
Layer_2
  10
151.06882
  20
116.82579
  0
VERTEX
  5
7a2
  8
Layer_2
  10
152.13069
  20
117.18006
  0
VERTEX
  5
7a3
  8
Layer_2
  10
153.12487
  20
117.51368
  0
VERTEX
  5
7a4
  8
Layer_2
  10
154.05359
  20
117.82727
  0
VERTEX
  5
7a5
  8
Layer_2
  10
154.91908
  20
118.12145
  0
VERTEX
  5
7a6
  8
Layer_2
  10
155.72356
  20
118.39684
  0
VERTEX
  5
7a7
  8
Layer_2
  10
156.46927
  20
118.65405
  0
VERTEX
  5
7a8
  8
Layer_2
  10
157.15843
  20
118.8937
  0
VERTEX
  5
7a9
  8
Layer_2
  10
157.79326
  20
119.1164
  0
VERTEX
  5
7aa
  8
Layer_2
  10
158.37601
  20
119.32277
  0
VERTEX
  5
7ab
  8
Layer_2
  10
158.9089
  20
119.51343
  0
VERTEX
  5
7ac
  8
Layer_2
  10
159.39415
  20
119.68899
  0
VERTEX
  5
7ad
  8
Layer_2
  10
159.83399
  20
119.85007
  0
VERTEX
  5
7ae
  8
Layer_2
  10
160.23065
  20
119.99728
  0
VERTEX
  5
7af
  8
Layer_2
  10
160.58637
  20
120.13125
  0
VERTEX
  5
7b0
  8
Layer_2
  10
160.90336
  20
120.25258
  0
VERTEX
  5
7b1
  8
Layer_2
  10
161.18387
  20
120.3619
  0
VERTEX
  5
7b2
  8
Layer_2
  10
161.4301
  20
120.45982
  0
VERTEX
  5
7b3
  8
Layer_2
  10
161.64431
  20
120.54695
  0
VERTEX
  5
7b4
  8
Layer_2
  10
161.8287
  20
120.62392
  0
VERTEX
  5
7b5
  8
Layer_2
  10
161.98551
  20
120.69134
  0
VERTEX
  5
7b6
  8
Layer_2
  10
162.22532
  20
120.79998
  0
VERTEX
  5
7b7
  8
Layer_2
  10
162.38155
  20
120.87782
  0
VERTEX
  5
7b8
  8
Layer_2
  10
162.47203
  20
120.92978
  0
VERTEX
  5
7b9
  8
Layer_2
  10
162.51458
  20
120.96078
  0
VERTEX
  5
7ba
  8
Layer_2
  10
162.52704
  20
120.97577
  0
VERTEX
  5
7bb
  8
Layer_2
  10
162.52724
  20
120.97968
  0
SEQEND
  0
POLYLINE
  5
7bd
  8
Layer_2
  62
1
  66
1
  10
0
  20
0
  30
0
  0
VERTEX
  5
7bd
  8
Layer_2
  10
132.41896
  20
118.99464
  0
VERTEX
  5
7be
  8
Layer_2
  10
175.56628
  20
120.97968
  0
SEQEND
  0
POLYLINE
  5
7c0
  8
Layer_2
  62
1
  66
1
  10
0
  20
0
  30
0
  0
VERTEX
  5
7c0
  8
Layer_2
  10
143.92836
  20
101.1496
  0
VERTEX
  5
7c1
  8
Layer_2
  10
167.82092
  20
104.92489
  0
SEQEND
  0
ENDSEC
  0
EOF
