  0
SECTION
  2
HEADER
  9
$ACADVER
  1
AC1009
  0
ENDSEC
  0
SECTION
  2
TABLES
  0
TABLE
  2
LAYER
  70
2
  0
LAYER
  2
Layer_0
  70
0
  62
7
  6
CONTINUOUS
  0
LAYER
  2
Layer_2
  70
0
  62
1
  6
CONTINUOUS
  0
ENDTAB
  0
ENDSEC
  0
SECTION
  2
ENTITIES
  0
POLYLINE
  5
90
  8
Layer_0
  62
7
  70
1
  66
1
  10
0
  20
0
  30
0
  0
VERTEX
  5
90
  8
Layer_0
  10
271.92001
  20
188.43201
  0
VERTEX
  5
91
  8
Layer_0
  10
271.92001
  20
137.632
  0
VERTEX
  5
92
  8
Layer_0
  10
251.60001
  20
137.632
  0
VERTEX
  5
93
  8
Layer_0
  10
251.60001
  20
133.56801
  0
VERTEX
  5
94
  8
Layer_0
  10
231.28
  20
133.56801
  0
VERTEX
  5
95
  8
Layer_0
  10
231.28
  20
137.632
  0
VERTEX
  5
96
  8
Layer_0
  10
231.28
  20
157.95201
  0
VERTEX
  5
97
  8
Layer_0
  10
205.88
  20
157.95201
  0
VERTEX
  5
98
  8
Layer_0
  10
205.88
  20
137.632
  0
VERTEX
  5
99
  8
Layer_0
  10
205.88
  20
133.56801
  0
VERTEX
  5
9a
  8
Layer_0
  10
185.56
  20
133.56801
  0
VERTEX
  5
9b
  8
Layer_0
  10
185.56
  20
137.632
  0
VERTEX
  5
9c
  8
Layer_0
  10
160.16
  20
137.632
  0
VERTEX
  5
9d
  8
Layer_0
  10
160.16
  20
133.56801
  0
VERTEX
  5
9e
  8
Layer_0
  10
139.84
  20
133.56801
  0
VERTEX
  5
9f
  8
Layer_0
  10
139.84
  20
137.632
  0
VERTEX
  5
a0
  8
Layer_0
  10
114.44
  20
137.632
  0
VERTEX
  5
a1
  8
Layer_0
  10
114.44
  20
133.56801
  0
VERTEX
  5
a2
  8
Layer_0
  10
94.120003
  20
133.56801
  0
VERTEX
  5
a3
  8
Layer_0
  10
94.120003
  20
137.632
  0
VERTEX
  5
a4
  8
Layer_0
  10
94.120003
  20
157.95201
  0
VERTEX
  5
a5
  8
Layer_0
  10
68.720001
  20
157.95201
  0
VERTEX
  5
a6
  8
Layer_0
  10
68.720001
  20
137.632
  0
VERTEX
  5
a7
  8
Layer_0
  10
68.720001
  20
133.56801
  0
VERTEX
  5
a8
  8
Layer_0
  10
48.400009
  20
133.56801
  0
VERTEX
  5
a9
  8
Layer_0
  10
48.400009
  20
137.632
  0
VERTEX
  5
aa
  8
Layer_0
  10
28.080002
  20
137.632
  0
VERTEX
  5
ab
  8
Layer_0
  10
28.080002
  20
188.43201
  0
SEQEND
  0
POLYLINE
  5
ad
  8
Layer_2
  62
1
  70
1
  66
1
  10
0
  20
0
  30
0
  0
VERTEX
  5
ad
  8
Layer_2
  10
176.4314
  20
150.27524
  0
VERTEX
  5
ae
  8
Layer_2
  10
173.71997
  20
152.51401
  0
VERTEX
  5
af
  8
Layer_2
  10
173.80151
  20
152.82455
  42
0.055894762
  0
VERTEX
  5
b0
  8
Layer_2
  10
173.99243
  20
154.64487
  0
VERTEX
  5
b1
  8
Layer_2
  10
173.99243
  20
168.28012
  42
0.10836329
  0
VERTEX
  5
b2
  8
Layer_2
  10
173.40796
  20
171.28305
  42
0.21334336
  0
VERTEX
  5
b3
  8
Layer_2
  10
170.26978
  20
174.07016
  42
0.15097515
  0
VERTEX
  5
b4
  8
Layer_2
  10
164.84595
  20
174.07016
  42
0.25611625
  0
VERTEX
  5
b5
  8
Layer_2
  10
161.42407
  20
170.51401
  42
0.07055139
  0
VERTEX
  5
b6
  8
Layer_2
  10
161.12915
  20
168.28012
  0
VERTEX
  5
b7
  8
Layer_2
  10
161.12915
  20
154.64487
  42
0.10770736
  0
VERTEX
  5
b8
  8
Layer_2
  10
161.70728
  20
151.64877
  42
0.21138676
  0
VERTEX
  5
b9
  8
Layer_2
  10
164.84595
  20
148.8475
  42
0.15467418
  0
VERTEX
  5
ba
  8
Layer_2
  10
170.26978
  20
148.8475
  42
0.06970299
  0
VERTEX
  5
bb
  8
Layer_2
  10
171.6687
  20
149.556
  0
VERTEX
  5
bc
  8
Layer_2
  10
174.13257
  20
147.52036
  0
SEQEND
  0
POLYLINE
  5
be
  8
Layer_2
  62
1
  70
1
  66
1
  10
0
  20
0
  30
0
  0
VERTEX
  5
be
  8
Layer_2
  10
167.16333
  20
152.2601
  0
VERTEX
  5
bf
  8
Layer_2
  10
166.80396
  20
152.31772
  42
-0.31355893
  0
VERTEX
  5
c0
  8
Layer_2
  10
165.08228
  20
154.09457
  42
-0.051877929
  0
VERTEX
  5
c1
  8
Layer_2
  10
165.00757
  20
154.87289
  0
VERTEX
  5
c2
  8
Layer_2
  10
165.00757
  20
168.06967
  42
-0.11822607
  0
VERTEX
  5
c3
  8
Layer_2
  10
165.30591
  20
169.48227
  42
-0.23226574
  0
VERTEX
  5
c4
  8
Layer_2
  10
166.80396
  20
170.60727
  42
-0.16806381
  0
VERTEX
  5
c5
  8
Layer_2
  10
168.93823
  20
170.37729
  42
-0.2304261
  0
VERTEX
  5
c6
  8
Layer_2
  10
170.03979
  20
168.8353
  42
-0.051751549
  0
VERTEX
  5
c7
  8
Layer_2
  10
170.11401
  20
168.06967
  0
VERTEX
  5
c8
  8
Layer_2
  10
170.11401
  20
155.49155
  0
VERTEX
  5
c9
  8
Layer_2
  10
168.78052
  20
156.59262
  0
VERTEX
  5
ca
  8
Layer_2
  10
166.46411
  20
153.85532
  0
VERTEX
  5
cb
  8
Layer_2
  10
168.31958
  20
152.3226
  42
-0.081802697
  0
SEQEND
  0
POLYLINE
  5
cd
  8
Layer_2
  62
1
  70
1
  66
1
  10
0
  20
0
  30
0
  0
VERTEX
  5
cd
  8
Layer_2
  10
127.41187
  20
159.68149
  0
VERTEX
  5
ce
  8
Layer_2
  10
127.4314
  20
160.08725
  42
-0.18759254
  0
VERTEX
  5
cf
  8
Layer_2
  10
128.42944
  20
162.30502
  42
-0.15734343
  0
VERTEX
  5
d0
  8
Layer_2
  10
130.37427
  20
163.20151
  42
-0.037079667
  0
VERTEX
  5
d1
  8
Layer_2
  10
132.09692
  20
163.26108
  0
VERTEX
  5
d2
  8
Layer_2
  10
132.09692
  20
167.22739
  42
0.19354991
  0
VERTEX
  5
d3
  8
Layer_2
  10
128.573
  20
165.79965
  42
0.068624231
  0
VERTEX
  5
d4
  8
Layer_2
  10
127.41187
  20
164.3812
  0
VERTEX
  5
d5
  8
Layer_2
  10
127.41187
  20
166.91147
  0
VERTEX
  5
d6
  8
Layer_2
  10
123.5686
  20
166.91147
  0
VERTEX
  5
d7
  8
Layer_2
  10
123.5686
  20
148.69614
  0
VERTEX
  5
d8
  8
Layer_2
  10
127.41187
  20
148.69614
  0
SEQEND
  0
POLYLINE
  5
da
  8
Layer_2
  62
1
  70
1
  66
1
  10
0
  20
0
  30
0
  0
VERTEX
  5
da
  8
Layer_2
  10
140.26782
  20
148.45444
  42
0.090542665
  0
VERTEX
  5
db
  8
Layer_2
  10
142.44165
  20
148.97104
  42
0.23267957
  0
VERTEX
  5
dc
  8
Layer_2
  10
144.92261
  20
151.97446
  42
0.068053181
  0
VERTEX
  5
dd
  8
Layer_2
  10
145.12524
  20
154.01303
  0
VERTEX
  5
de
  8
Layer_2
  10
141.42261
  20
154.03061
  0
VERTEX
  5
df
  8
Layer_2
  10
141.42261
  20
153.64487
  42
-0.24458781
  0
VERTEX
  5
e0
  8
Layer_2
  10
140.83472
  20
152.285
  42
-0.19719692
  0
VERTEX
  5
e1
  8
Layer_2
  10
139.1936
  20
151.97885
  42
-0.32051064
  0
VERTEX
  5
e2
  8
Layer_2
  10
137.7561
  20
153.42368
  42
-0.05253205
  0
VERTEX
  5
e3
  8
Layer_2
  10
137.68433
  20
154.13608
  0
VERTEX
  5
e4
  8
Layer_2
  10
137.68433
  20
156.39975
  0
VERTEX
  5
e5
  8
Layer_2
  10
145.07251
  20
156.39975
  0
VERTEX
  5
e6
  8
Layer_2
  10
145.07251
  20
161.38364
  42
0.11724121
  0
VERTEX
  5
e7
  8
Layer_2
  10
144.41431
  20
164.55112
  42
0.23183664
  0
VERTEX
  5
e8
  8
Layer_2
  10
141.12183
  20
167.056
  42
0.14281644
  0
VERTEX
  5
e9
  8
Layer_2
  10
137.16724
  20
166.8226
  42
0.21492325
  0
VERTEX
  5
ea
  8
Layer_2
  10
134.47876
  20
164.04672
  42
0.092173983
  0
VERTEX
  5
eb
  8
Layer_2
  10
133.98169
  20
161.06772
  0
VERTEX
  5
ec
  8
Layer_2
  10
133.98169
  20
154.25912
  42
0.11861716
  0
VERTEX
  5
ed
  8
Layer_2
  10
134.64868
  20
151.10873
  42
0.23108955
  0
VERTEX
  5
ee
  8
Layer_2
  10
137.97388
  20
148.60385
  42
0.070846569
  0
SEQEND
  0
POLYLINE
  5
f0
  8
Layer_2
  62
1
  70
1
  66
1
  10
0
  20
0
  30
0
  0
VERTEX
  5
f0
  8
Layer_2
  10
153.48853
  20
148.44321
  42
0.16460577
  0
VERTEX
  5
f1
  8
Layer_2
  10
156.90259
  20
149.67758
  42
0.19630876
  0
VERTEX
  5
f2
  8
Layer_2
  10
158.64185
  20
153.05746
  42
0.10807216
  0
VERTEX
  5
f3
  8
Layer_2
  10
158.33472
  20
156.17319
  42
0.19888639
  0
VERTEX
  5
f4
  8
Layer_2
  10
156.07983
  20
158.61166
  42
0.043245131
  0
VERTEX
  5
f5
  8
Layer_2
  10
154.19702
  20
159.35239
  42
0.064875857
  0
VERTEX
  5
f6
  8
Layer_2
  10
154.01733
  20
159.4183
  0
VERTEX
  5
f7
  8
Layer_2
  10
153.59985
  20
159.56577
  42
-0.049534841
  0
VERTEX
  5
f8
  8
Layer_2
  10
152.34888
  20
160.13608
  42
-0.17966094
  0
VERTEX
  5
f9
  8
Layer_2
  10
151.47046
  20
161.23422
  42
-0.19943648
  0
VERTEX
  5
fa
  8
Layer_2
  10
151.70093
  20
163.15219
  42
-0.29748966
  0
VERTEX
  5
fb
  8
Layer_2
  10
153.10864
  20
163.7977
  42
-0.37303911
  0
VERTEX
  5
fc
  8
Layer_2
  10
154.48218
  20
162.42319
  42
-0.035609684
  0
VERTEX
  5
fd
  8
Layer_2
  10
154.50854
  20
161.78745
  0
VERTEX
  5
fe
  8
Layer_2
  10
158.17603
  20
161.80453
  42
0.13201552
  0
VERTEX
  5
ff
  8
Layer_2
  10
157.53589
  20
164.77914
  42
0.22198268
  0
VERTEX
  5
100
  8
Layer_2
  10
154.4231
  20
167.06918
  42
0.14173485
  0
VERTEX
  5
101
  8
Layer_2
  10
150.78247
  20
166.85727
  42
0.24112333
  0
VERTEX
  5
102
  8
Layer_2
  10
147.94995
  20
163.70737
  42
0.14642144
  0
VERTEX
  5
103
  8
Layer_2
  10
148.02075
  20
159.75522
  42
0.179803
  0
VERTEX
  5
104
  8
Layer_2
  10
150.15112
  20
157.28012
  42
0.039112481
  0
VERTEX
  5
105
  8
Layer_2
  10
152.82397
  20
156.0892
  0
VERTEX
  5
106
  8
Layer_2
  10
153.21021
  20
155.93051
  42
-0.074311099
  0
VERTEX
  5
107
  8
Layer_2
  10
154.28931
  20
155.33823
  42
-0.26637011
  0
VERTEX
  5
108
  8
Layer_2
  10
154.99194
  20
153.63315
  42
-0.20355441
  0
VERTEX
  5
109
  8
Layer_2
  10
154.40689
  20
152.34213
  42
-0.20355217
  0
VERTEX
  5
10a
  8
Layer_2
  10
153.06958
  20
151.87241
  42
-0.40122509
  0
VERTEX
  5
10b
  8
Layer_2
  10
151.17163
  20
153.52036
  42
-0.036930079
  0
VERTEX
  5
10c
  8
Layer_2
  10
151.1394
  20
154.18881
  0
VERTEX
  5
10d
  8
Layer_2
  10
147.47192
  20
154.17123
  42
0.13574635
  0
VERTEX
  5
10e
  8
Layer_2
  10
148.16479
  20
151.0477
  42
0.21581663
  0
VERTEX
  5
10f
  8
Layer_2
  10
151.49048
  20
148.60385
  42
0.068555739
  0
SEQEND
  0
POLYLINE
  5
111
  8
Layer_2
  62
1
  70
1
  66
1
  10
0
  20
0
  30
0
  0
VERTEX
  5
111
  8
Layer_2
  10
137.69214
  20
161.56821
  0
VERTEX
  5
112
  8
Layer_2
  10
137.71411
  20
161.84164
  42
-0.15978683
  0
VERTEX
  5
113
  8
Layer_2
  10
138.28296
  20
163.28403
  42
-0.2457574
  0
VERTEX
  5
114
  8
Layer_2
  10
139.70972
  20
163.77817
  42
-0.33117606
  0
VERTEX
  5
115
  8
Layer_2
  10
141.24683
  20
162.43198
  42
-0.068778216
  0
VERTEX
  5
116
  8
Layer_2
  10
141.36987
  20
161.43637
  0
VERTEX
  5
117
  8
Layer_2
  10
141.36987
  20
159.36557
  0
VERTEX
  5
118
  8
Layer_2
  10
137.68433
  20
159.36557
  42
-0.013462883
  0
SEQEND
  0
ENDSEC
  0
EOF
